P3
50 25
255
0 0 0 0 0 0 0 0 0 0 0 0 0 0 0 0 0 0 0 0 0 0 0 0 0 0 0 0 0 0 0 0 0 0 0
0 0 0 0 0 0 0 212 212 212 213 213 213 213 213 213 213 213 213 212 212
212 212 212 212 0 0 0 0 0 0 0 0 0 0 0 0 0 0 0 201 201 201 199 199 199
196 196 196 193 193 193 190 190 190 0 0 0 0 0 0 0 0 0 0 0 0 0 0 0 0 0
0 228 228 228 234 234 234 239 239 239 244 244 244 247 247 247 250 250
250 252 252 252 253 253 253 254 254 254 254 254 254 254 254 254 254
254 254 254 254 254 253 253 253
0 0 0 0 0 0 0 0 0 0 0 0 0 0 0 0 0 0 0 0 0 0 0 0 0 0 0 0 0 0 0 0 0 0 0
0 0 0 0 0 0 0 0 0 0 201 201 201 202 202 202 202 202 202 202 202 202
201 201 201 0 0 0 0 0 0 0 0 0 0 0 0 0 0 0 192 192 192 189 189 189 187
187 187 184 184 184 182 182 182 0 0 0 0 0 0 0 0 0 0 0 0 0 0 0 219 219
219 226 226 226 232 232 232 238 238 238 242 242 242 246 246 246 249
249 249 251 251 251 252 252 252 254 254 254 254 254 254 254 254 254
254 254 254 254 254 254 253 253 253
0 0 0 0 0 0 0 0 0 0 0 0 0 0 0 0 0 0 0 0 0 0 0 0 0 0 0 0 0 0 0 0 0 0 0
0 0 0 0 0 0 0 0 0 0 189 189 189 190 190 190 190 190 190 190 190 190
189 189 189 0 0 0 0 0 0 0 0 0 0 0 0 0 0 0 182 182 182 179 179 179 177
177 177 175 175 175 172 172 172 0 0 0 0 0 0 0 0 0 0 0 0 0 0 0 215 215
215 223 223 223 229 229 229 235 235 235 240 240 240 244 244 244 247
247 247 250 250 250 252 252 252 253 253 253 254 254 254 254 254 254
254 254 254 254 254 254 253 253 253
0 0 0 0 0 0 0 0 0 0 0 0 0 0 0 0 0 0 0 0 0 0 0 0 0 0 0 0 0 0 0 0 0 0 0
0 0 0 0 0 0 0 0 0 0 0 0 0 177 177 177 177 177 177 177 177 177 177 177
177 0 0 0 0 0 0 0 0 0 0 0 0 0 0 0 171 171 171 169 169 169 167 167 167
165 165 165 163 163 163 0 0 0 0 0 0 0 0 0 0 0 0 202 202 202 211 211
211 219 219 219 226 226 226 232 232 232 238 238 238 242 242 242 246
246 246 248 248 248 250 250 250 252 252 252 253 253 253 253 253 253
253 253 253 253 253 253 253 253 253
0 0 0 0 0 0 0 0 0 0 0 0 0 0 0 0 0 0 0 0 0 0 0 0 0 0 0 0 0 0 0 0 0 0 0
0 0 0 0 0 0 0 0 0 0 0 0 0 164 164 164 164 164 164 164 164 164 164 164
164 164 164 164 0 0 0 0 0 0 0 0 0 0 0 0 25 25 25 25 25 25 156 156 156
154 154 154 0 0 0 0 0 0 0 0 0 0 0 0 0 0 0 197 197 197 207 207 207 215
215 215 223 223 223 229 229 229 235 235 235 240 240 240 244 244 244
247 247 247 249 249 249 251 251 251 252 252 252 252 252 252 253 253
253 253 253 253 252 252 252
243 243 243 0 0 0 0 0 0 0 0 0 0 0 0 0 0 0 0 0 0 0 0 0 0 0 0 0 0 0 0 0
0 0 0 0 0 0 0 0 0 0 0 0 0 0 0 0 0 0 0 215 215 215 215 215 215 215 215
215 25 25 25 25 25 25 25 25 25 25 25 25 25 25 25 25 25 25 25 25 25 25
25 25 25 25 25 199 199 199 197 197 197 194 194 194 191 191 191 182
182 182 192 192 192 202 202 202 211 211 211 219 219 219 226 226 226
232 232 232 237 237 237 241 241 241 244 244 244 247 247 247 249 249
249 250 250 250 251 251 251 252 252 252 252 252 252 0 0 0
245 245 245 242 242 242 237 237 237 0 0 0 0 0 0 0 0 0 0 0 0 0 0 0 0 0
0 0 0 0 0 0 0 0 0 0 0 0 0 0 0 0 0 0 0 0 0 0 218 218 218 219 219 219
219 219 219 25 25 25 6 60 30 7 75 37 7 73 36 5 58 29 2 28 14 2 25 12
25 25 25 25 25 25 25 25 25 25 25 25 25 25 25 197 197 197 194 194 194
191 191 191 187 187 187 197 197 197 206 206 206 214 214 214 221 221
221 228 228 228 233 233 233 238 238 238 242 242 242 245 245 245 247
247 247 249 249 249 250 250 250 0 0 0 0 0 0 0 0 0
247 247 247 243 243 243 237 237 237 230 230 230 222 222 222 0 0 0 0 0
0 0 0 0 0 0 0 0 0 0 0 0 0 0 0 0 0 0 0 0 0 0 0 0 0 222 222 222 223 223
223 223 223 223 224 224 224 9 91 45 11 118 59 12 125 62 11 119 59 10
104 52 7 78 39 3 39 19 25 25 25 25 25 25 25 25 25 12 25 2 25 25 25 25
25 25 25 25 25 194 194 194 191 191 191 191 191 191 200 200 200 209
209 209 217 217 217 224 224 224 230 230 230 235 235 235 239 239 239
242 242 242 245 245 245 0 0 0 0 0 0 0 0 0 0 0 0 0 0 0
99 99 99 95 95 95 236 236 236 228 228 228 219 219 219 209 209 209 0 0
0 0 0 0 0 0 0 0 0 0 0 0 0 0 0 0 0 0 0 0 0 0 0 0 0 226 226 226 227 227
227 228 228 228 8 81 40 13 135 67 15 155 77 15 159 79 15 152 76 13
136 68 11 111 55 7 75 37 2 25 12 12 25 2 75 151 15 68 137 13 40 81 8
25 25 25 25 25 25 197 197 197 194 194 194 185 185 185 195 195 195 204
204 204 212 212 212 219 219 219 225 225 225 231 231 231 235 235 235
239 239 239 0 0 0 0 0 0 0 0 0 0 0 0 0 0 0 0 0 0
0 0 0 102 102 102 96 96 96 90 90 90 216 216 216 205 205 205 194 194
194 182 182 182 0 0 0 0 0 0 0 0 0 0 0 0 0 0 0 0 0 0 229 229 229 230
230 230 231 231 231 232 232 232 11 119 59 16 163 81 18 180 90 18 183
91 17 176 88 15 159 79 13 133 66 9 98 49 4 48 24 12 25 2 98 196 19 89
179 17 62 125 12 12 25 2 25 25 25 199 199 199 196 196 196 193 193 193
189 189 189 198 198 198 206 206 206 214 214 214 221 221 221 226 226
226 0 0 0 0 0 0 0 0 0 0 0 0 0 0 0 0 0 0 0 0 0 187 187 187
0 0 0 0 0 0 0 0 0 98 98 98 90 90 90 82 82 82 188 188 188 177 177 177
165 165 165 154 154 154 0 0 0 0 0 0 0 0 0 230 230 230 232 232 232 234
234 234 235 235 235 236 236 236 13 134 67 17 178 89 19 195 97 19 198
99 19 190 95 17 173 86 14 147 73 11 111 55 6 60 30 12 25 2 99 199 19
91 183 18 62 125 12 25 25 25 205 205 205 202 202 202 198 198 198 195
195 195 191 191 191 192 192 192 201 201 201 208 208 208 0 0 0 0 0 0 0
0 0 0 0 0 0 0 0 0 0 0 0 0 0 187 187 187 189 189 189 191 191 191
0 0 0 0 0 0 0 0 0 0 0 0 0 0 0 0 0 0 81 81 81 73 73 73 159 159 159 148
148 148 137 137 137 0 0 0 0 0 0 234 234 234 236 236 236 237 237 237
238 238 238 239 239 239 12 128 64 18 180 90 19 199 99 20 203 101 19
195 97 17 178 89 15 151 75 11 113 56 5 58 29 25 25 25 65 130 13 65
131 13 14 28 2 211 211 211 208 208 208 204 204 204 200 200 200 197
197 197 193 193 193 185 185 185 194 194 194 0 0 0 0 0 0 0 0 0 0 0 0 0
0 0 179 179 179 185 185 185 189 189 189 192 192 192 194 194 194 195
195 195
0 0 0 0 0 0 0 0 0 0 0 0 0 0 0 0 0 0 0 0 0 0 0 0 71 71 71 64 64 64 132
132 132 122 122 122 235 235 235 237 237 237 239 239 239 241 241 241
242 242 242 242 242 242 243 243 243 16 164 82 19 190 95 19 196 98 18
189 94 17 171 85 14 143 71 10 101 50 3 32 16 25 25 25 224 224 224 221
221 221 217 217 217 214 214 214 210 210 210 206 206 206 202 202 202
199 199 199 195 195 195 191 191 191 0 0 0 0 0 0 0 0 0 0 0 0 172 172
172 180 180 180 186 186 186 191 191 191 194 194 194 197 197 197 198
198 198 199 199 199
0 0 0 0 0 0 0 0 0 0 0 0 0 0 0 0 0 0 0 0 0 0 0 0 0 0 0 0 0 0 62 62 62
56 56 56 238 238 238 240 240 240 242 242 242 243 243 243 245 245 245
245 245 245 246 246 246 10 106 53 16 160 80 17 172 86 16 168 84 15
150 75 11 118 59 6 65 32 25 25 25 230 230 230 226 226 226 223 223 223
219 219 219 216 216 216 212 212 212 208 208 208 204 204 204 200 200
200 196 196 196 193 193 193 0 0 0 0 0 0 161 161 161 171 171 171 180
180 180 187 187 187 193 193 193 197 197 197 199 199 199 201 201 201
202 202 202 203 203 203
0 0 0 0 0 0 0 0 0 0 0 0 0 0 0 0 0 0 0 0 0 0 0 0 0 0 0 0 0 0 0 0 0 0 0
0 240 240 240 242 242 242 244 244 244 246 246 246 247 247 247 248 248
248 248 248 248 248 248 248 247 247 247 11 111 55 11 116 58 9 95 47
241 241 241 238 238 238 235 235 235 232 232 232 228 228 228 225 225
225 221 221 221 217 217 217 213 213 213 210 210 210 206 206 206 202
202 202 198 198 198 194 194 194 147 147 147 159 159 159 170 170 170
180 180 180 188 188 188 194 194 194 199 199 199 202 202 202 204 204
204 206 206 206 206 206 206 206 206 206
0 0 0 0 0 0 0 0 0 0 0 0 0 0 0 0 0 0 0 0 0 0 0 0 0 0 0 0 0 0 0 0 0 0 0
0 0 0 0 244 244 244 247 247 247 248 248 248 249 249 249 138 110 13
162 129 16 58 46 5 250 250 250 249 249 249 247 247 247 245 245 245
243 243 243 240 240 240 237 237 237 234 234 234 230 230 230 226 226
226 223 223 223 219 219 219 215 215 215 211 211 211 207 207 207 203
203 203 199 199 199 143 143 143 156 156 156 168 168 168 179 179 179
188 188 188 195 195 195 201 201 201 205 205 205 207 207 207 209 209
209 209 209 209 209 209 209 209 209 209
0 0 0 0 0 0 0 0 0 0 0 0 0 0 0 0 0 0 0 0 0 0 0 0 0 0 0 0 0 0 0 0 0 0 0
0 0 0 0 246 246 246 248 248 248 250 250 250 251 251 251 182 145 18
197 157 19 109 87 10 254 254 254 252 252 252 249 249 249 247 247 247
244 244 244 241 241 241 238 238 238 235 235 235 231 231 231 228 228
228 224 224 224 220 220 220 216 216 216 212 212 212 208 208 208 204
204 204 200 200 200 153 153 153 166 166 166 177 177 177 187 187 187
196 196 196 202 202 202 207 207 207 210 210 210 212 212 212 213 213
213 213 213 213 212 212 212 211 211 211
0 0 0 0 0 0 0 0 0 0 0 0 0 0 0 0 0 0 0 0 0 0 0 0 0 0 0 0 0 0 0 0 0 0 0
0 0 0 0 0 0 0 249 249 249 251 251 251 252 252 252 253 253 253 122 98
12 255 255 255 255 255 255 255 255 255 255 255 255 248 248 248 245
245 245 242 242 242 239 239 239 236 236 236 232 232 232 229 229 229
225 225 225 221 221 221 217 217 217 213 213 213 209 209 209 205 205
205 148 148 148 162 162 162 175 175 175 186 186 186 196 196 196 203
203 203 209 209 209 212 212 212 215 215 215 216 216 216 216 216 216
216 216 216 215 215 215 214 214 214
0 0 0 0 0 0 0 0 0 0 0 0 0 0 0 0 0 0 0 0 0 0 0 0 0 0 0 0 0 0 0 0 0 0 0
0 0 0 0 0 0 0 250 250 250 252 252 252 253 253 253 255 255 255 255 255
255 255 255 255 255 255 255 255 255 255 255 255 255 252 252 252 246
246 246 243 243 243 240 240 240 237 237 237 233 233 233 229 229 229
225 225 225 221 221 221 217 217 217 213 213 213 209 209 209 205 205
205 158 158 158 172 172 172 184 184 184 195 195 195 203 203 203 210
210 210 215 215 215 218 218 218 219 219 219 220 220 220 220 220 220
219 219 219 217 217 217 216 216 216
0 0 0 0 0 0 0 0 0 0 0 0 0 0 0 0 0 0 0 0 0 0 0 0 0 0 0 0 0 0 0 0 0 0 0
0 0 0 0 0 0 0 0 0 0 252 252 252 254 254 254 255 255 255 255 255 255
255 255 255 255 255 255 255 255 255 255 255 255 254 254 254 246 246
246 243 243 243 240 240 240 237 237 237 233 233 233 230 230 230 226
226 226 222 222 222 218 218 218 214 214 214 210 210 210 153 153 153
168 168 168 181 181 181 193 193 193 203 203 203 211 211 211 216 216
216 220 220 220 222 222 222 223 223 223 223 223 223 222 222 222 221
221 221 219 219 219 218 218 218
0 0 0 0 0 0 0 0 0 0 0 0 0 0 0 0 0 0 0 0 0 0 0 0 0 0 0 0 0 0 0 0 0 0 0
0 0 0 0 0 0 0 0 0 0 0 0 0 253 253 253 255 255 255 255 255 255 255 255
255 255 255 255 255 255 255 255 255 255 252 252 252 246 246 246 243
243 243 240 240 240 237 237 237 233 233 233 230 230 230 226 226 226
222 222 222 218 218 218 214 214 214 147 147 147 163 163 163 177 177
177 190 190 190 202 202 202 211 211 211 217 217 217 222 222 222 225
225 225 227 227 227 227 227 227 226 226 226 225 225 225 223 223 223
221 221 221 219 219 219
0 0 0 0 0 0 0 0 0 0 0 0 0 0 0 0 0 0 0 0 0 0 0 0 0 0 0 0 0 0 0 0 0 0 0
0 0 0 0 0 0 0 0 0 0 0 0 0 253 253 253 254 254 254 255 255 255 255 255
255 255 255 255 255 255 255 255 255 255 249 249 249 245 245 245 243
243 243 240 240 240 236 236 236 233 233 233 229 229 229 225 225 225
221 221 221 217 217 217 213 213 213 157 157 157 172 172 172 187 187
187 199 199 199 210 210 210 218 218 218 224 224 224 227 227 227 229
229 229 230 230 230 230 230 230 229 229 229 227 227 227 225 225 225
223 223 223 220 220 220
0 0 0 0 0 0 0 0 0 0 0 0 0 0 0 0 0 0 0 0 0 0 0 0 0 0 0 0 0 0 0 0 0 0 0
0 0 0 0 0 0 0 66 66 66 67 67 67 67 67 67 67 67 67 66 66 66 0 0 0 0 0
0 0 0 0 0 0 0 0 0 0 0 0 0 61 61 61 60 60 60 59 59 59 58 58 58 57 57
57 56 56 56 0 0 0 0 0 0 0 0 0 0 0 0 0 0 0 196 196 196 208 208 208 217
217 217 224 224 224 229 229 229 232 232 232 233 233 233 233 233 233
232 232 232 231 231 231 229 229 229 226 226 226 224 224 224 221 221
221
0 0 0 0 0 0 0 0 0 0 0 0 0 0 0 0 0 0 0 0 0 0 0 0 0 0 0 0 0 0 143 143
143 148 148 148 152 152 152 154 154 154 152 152 152 149 149 149 143
143 143 0 0 0 0 0 0 0 0 0 0 0 0 0 0 0 0 0 0 0 0 0 0 0 0 89 89 89 85
85 85 81 81 81 78 78 78 76 76 76 73 73 73 71 71 71 69 69 69 0 0 0 0 0
0 0 0 0 0 0 0 0 0 0 0 0 0 0 0 0 234 234 234 236 236 236 236 236 236
236 236 236 234 234 234 232 232 232 230 230 230 227 227 227 225 225
225 222 222 222
0 0 0 0 0 0 0 0 0 0 0 0 0 0 0 0 0 0 173 173 173 183 183 183 192 192
192 198 198 198 201 201 201 199 199 199 193 193 193 184 184 184 174
174 174 0 0 0 0 0 0 0 0 0 0 0 0 0 0 0 0 0 0 0 0 0 0 0 0 0 0 0 0 0 0
93 93 93 89 89 89 86 86 86 83 83 83 80 80 80 78 78 78 76 76 76 73 73
73 71 71 71 70 70 70 0 0 0 0 0 0 0 0 0 0 0 0 0 0 0 0 0 0 0 0 0 0 0 0
0 0 0 236 236 236 234 234 234 231 231 231 228 228 228 226 226 226 223
223 223
