P3
50 25
255
223 200 200 221 199 199 219 197 197 216 195 195 213 191 191 208 187
187 203 182 182 196 177 177 189 170 170 181 163 163 173 156 156 165
148 148 156 141 141 148 133 133 212 191 191 213 191 191 213 192 192
213 192 192 212 191 191 212 191 191 211 190 190 209 188 188 208 187
187 206 185 185 204 183 183 201 181 181 199 179 179 196 176 176 193
174 174 190 171 171 187 168 168 184 165 165 181 163 163 178 160 160
174 157 157 171 154 154 228 206 206 234 211 211 239 215 215 244 219
219 247 222 222 250 225 225 252 226 226 253 228 228 254 228 228 254
229 229 254 229 229 254 229 229 254 228 228 253 228 228
227 204 204 226 203 203 223 201 201 220 198 198 216 194 194 211 190
190 205 184 184 198 178 178 190 171 171 182 164 164 173 156 156 164
148 148 155 139 139 146 131 131 137 123 123 201 181 181 202 181 181
202 182 182 202 181 181 201 181 181 200 180 180 199 179 179 198 178
178 196 176 176 194 174 174 192 173 173 189 170 170 187 168 168 184
166 166 182 163 163 179 161 161 176 158 158 173 156 156 170 153 153
167 150 150 219 197 197 226 203 203 232 209 209 238 214 214 242 218
218 246 221 221 249 224 224 251 226 226 252 227 227 254 228 228 254
229 229 254 229 229 254 229 229 254 228 228 253 228 228
232 208 208 230 207 207 227 204 204 224 201 201 219 197 197 213 192
192 206 186 186 199 179 179 190 171 171 181 163 163 172 155 155 163
146 146 153 138 138 144 129 129 135 121 121 189 170 170 190 171 171
190 171 171 190 171 171 189 170 170 189 170 170 188 169 169 187 168
168 185 167 167 183 165 165 182 163 163 179 161 161 177 159 159 175
157 157 172 155 155 170 153 153 167 151 151 165 148 148 162 146 146
159 143 143 215 194 194 223 200 200 229 206 206 235 212 212 240 216
216 244 220 220 247 223 223 250 225 225 252 226 226 253 228 228 254
228 228 254 229 229 254 229 229 254 228 228 253 228 228
236 212 212 234 210 210 231 208 208 226 204 204 221 199 199 215 193
193 207 186 186 199 179 179 190 171 171 180 162 162 171 154 154 161
145 145 151 136 136 141 127 127 132 119 119 123 111 111 177 159 159
177 159 159 177 159 159 177 159 159 177 159 159 176 158 158 175 157
157 174 156 156 172 155 155 171 153 153 169 152 152 167 150 150 165
148 148 163 146 146 160 144 144 158 142 142 156 140 140 153 138 138
202 182 182 211 190 190 219 197 197 226 204 204 232 209 209 238 214
214 242 218 218 246 221 221 248 223 223 250 225 225 252 227 227 253
228 228 253 228 228 253 228 228 253 228 228 253 227 227
239 215 215 237 213 213 234 210 210 229 206 206 223 200 200 216 194
194 207 187 187 198 178 178 189 170 170 179 161 161 168 152 152 158
142 142 148 133 133 138 125 125 129 116 116 120 108 108 164 147 147
164 148 148 164 148 148 164 148 148 164 148 148 25 22 22 25 22 22 25
22 22 25 22 22 25 22 22 25 22 22 156 140 140 154 139 139 152 137 137
150 135 135 148 134 134 146 132 132 144 130 130 197 178 178 207 186
186 215 194 194 223 200 200 229 206 206 235 211 211 240 216 216 244
219 219 247 222 222 249 224 224 251 226 226 252 227 227 252 227 227
253 227 227 253 227 227 252 227 227
243 218 218 240 216 216 236 212 212 230 207 207 223 201 201 216 194
194 207 186 186 197 177 177 187 168 168 176 159 159 166 149 149 155
140 140 145 130 130 135 121 121 126 113 113 117 105 105 108 97 97 215
215 215 215 215 215 215 215 215 25 25 25 25 25 25 25 25 25 25 25 25
25 25 25 25 25 25 25 25 25 25 25 25 25 25 25 199 199 199 197 197 197
194 194 194 191 191 191 182 164 164 192 173 173 202 182 182 211 190
190 219 197 197 226 203 203 232 208 208 237 213 213 241 217 217 244
220 220 247 222 222 249 224 224 250 225 225 251 226 226 252 226 226
252 227 227 252 226 226
245 221 221 242 218 218 237 213 213 231 208 208 223 201 201 215 193
193 205 184 184 195 175 175 184 166 166 173 156 156 162 146 146 152
136 136 141 127 127 131 118 118 122 110 110 113 102 102 218 218 218
219 219 219 219 219 219 25 25 25 6 60 30 7 75 37 7 73 36 5 58 29 2 28
14 2 25 12 25 25 25 25 25 25 25 25 25 25 25 25 25 25 25 197 197 197
194 194 194 191 191 191 187 168 168 197 177 177 206 185 185 214 193
193 221 199 199 228 205 205 233 210 210 238 214 214 242 218 218 245
220 220 247 222 222 249 224 224 250 225 225 250 225 225 251 226 226
251 225 225
247 222 222 243 218 218 237 213 213 230 207 207 222 200 200 212 191
191 202 182 182 191 172 172 180 162 162 169 152 152 158 142 142 147
133 133 137 123 123 127 114 114 118 106 106 222 222 222 223 223 223
223 223 223 224 224 224 9 91 45 11 118 59 12 125 62 11 119 59 10 104
52 7 78 39 3 39 19 25 25 25 25 25 25 25 25 25 12 25 2 25 25 25 25 25
25 25 25 25 194 194 194 191 191 191 191 172 172 200 180 180 209 188
188 217 195 195 224 201 201 230 207 207 235 211 211 239 215 215 242
218 218 245 220 220 247 222 222 248 223 223 249 224 224 249 224 224
249 224 224
99 89 89 95 85 85 236 212 212 228 205 205 219 197 197 209 188 188 199
179 179 187 169 169 176 158 158 165 148 148 154 138 138 143 128 128
133 119 119 123 110 110 114 102 102 226 226 226 227 227 227 228 228
228 8 81 40 13 135 67 15 155 77 15 159 79 15 152 76 13 136 68 11 111
55 7 75 37 2 25 12 12 25 2 75 151 15 68 137 13 40 81 8 25 25 25 25 25
25 197 197 197 194 194 194 185 166 166 195 175 175 204 183 183 212
191 191 219 197 197 225 203 203 231 208 208 235 212 212 239 215 215
242 218 218 244 220 220 246 221 221 247 222 222 179 161 161 182 164
164
106 96 96 102 92 92 96 87 87 90 81 81 216 194 194 205 185 185 194 174
174 182 164 164 171 154 154 160 144 144 148 134 134 138 124 124 128
115 115 118 106 106 229 229 229 230 230 230 231 231 231 232 232 232
11 119 59 16 163 81 18 180 90 18 183 91 17 176 88 15 159 79 13 133 66
9 98 49 4 48 24 12 25 2 98 196 19 89 179 17 62 125 12 12 25 2 25 25
25 199 199 199 196 196 196 193 193 193 189 170 170 198 178 178 206
186 186 214 192 192 221 199 199 226 204 204 231 208 208 235 212 212
239 215 215 241 217 217 177 159 159 181 163 163 184 166 166 187 168
168
114 102 102 110 99 99 105 94 94 98 88 88 90 81 81 82 74 74 188 170
170 177 159 159 165 149 149 154 139 139 143 129 129 133 119 119 123
111 111 230 230 230 232 232 232 234 234 234 235 235 235 236 236 236
13 134 67 17 178 89 19 195 97 19 198 99 19 190 95 17 173 86 14 147 73
11 111 55 6 60 30 12 25 2 99 199 19 91 183 18 62 125 12 25 25 25 205
205 205 202 202 202 198 198 198 195 195 195 191 191 191 192 173 173
201 180 180 208 188 188 216 194 194 222 200 200 227 204 204 231 208
208 172 155 155 178 160 160 183 165 165 187 168 168 189 170 170 191
172 172
122 110 110 119 107 107 114 103 103 107 96 96 98 89 89 90 81 81 81 73
73 73 66 66 159 143 143 148 133 133 137 124 124 127 115 115 118 106
106 234 234 234 236 236 236 237 237 237 238 238 238 239 239 239 12
128 64 18 180 90 19 199 99 20 203 101 19 195 97 17 178 89 15 151 75
11 113 56 5 58 29 25 25 25 65 130 13 65 131 13 14 28 2 211 211 211
208 208 208 204 204 204 200 200 200 197 197 197 193 193 193 185 167
167 194 175 175 203 182 182 210 189 189 217 195 195 164 148 148 172
155 155 179 161 161 185 166 166 189 170 170 192 173 173 194 174 174
195 176 176
130 117 117 129 116 116 125 112 112 118 106 106 108 98 98 98 89 89 89
80 80 79 71 71 71 64 64 64 57 57 132 118 118 122 110 110 235 235 235
237 237 237 239 239 239 241 241 241 242 242 242 242 242 242 243 243
243 16 164 82 19 190 95 19 196 98 18 189 94 17 171 85 14 143 71 10
101 50 3 32 16 25 25 25 224 224 224 221 221 221 217 217 217 214 214
214 210 210 210 206 206 206 202 202 202 199 199 199 195 195 195 191
191 191 188 169 169 197 177 177 153 137 137 163 147 147 172 155 155
180 162 162 186 167 167 191 172 172 194 175 175 197 177 177 198 178
178 199 179 179
137 123 123 138 124 124 136 122 122 130 117 117 120 108 108 109 98 98
97 88 88 87 78 78 77 69 69 69 62 62 62 56 56 56 50 50 238 238 238 240
240 240 242 242 242 243 243 243 245 245 245 245 245 245 246 246 246
10 106 53 16 160 80 17 172 86 16 168 84 15 150 75 11 118 59 6 65 32
25 25 25 230 230 230 226 226 226 223 223 223 219 219 219 216 216 216
212 212 212 208 208 208 204 204 204 200 200 200 196 196 196 193 193
193 138 124 124 150 135 135 161 145 145 171 154 154 180 162 162 187
168 168 193 173 173 197 177 177 199 179 179 201 181 181 202 182 182
203 182 182
144 129 129 148 133 133 148 133 133 143 129 129 134 120 120 121 109
109 108 97 97 95 86 86 84 76 76 75 67 67 66 60 60 59 53 53 240 240
240 242 242 242 244 244 244 246 246 246 247 247 247 248 248 248 248
248 248 248 248 248 247 247 247 11 111 55 11 116 58 9 95 47 241 241
241 238 238 238 235 235 235 232 232 232 228 228 228 225 225 225 221
221 221 217 217 217 213 213 213 210 210 210 206 206 206 202 202 202
198 198 198 194 194 194 147 132 132 159 143 143 170 153 153 180 162
162 188 169 169 194 175 175 199 179 179 202 182 182 204 184 184 206
185 185 206 185 185 206 185 185
149 134 134 156 140 140 160 144 144 158 142 142 150 135 135 136 123
123 121 109 109 106 95 95 93 83 83 81 73 73 72 64 64 64 57 57 57 51
51 244 244 244 247 247 247 248 248 248 249 249 249 138 110 13 162 129
16 58 46 5 250 250 250 249 249 249 247 247 247 245 245 245 243 243
243 240 240 240 237 237 237 234 234 234 230 230 230 226 226 226 223
223 223 219 219 219 215 215 215 211 211 211 207 207 207 203 203 203
199 199 199 143 129 129 156 141 141 168 151 151 179 161 161 188 169
169 195 176 176 201 180 180 205 184 184 207 186 186 209 188 188 209
188 188 209 188 188 209 188 188
153 137 137 163 146 146 170 153 153 173 156 156 168 151 151 154 139
139 137 123 123 119 107 107 103 92 92 89 80 80 78 70 70 69 62 62 61
55 55 246 246 246 248 248 248 250 250 250 251 251 251 182 145 18 197
157 19 109 87 10 254 254 254 252 252 252 249 249 249 247 247 247 244
244 244 241 241 241 238 238 238 235 235 235 231 231 231 228 228 228
224 224 224 220 220 220 216 216 216 212 212 212 208 208 208 204 204
204 200 200 200 153 137 137 166 149 149 177 159 159 187 169 169 196
176 176 202 182 182 207 186 186 210 189 189 212 191 191 213 191 191
213 192 192 212 191 191 211 190 190
154 139 139 166 150 150 179 161 161 187 168 168 187 168 168 175 158
158 155 140 140 134 120 120 114 103 103 98 88 88 85 76 76 74 67 67 66
59 59 58 53 53 249 249 249 251 251 251 252 252 252 253 253 253 122 98
12 255 255 255 255 255 255 255 255 255 255 255 255 248 248 248 245
245 245 242 242 242 239 239 239 236 236 236 232 232 232 229 229 229
225 225 225 221 221 221 217 217 217 213 213 213 209 209 209 205 205
205 148 133 133 162 146 146 175 157 157 186 167 167 196 176 176 203
183 183 209 188 188 212 191 191 215 193 193 216 194 194 216 195 195
216 194 194 215 193 193 214 192 192
154 138 138 168 151 151 183 165 165 198 178 178 205 184 184 198 178
178 178 160 160 152 137 137 129 116 116 109 98 98 93 84 84 80 72 72
70 63 63 62 56 56 250 250 250 252 252 252 253 253 253 255 255 255 255
255 255 255 255 255 255 255 255 255 255 255 255 255 255 252 252 252
246 246 246 243 243 243 240 240 240 237 237 237 233 233 233 229 229
229 225 225 225 221 221 221 217 217 217 213 213 213 209 209 209 205
205 205 158 142 142 172 154 154 184 166 166 195 175 175 203 183 183
210 189 189 215 193 193 218 196 196 219 197 197 220 198 198 220 198
198 219 197 197 217 196 196 216 194 194
152 137 137 166 150 150 184 165 165 203 183 183 218 196 196 220 198
198 203 183 183 174 157 157 145 131 131 121 109 109 102 92 92 88 79
79 76 68 68 67 60 60 59 53 53 252 252 252 254 254 254 255 255 255 255
255 255 255 255 255 255 255 255 255 255 255 255 255 255 254 254 254
246 246 246 243 243 243 240 240 240 237 237 237 233 233 233 230 230
230 226 226 226 222 222 222 218 218 218 214 214 214 210 210 210 153
138 138 168 151 151 181 163 163 193 174 174 203 183 183 211 190 190
216 195 195 220 198 198 222 200 200 223 201 201 223 201 201 222 200
200 221 199 199 219 197 197 218 196 196
149 134 134 163 147 147 181 163 163 202 182 182 224 202 202 237 213
213 228 205 205 199 179 179 165 148 148 136 122 122 113 102 102 96 86
86 82 74 74 72 64 64 63 57 57 56 51 51 253 253 253 255 255 255 255
255 255 255 255 255 255 255 255 255 255 255 255 255 255 252 252 252
246 246 246 243 243 243 240 240 240 237 237 237 233 233 233 230 230
230 226 226 226 222 222 222 218 218 218 214 214 214 147 132 132 163
146 146 177 159 159 190 171 171 202 181 181 211 190 190 217 196 196
222 200 200 225 203 203 227 204 204 227 204 204 226 203 203 225 202
202 223 201 201 221 199 199 219 197 197
145 130 130 158 142 142 175 158 158 197 177 177 222 200 200 244 219
219 247 223 223 223 201 201 186 168 168 152 137 137 125 112 112 104
94 94 89 80 80 77 69 69 67 61 61 60 54 54 253 253 253 254 254 254 255
255 255 255 255 255 255 255 255 255 255 255 255 255 255 249 249 249
245 245 245 243 243 243 240 240 240 236 236 236 233 233 233 229 229
229 225 225 225 221 221 221 217 217 217 213 213 213 157 141 141 172
155 155 187 168 168 199 179 179 210 189 189 218 196 196 224 201 201
227 205 205 229 206 206 230 207 207 230 207 207 229 206 206 227 204
204 225 202 202 223 200 200 220 198 198
141 126 126 153 137 137 168 151 151 188 169 169 213 192 192 239 215
215 254 229 229 242 218 218 207 186 186 169 152 152 138 124 124 114
103 103 96 87 87 83 74 74 66 60 60 67 60 60 67 60 60 67 60 60 66 60
60 66 59 59 65 59 59 65 58 58 64 58 58 63 57 57 62 56 56 61 55 55 60
54 54 59 53 53 58 52 52 57 51 51 56 50 50 55 50 50 54 49 49 53 48 48
52 47 47 51 46 46 196 176 176 208 187 187 217 196 196 224 202 202 229
206 206 232 209 209 233 210 210 233 210 210 232 209 209 231 208 208
229 206 206 226 204 204 224 201 201 221 199 199
136 122 122 147 132 132 161 145 145 178 161 161 201 181 181 226 204
204 248 223 223 249 224 224 223 200 200 185 167 167 143 128 128 148
134 134 152 137 137 154 138 138 152 137 137 149 134 134 143 129 129
136 122 122 129 116 116 122 110 110 115 103 103 109 98 98 103 93 93
98 88 88 93 84 84 89 80 80 85 76 76 81 73 73 78 70 70 76 68 68 73 66
66 71 64 64 69 62 62 67 60 60 65 58 58 63 57 57 62 55 55 60 54 54 59
53 53 58 52 52 234 211 211 236 212 212 236 213 213 236 212 212 234
211 211 232 209 209 230 207 207 227 205 205 225 202 202 222 200 200
132 118 118 141 127 127 153 138 138 168 152 152 187 169 169 210 189
189 173 155 155 183 165 165 192 173 173 198 178 178 201 181 181 199
179 179 193 174 174 184 166 166 174 156 156 163 147 147 153 137 137
143 129 129 134 121 121 126 113 113 119 107 107 113 101 101 107 96 96
102 92 92 97 87 87 93 84 84 89 80 80 86 77 77 83 75 75 80 72 72 78 70
70 76 68 68 73 66 66 71 64 64 70 63 63 68 61 61 66 60 60 65 58 58 64
57 57 62 56 56 61 55 55 60 54 54 59 53 53 58 52 52 236 212 212 234
210 210 231 208 208 228 205 205 226 203 203 223 200 200
