P3
100 50
255
25 22 22 25 22 22 25 22 22 25 22 22 25 22 22 25 22 22 25 22 22 25 22
22 25 22 22 25 22 22 25 22 22 25 22 22 25 22 22 25 22 22 25 22 22 25
22 22 25 22 22 25 22 22 25 22 22 25 22 22 25 22 22 25 22 22 25 22 22
25 22 22 25 22 22 25 22 22 25 22 22 25 22 22 25 22 22 25 22 22 25 22
22 25 22 22 25 22 22 25 22 22 25 22 22 25 22 22 25 22 22 25 22 22 25
22 22 25 22 22 25 22 22 25 22 22 25 22 22 25 22 22 25 22 22 25 22 22
25 22 22 25 22 22 25 22 22 25 22 22 25 22 22 25 22 22 25 22 22 25 22
22 25 22 22 25 22 22 25 22 22 25 22 22 25 22 22 25 22 22 25 22 22 25
22 22 25 22 22 25 22 22 25 22 22 25 22 22 25 22 22 25 22 22 25 22 22
25 22 22 25 22 22 25 22 22 25 22 22 25 22 22 25 22 22 25 22 22 25 22
22 25 22 22 25 22 22 25 22 22 25 22 22 25 22 22 25 22 22 25 22 22 25
22 22 25 22 22 25 22 22 25 22 22 25 22 22 25 22 22 25 22 22 25 22 22
25 22 22 25 22 22 25 22 22 25 22 22 25 22 22 25 22 22 25 22 22 25 22
22
25 22 22 25 22 22 25 22 22 25 22 22 25 22 22 25 22 22 25 22 22 25 22
22 25 22 22 25 22 22 25 22 22 25 22 22 25 22 22 25 22 22 25 22 22 25
22 22 25 22 22 25 22 22 25 22 22 25 22 22 25 22 22 25 22 22 25 22 22
25 22 22 25 22 22 25 22 22 25 22 22 25 22 22 25 22 22 25 22 22 25 22
22 25 22 22 25 22 22 25 22 22 25 22 22 25 22 22 25 22 22 25 22 22 25
22 22 25 22 22 25 22 22 25 22 22 25 22 22 25 22 22 25 22 22 25 22 22
25 22 22 25 22 22 25 22 22 25 22 22 25 22 22 25 22 22 25 22 22 25 22
22 25 22 22 25 22 22 25 22 22 25 22 22 25 22 22 25 22 22 25 22 22 25
22 22 25 22 22 25 22 22 25 22 22 25 22 22 25 22 22 25 22 22 25 22 22
25 22 22 25 22 22 25 22 22 25 22 22 25 22 22 25 22 22 25 22 22 25 22
22 25 22 22 25 22 22 25 22 22 25 22 22 25 22 22 25 22 22 25 22 22 25
22 22 25 22 22 25 22 22 25 22 22 25 22 22 25 22 22 25 22 22 25 22 22
25 22 22 25 22 22 25 22 22 25 22 22 25 22 22 25 22 22 25 22 22 25 22
22
25 22 22 25 22 22 25 22 22 25 22 22 25 22 22 25 22 22 25 22 22 25 22
22 25 22 22 25 22 22 25 22 22 25 22 22 25 22 22 25 22 22 25 22 22 25
22 22 25 22 22 25 22 22 25 22 22 25 22 22 25 22 22 25 22 22 25 22 22
25 22 22 25 22 22 25 22 22 25 22 22 25 22 22 25 22 22 25 22 22 25 22
22 25 22 22 25 22 22 25 22 22 25 22 22 25 22 22 25 22 22 25 22 22 25
22 22 25 22 22 25 22 22 25 22 22 25 22 22 25 22 22 25 22 22 25 22 22
25 22 22 25 22 22 25 22 22 25 22 22 25 22 22 25 22 22 25 22 22 25 22
22 25 22 22 25 22 22 25 22 22 25 22 22 25 22 22 25 22 22 25 22 22 25
22 22 25 22 22 25 22 22 25 22 22 25 22 22 25 22 22 25 22 22 25 22 22
25 22 22 25 22 22 25 22 22 25 22 22 25 22 22 25 22 22 25 22 22 25 22
22 25 22 22 25 22 22 25 22 22 25 22 22 25 22 22 25 22 22 25 22 22 25
22 22 25 22 22 25 22 22 25 22 22 25 22 22 25 22 22 25 22 22 25 22 22
25 22 22 25 22 22 25 22 22 25 22 22 25 22 22 25 22 22 25 22 22 25 22
22
25 22 22 25 22 22 25 22 22 25 22 22 25 22 22 25 22 22 25 22 22 25 22
22 25 22 22 25 22 22 25 22 22 25 22 22 25 22 22 25 22 22 25 22 22 25
22 22 25 22 22 25 22 22 25 22 22 25 22 22 25 22 22 25 22 22 25 22 22
25 22 22 25 22 22 25 22 22 25 22 22 25 22 22 25 22 22 25 22 22 25 22
22 25 22 22 25 22 22 25 22 22 25 22 22 25 22 22 25 22 22 25 22 22 25
22 22 25 22 22 25 22 22 25 22 22 25 22 22 25 22 22 25 22 22 25 22 22
25 22 22 25 22 22 25 22 22 25 22 22 25 22 22 25 22 22 25 22 22 25 22
22 25 22 22 25 22 22 25 22 22 25 22 22 25 22 22 25 22 22 25 22 22 25
22 22 25 22 22 25 22 22 25 22 22 25 22 22 25 22 22 25 22 22 25 22 22
25 22 22 25 22 22 25 22 22 25 22 22 25 22 22 25 22 22 25 22 22 25 22
22 25 22 22 25 22 22 25 22 22 25 22 22 25 22 22 25 22 22 25 22 22 25
22 22 25 22 22 25 22 22 25 22 22 25 22 22 25 22 22 25 22 22 25 22 22
25 22 22 25 22 22 25 22 22 25 22 22 25 22 22 25 22 22 25 22 22 25 22
22
25 22 22 25 22 22 25 22 22 25 22 22 25 22 22 25 22 22 25 22 22 25 22
22 25 22 22 25 22 22 25 22 22 25 22 22 25 22 22 25 22 22 25 22 22 25
22 22 25 22 22 25 22 22 25 22 22 25 22 22 25 22 22 25 22 22 25 22 22
25 22 22 25 22 22 25 22 22 25 22 22 25 22 22 25 22 22 25 22 22 25 22
22 25 22 22 25 22 22 25 22 22 25 22 22 25 22 22 25 22 22 25 22 22 25
22 22 25 22 22 25 22 22 25 22 22 25 22 22 25 22 22 25 22 22 25 22 22
25 22 22 25 22 22 25 22 22 25 22 22 25 22 22 25 22 22 25 22 22 25 22
22 25 22 22 25 22 22 25 22 22 25 22 22 25 22 22 25 22 22 25 22 22 25
22 22 25 22 22 25 22 22 25 22 22 25 22 22 25 22 22 25 22 22 25 22 22
25 22 22 25 22 22 25 22 22 25 22 22 25 22 22 25 22 22 25 22 22 25 22
22 25 22 22 25 22 22 25 22 22 25 22 22 25 22 22 25 22 22 25 22 22 25
22 22 25 22 22 25 22 22 25 22 22 25 22 22 25 22 22 25 22 22 25 22 22
25 22 22 25 22 22 25 22 22 25 22 22 25 22 22 25 22 22 25 22 22 25 22
22
25 22 22 25 22 22 25 22 22 25 22 22 25 22 22 25 22 22 25 22 22 25 22
22 25 22 22 25 22 22 25 22 22 25 22 22 25 22 22 25 22 22 25 22 22 25
22 22 25 22 22 25 22 22 25 22 22 25 22 22 25 22 22 25 22 22 25 22 22
25 22 22 25 22 22 25 22 22 25 22 22 25 22 22 25 22 22 25 22 22 25 22
22 25 22 22 25 22 22 25 22 22 25 22 22 25 22 22 25 22 22 25 22 22 25
22 22 25 22 22 25 22 22 25 22 22 25 22 22 25 22 22 25 22 22 25 22 22
25 22 22 25 22 22 25 22 22 25 22 22 25 22 22 25 22 22 25 22 22 25 22
22 25 22 22 25 22 22 25 22 22 25 22 22 25 22 22 25 22 22 25 22 22 25
22 22 25 22 22 25 22 22 25 22 22 25 22 22 25 22 22 25 22 22 25 22 22
25 22 22 25 22 22 25 22 22 25 22 22 25 22 22 25 22 22 25 22 22 25 22
22 25 22 22 25 22 22 25 22 22 25 22 22 25 22 22 25 22 22 25 22 22 25
22 22 25 22 22 25 22 22 25 22 22 25 22 22 25 22 22 25 22 22 25 22 22
25 22 22 25 22 22 25 22 22 25 22 22 25 22 22 25 22 22 25 22 22 25 22
22
25 22 22 25 22 22 25 22 22 25 22 22 25 22 22 25 22 22 25 22 22 25 22
22 25 22 22 25 22 22 25 22 22 25 22 22 25 22 22 25 22 22 25 22 22 25
22 22 25 22 22 25 22 22 25 22 22 25 22 22 25 22 22 25 22 22 25 22 22
25 22 22 25 22 22 25 22 22 25 22 22 25 22 22 25 22 22 25 22 22 25 22
22 25 22 22 25 22 22 25 22 22 25 22 22 25 22 22 25 22 22 25 22 22 25
22 22 25 22 22 25 22 22 25 22 22 25 22 22 25 22 22 25 22 22 25 22 22
25 22 22 25 22 22 25 22 22 25 22 22 25 22 22 25 22 22 25 22 22 25 22
22 25 22 22 25 22 22 25 22 22 25 22 22 25 22 22 25 22 22 25 22 22 25
22 22 25 22 22 25 22 22 25 22 22 25 22 22 25 22 22 25 22 22 25 22 22
25 22 22 25 22 22 25 22 22 25 22 22 25 22 22 25 22 22 25 22 22 25 22
22 25 22 22 25 22 22 25 22 22 25 22 22 25 22 22 25 22 22 25 22 22 25
22 22 25 22 22 25 22 22 25 22 22 25 22 22 25 22 22 25 22 22 25 22 22
25 22 22 25 22 22 25 22 22 25 22 22 25 22 22 25 22 22 25 22 22 25 22
22
25 22 22 25 22 22 25 22 22 25 22 22 25 22 22 25 22 22 25 22 22 25 22
22 25 22 22 25 22 22 25 22 22 25 22 22 25 22 22 25 22 22 25 22 22 25
22 22 25 22 22 25 22 22 25 22 22 25 22 22 25 22 22 25 22 22 25 22 22
25 22 22 25 22 22 25 22 22 25 22 22 25 22 22 25 22 22 25 22 22 25 22
22 25 22 22 25 22 22 25 22 22 25 22 22 25 22 22 25 22 22 25 22 22 25
22 22 25 22 22 25 22 22 25 22 22 25 22 22 25 22 22 25 22 22 25 22 22
25 22 22 25 22 22 25 22 22 25 22 22 25 22 22 25 22 22 25 22 22 25 22
22 25 22 22 25 22 22 25 22 22 25 22 22 25 22 22 25 22 22 25 22 22 25
22 22 25 22 22 25 22 22 25 22 22 25 22 22 25 22 22 25 22 22 25 22 22
25 22 22 25 22 22 25 22 22 25 22 22 25 22 22 25 22 22 25 22 22 25 22
22 25 22 22 25 22 22 25 22 22 25 22 22 25 22 22 25 22 22 25 22 22 25
22 22 25 22 22 25 22 22 25 22 22 25 22 22 25 22 22 25 22 22 25 22 22
25 22 22 25 22 22 25 22 22 25 22 22 25 22 22 25 22 22 25 22 22 25 22
22
25 22 22 25 22 22 25 22 22 25 22 22 25 22 22 25 22 22 25 22 22 25 22
22 25 22 22 25 22 22 25 22 22 25 22 22 25 22 22 25 22 22 25 22 22 25
22 22 25 22 22 25 22 22 25 22 22 25 22 22 25 22 22 25 22 22 25 22 22
25 22 22 25 22 22 25 22 22 25 22 22 25 22 22 25 22 22 25 22 22 25 22
22 25 22 22 25 22 22 25 22 22 25 22 22 25 22 22 25 22 22 25 22 22 25
22 22 25 22 22 14 144 72 13 139 69 13 132 66 12 121 60 25 22 22 25 22
22 25 22 22 25 22 22 25 22 22 25 22 22 25 22 22 25 22 22 25 22 22 25
22 22 25 22 22 25 22 22 25 22 22 25 22 22 25 22 22 25 22 22 25 22 22
25 22 22 25 22 22 25 22 22 25 22 22 25 22 22 25 22 22 25 22 22 25 22
22 25 22 22 25 22 22 25 22 22 25 22 22 25 22 22 25 22 22 25 22 22 25
22 22 25 22 22 25 22 22 25 22 22 25 22 22 25 22 22 25 22 22 25 22 22
25 22 22 25 22 22 25 22 22 25 22 22 25 22 22 25 22 22 25 22 22 25 22
22 25 22 22 25 22 22 25 22 22 25 22 22 25 22 22 25 22 22 25 22 22 25
22 22
25 22 22 25 22 22 25 22 22 25 22 22 25 22 22 25 22 22 25 22 22 25 22
22 25 22 22 25 22 22 25 22 22 25 22 22 25 22 22 25 22 22 25 22 22 25
22 22 25 22 22 25 22 22 25 22 22 25 22 22 25 22 22 25 22 22 25 22 22
25 22 22 25 22 22 25 22 22 25 22 22 25 22 22 25 22 22 25 22 22 25 22
22 25 22 22 25 22 22 25 22 22 25 22 22 25 22 22 17 171 85 17 172 86
17 170 85 16 166 83 16 161 80 15 155 77 14 148 74 14 140 70 13 131 65
12 120 60 10 108 54 9 91 45 25 22 22 25 22 22 25 22 22 25 22 22 25 22
22 25 22 22 25 22 22 25 22 22 25 22 22 25 22 22 25 22 22 25 22 22 25
22 22 25 22 22 25 22 22 25 22 22 25 22 22 25 22 22 25 22 22 25 22 22
25 22 22 25 22 22 25 22 22 25 22 22 25 22 22 25 22 22 25 22 22 25 22
22 25 22 22 25 22 22 25 22 22 25 22 22 25 22 22 25 22 22 25 22 22 25
22 22 25 22 22 25 22 22 25 22 22 25 22 22 25 22 22 25 22 22 25 22 22
25 22 22 25 22 22 25 22 22 25 22 22 25 22 22 25 22 22 25 22 22 25 22
22 25 22 22
25 22 22 25 22 22 25 22 22 25 22 22 25 22 22 25 22 22 25 22 22 25 22
22 25 22 22 25 22 22 25 22 22 25 22 22 25 22 22 25 22 22 25 22 22 25
22 22 25 22 22 25 22 22 25 22 22 25 22 22 25 22 22 25 22 22 25 22 22
25 22 22 25 22 22 25 22 22 25 22 22 25 22 22 25 22 22 25 22 22 25 22
22 25 22 22 25 22 22 25 22 22 18 183 91 18 185 92 18 184 92 18 181 90
17 177 88 17 172 86 16 167 83 16 160 80 15 154 77 14 146 73 13 138 69
12 129 64 11 119 59 10 107 53 9 93 46 7 74 37 25 22 22 25 22 22 25 22
22 25 22 22 25 22 22 25 22 22 25 22 22 25 22 22 25 22 22 25 22 22 25
22 22 25 22 22 25 22 22 25 22 22 25 22 22 25 22 22 25 22 22 25 22 22
25 22 22 25 22 22 25 22 22 25 22 22 25 22 22 25 22 22 25 22 22 25 22
22 25 22 22 25 22 22 25 22 22 25 22 22 25 22 22 25 22 22 25 22 22 25
22 22 25 22 22 25 22 22 25 22 22 25 22 22 25 22 22 25 22 22 25 22 22
25 22 22 25 22 22 25 22 22 25 22 22 25 22 22 25 22 22 25 22 22 25 22
22 25 22 22
25 22 22 25 22 22 25 22 22 25 22 22 25 22 22 25 22 22 25 22 22 25 22
22 25 22 22 25 22 22 25 22 22 25 22 22 25 22 22 25 22 22 25 22 22 25
22 22 25 22 22 25 22 22 25 22 22 25 22 22 25 22 22 25 22 22 25 22 22
25 22 22 25 22 22 25 22 22 25 22 22 25 22 22 25 22 22 25 22 22 25 22
22 25 22 22 18 183 91 19 192 96 19 193 96 19 191 95 18 188 94 18 185
92 18 180 90 17 175 87 16 169 84 16 163 81 15 156 78 14 149 74 14 141
70 13 133 66 12 123 61 11 113 56 10 102 51 8 88 44 7 72 36 25 22 22
25 22 22 25 22 22 25 22 22 25 22 22 25 22 22 25 22 22 25 22 22 25 22
22 25 22 22 25 22 22 25 22 22 25 22 22 25 22 22 25 22 22 25 22 22 25
22 22 25 22 22 25 22 22 25 22 22 25 22 22 25 22 22 25 22 22 25 22 22
25 22 22 25 22 22 25 22 22 25 22 22 25 22 22 25 22 22 25 22 22 25 22
22 25 22 22 25 22 22 25 22 22 25 22 22 25 22 22 25 22 22 25 22 22 25
22 22 25 22 22 25 22 22 25 22 22 25 22 22 25 22 22 25 22 22 25 22 22
25 22 22 25 22 22
25 22 22 25 22 22 25 22 22 25 22 22 25 22 22 25 22 22 25 22 22 25 22
22 25 22 22 25 22 22 25 22 22 25 22 22 25 22 22 25 22 22 25 22 22 25
22 22 25 22 22 25 22 22 25 22 22 25 22 22 25 22 22 25 22 22 25 22 22
25 22 22 25 22 22 25 22 22 25 22 22 25 22 22 25 22 22 25 22 22 25 22
22 19 191 95 19 197 98 19 198 99 19 196 98 19 194 97 19 190 95 18 186
93 18 181 90 17 176 88 17 171 85 16 164 82 15 158 79 15 151 75 14 143
71 13 135 67 12 126 63 11 116 58 10 106 53 9 94 47 8 81 40 6 64 32 3
39 19 25 22 22 25 22 22 25 22 22 25 22 22 25 22 22 25 22 22 25 22 22
25 22 22 25 22 22 25 22 22 25 22 22 25 22 22 25 22 22 25 22 22 25 22
22 25 22 22 25 22 22 25 22 22 25 22 22 25 22 22 25 22 22 25 22 22 25
22 22 25 22 22 25 22 22 25 22 22 25 22 22 25 22 22 25 22 22 25 22 22
25 22 22 25 22 22 25 22 22 25 22 22 25 22 22 25 22 22 25 22 22 25 22
22 25 22 22 25 22 22 25 22 22 25 22 22 25 22 22 25 22 22 25 22 22 25
22 22 25 22 22
25 22 22 25 22 22 25 22 22 25 22 22 25 22 22 25 22 22 25 22 22 25 22
22 25 22 22 25 22 22 25 22 22 25 22 22 25 22 22 25 22 22 25 22 22 25
22 22 25 22 22 25 22 22 25 22 22 25 22 22 25 22 22 25 22 22 25 22 22
25 22 22 25 22 22 25 22 22 25 22 22 25 22 22 25 22 22 25 22 22 19 193
96 20 200 100 20 201 100 20 200 100 19 198 99 19 195 97 19 191 95 18
186 93 18 182 91 17 176 88 17 171 85 16 164 82 15 158 79 15 151 75 14
143 71 13 135 67 12 127 63 11 118 59 10 108 54 9 97 48 8 85 42 7 71
35 5 54 27 2 27 13 25 22 22 25 22 22 25 22 22 25 22 22 25 22 22 25 22
22 25 22 22 25 22 22 25 22 22 25 22 22 25 22 22 25 22 22 25 22 22 25
22 22 25 22 22 25 22 22 25 22 22 25 22 22 25 22 22 25 22 22 25 22 22
25 22 22 25 22 22 25 22 22 25 22 22 25 22 22 25 22 22 25 22 22 25 22
22 25 22 22 25 22 22 25 22 22 25 22 22 25 22 22 25 22 22 25 22 22 25
22 22 25 22 22 25 22 22 25 22 22 25 22 22 25 22 22 25 22 22 25 22 22
25 22 22 25 22 22
25 22 22 25 22 22 25 22 22 25 22 22 25 22 22 25 22 22 25 22 22 25 22
22 25 22 22 25 22 22 25 22 22 25 22 22 25 22 22 25 22 22 25 22 22 25
22 22 25 22 22 25 22 22 25 22 22 25 22 22 25 22 22 25 22 22 25 22 22
25 22 22 25 22 22 25 22 22 25 22 22 25 22 22 25 22 22 19 191 95 20
201 100 20 203 101 20 202 101 20 200 100 19 198 99 19 194 97 19 190
95 18 186 93 18 181 90 17 175 87 17 170 85 16 164 82 15 157 78 15 150
75 14 143 71 13 135 67 12 127 63 11 118 59 10 108 54 9 98 49 8 87 43
7 74 37 5 59 29 4 41 20 2 25 12 25 22 22 25 22 22 25 22 22 25 22 22
25 22 22 25 22 22 25 22 22 25 22 22 25 22 22 25 22 22 25 22 22 25 22
22 25 22 22 25 22 22 25 22 22 25 22 22 25 22 22 25 22 22 25 22 22 25
22 22 25 22 22 25 22 22 25 22 22 25 22 22 25 22 22 25 22 22 25 22 22
25 22 22 25 22 22 25 22 22 25 22 22 25 22 22 25 22 22 25 22 22 25 22
22 25 22 22 25 22 22 25 22 22 25 22 22 25 22 22 25 22 22 25 22 22 25
22 22 25 22 22 25 22 22
25 22 22 25 22 22 25 22 22 25 22 22 25 22 22 25 22 22 25 22 22 25 22
22 25 22 22 25 22 22 25 22 22 25 22 22 25 22 22 25 22 22 25 22 22 25
22 22 25 22 22 25 22 22 25 22 22 25 22 22 25 22 22 25 22 22 25 22 22
25 22 22 25 22 22 25 22 22 25 22 22 25 22 22 25 22 22 20 200 100 20
203 101 20 203 101 20 202 101 20 200 100 19 197 98 19 193 96 18 189
94 18 184 92 17 179 89 17 174 87 16 168 84 16 162 81 15 156 78 14 149
74 14 142 71 13 134 67 12 126 63 11 117 58 10 108 54 9 98 49 8 87 43
7 75 37 6 62 31 4 46 23 2 26 13 25 22 22 25 22 22 25 22 22 25 22 22
25 22 22 25 22 22 25 22 22 25 22 22 25 22 22 25 22 22 25 22 22 25 22
22 25 22 22 25 22 22 25 22 22 25 22 22 25 22 22 25 22 22 25 22 22 25
22 22 25 22 22 25 22 22 25 22 22 25 22 22 25 22 22 25 22 22 25 22 22
25 22 22 25 22 22 25 22 22 25 22 22 25 22 22 25 22 22 25 22 22 25 22
22 25 22 22 25 22 22 25 22 22 25 22 22 25 22 22 25 22 22 25 22 22 25
22 22 25 22 22 25 22 22
25 22 22 25 22 22 25 22 22 25 22 22 25 22 22 25 22 22 25 22 22 25 22
22 25 22 22 25 22 22 25 22 22 25 22 22 25 22 22 25 22 22 25 22 22 25
22 22 25 22 22 25 22 22 25 22 22 25 22 22 25 22 22 25 22 22 25 22 22
25 22 22 25 22 22 25 22 22 25 22 22 25 22 22 19 195 97 20 202 101 20
203 101 20 203 101 20 201 100 19 198 99 19 195 97 19 191 95 18 187 93
18 183 91 17 177 88 17 172 86 16 166 83 16 160 80 15 154 77 14 147 73
14 140 70 13 132 66 12 124 62 11 116 58 10 107 53 9 97 48 8 87 43 7
75 37 6 63 31 4 48 24 3 31 15 2 25 12 25 22 22 25 22 22 25 22 22 25
22 22 25 22 22 25 22 22 25 22 22 25 22 22 25 22 22 25 22 22 25 22 22
25 22 22 25 22 22 25 22 22 25 22 22 25 22 22 25 22 22 25 22 22 25 22
22 25 22 22 25 22 22 25 22 22 25 22 22 25 22 22 25 22 22 25 22 22 25
22 22 25 22 22 25 22 22 25 22 22 25 22 22 25 22 22 25 22 22 25 22 22
25 22 22 25 22 22 25 22 22 25 22 22 25 22 22 25 22 22 25 22 22 25 22
22 25 22 22 25 22 22
25 22 22 25 22 22 25 22 22 25 22 22 25 22 22 25 22 22 25 22 22 25 22
22 25 22 22 25 22 22 25 22 22 25 22 22 25 22 22 25 22 22 25 22 22 25
22 22 25 22 22 25 22 22 25 22 22 25 22 22 25 22 22 25 22 22 25 22 22
25 22 22 25 22 22 25 22 22 25 22 22 18 180 90 19 198 99 20 202 101 20
202 101 20 201 100 19 199 99 19 196 98 19 193 96 18 189 94 18 185 92
18 180 90 17 175 87 17 170 85 16 164 82 15 158 79 15 152 76 14 145 72
13 138 69 13 130 65 12 122 61 11 114 57 10 105 52 9 96 48 8 86 43 7
75 37 6 63 31 4 49 24 3 33 16 2 25 12 25 22 22 25 22 22 25 22 22 25
22 22 25 22 22 25 22 22 25 22 22 25 22 22 25 22 22 25 22 22 25 22 22
25 22 22 25 22 22 25 22 22 25 22 22 25 22 22 25 22 22 25 22 22 25 22
22 25 22 22 25 22 22 25 22 22 25 22 22 25 22 22 25 22 22 25 22 22 25
22 22 25 22 22 25 22 22 25 22 22 25 22 22 25 22 22 25 22 22 25 22 22
25 22 22 25 22 22 25 22 22 25 22 22 25 22 22 25 22 22 25 22 22 25 22
22 25 22 22 25 22 22
25 22 22 25 22 22 25 22 22 25 22 22 25 22 22 25 22 22 25 22 22 25 22
22 25 22 22 25 22 22 25 22 22 25 22 22 25 22 22 25 22 22 25 22 22 25
22 22 25 22 22 25 22 22 25 22 22 25 22 22 25 22 22 25 22 22 25 22 22
25 22 22 25 22 22 25 22 22 25 22 22 19 191 95 19 198 99 20 200 100 20
200 100 19 199 99 19 197 98 19 194 97 19 190 95 25 193 99 34 198 107
19 179 90 17 172 86 16 167 83 16 161 80 15 155 77 14 149 74 14 142 71
13 135 67 12 128 64 12 120 60 11 112 56 10 103 51 9 94 47 8 84 42 7
73 36 6 61 30 4 48 24 3 33 16 2 25 12 2 25 12 25 22 22 25 22 22 25 22
22 25 22 22 25 22 22 25 22 22 25 22 22 25 22 22 25 22 22 25 22 22 25
22 22 25 22 22 25 22 22 25 22 22 25 22 22 25 22 22 25 22 22 25 22 22
25 22 22 25 22 22 25 22 22 25 22 22 25 22 22 25 22 22 25 22 22 25 22
22 25 22 22 25 22 22 25 22 22 25 22 22 25 22 22 25 22 22 25 22 22 25
22 22 25 22 22 25 22 22 25 22 22 25 22 22 25 22 22 25 22 22 25 22 22
25 22 22 25 22 22
25 22 22 25 22 22 25 22 22 25 22 22 25 22 22 25 22 22 25 22 22 25 22
22 25 22 22 25 22 22 25 22 22 25 22 22 25 22 22 25 22 22 25 22 22 25
22 22 25 22 22 25 22 22 25 22 22 25 22 22 25 22 22 25 22 22 25 22 22
25 22 22 25 22 22 25 22 22 25 22 22 19 192 96 19 197 98 19 198 99 19
198 99 19 196 98 19 194 97 19 191 95 20 189 95 65 230 139 73 235 145
20 177 90 16 169 84 16 164 82 15 158 79 15 152 76 14 146 73 13 139 69
13 132 66 12 125 62 11 117 58 10 109 54 10 100 50 9 91 45 8 81 40 7
71 35 5 59 29 4 47 23 3 32 16 2 25 12 2 25 12 25 22 22 25 22 22 25 22
22 25 22 22 25 22 22 25 22 22 25 22 22 25 22 22 25 22 22 25 22 22 25
22 22 25 22 22 25 22 22 25 22 22 25 22 22 25 22 22 25 22 22 25 22 22
25 22 22 25 22 22 25 22 22 25 22 22 25 22 22 25 22 22 25 22 22 25 22
22 25 22 22 25 22 22 25 22 22 25 22 22 25 22 22 25 22 22 25 22 22 25
22 22 25 22 22 25 22 22 25 22 22 25 22 22 25 22 22 25 22 22 25 22 22
25 22 22 25 22 22
25 22 22 25 22 22 25 22 22 25 22 22 25 22 22 25 22 22 25 22 22 25 22
22 25 22 22 25 22 22 25 22 22 25 22 22 25 22 22 25 22 22 25 22 22 25
22 22 25 22 22 25 22 22 25 22 22 25 22 22 25 22 22 25 22 22 25 22 22
25 22 22 25 22 22 25 22 22 17 175 87 19 190 95 19 194 97 19 195 97 19
194 97 19 193 96 19 190 95 18 187 93 19 185 93 36 198 108 29 187 99
17 171 85 16 165 82 16 160 80 15 154 77 14 148 74 14 142 71 13 136 68
12 129 64 12 121 60 11 114 57 10 106 53 9 97 48 8 88 44 7 78 39 6 68
34 5 57 28 4 44 22 3 30 15 2 25 12 2 25 12 25 22 22 25 22 22 25 22 22
25 22 22 25 22 22 25 22 22 25 22 22 25 22 22 25 22 22 25 22 22 25 22
22 25 22 22 25 22 22 25 22 22 25 22 22 25 22 22 25 22 22 25 22 22 25
22 22 25 22 22 25 22 22 25 22 22 25 22 22 25 22 22 25 22 22 25 22 22
25 22 22 25 22 22 25 22 22 25 22 22 25 22 22 25 22 22 25 22 22 25 22
22 25 22 22 25 22 22 25 22 22 25 22 22 25 22 22 25 22 22 25 22 22 25
22 22 25 22 22
25 22 22 25 22 22 25 22 22 25 22 22 25 22 22 25 22 22 25 22 22 25 22
22 25 22 22 25 22 22 25 22 22 25 22 22 25 22 22 25 22 22 25 22 22 25
22 22 25 22 22 25 22 22 25 22 22 25 22 22 25 22 22 25 22 22 25 22 22
25 22 22 25 22 22 25 22 22 17 177 88 18 188 94 19 191 95 19 192 96 19
191 95 18 189 94 18 186 93 18 183 91 18 180 90 18 176 88 17 172 86 16
167 83 16 162 81 15 156 78 15 151 75 14 145 72 13 138 69 13 132 66 12
125 62 11 118 59 11 110 55 10 102 51 9 94 47 8 85 42 7 75 37 6 65 32
5 54 27 4 41 20 2 28 14 2 25 12 2 25 12 2 25 12 25 22 22 25 22 22 25
22 22 25 22 22 25 22 22 25 22 22 25 22 22 25 22 22 25 22 22 25 22 22
25 22 22 25 22 22 25 22 22 25 22 22 25 22 22 25 22 22 25 22 22 25 22
22 25 22 22 25 22 22 25 22 22 25 22 22 25 22 22 25 22 22 25 22 22 25
22 22 25 22 22 25 22 22 25 22 22 25 22 22 25 22 22 25 22 22 25 22 22
25 22 22 25 22 22 25 22 22 25 22 22 25 22 22 25 22 22 25 22 22 25 22
22 25 22 22
25 22 22 25 22 22 25 22 22 25 22 22 25 22 22 25 22 22 25 22 22 25 22
22 25 22 22 25 22 22 25 22 22 25 22 22 25 22 22 25 22 22 25 22 22 25
22 22 25 22 22 25 22 22 25 22 22 25 22 22 25 22 22 25 22 22 25 22 22
25 22 22 25 22 22 25 22 22 17 175 87 18 184 92 18 187 93 18 187 93 18
187 93 18 185 92 18 182 91 17 179 89 17 175 87 17 171 85 16 167 83 16
162 81 15 157 78 15 152 76 14 146 73 14 141 70 13 134 67 12 128 64 12
121 60 11 114 57 10 106 53 9 98 49 9 90 45 8 81 40 7 71 35 6 61 30 5
50 25 3 38 19 2 25 12 2 25 12 2 25 12 2 25 12 25 22 22 25 22 22 25 22
22 25 22 22 25 22 22 25 22 22 25 22 22 25 22 22 25 22 22 25 22 22 25
22 22 25 22 22 25 22 22 25 22 22 25 22 22 25 22 22 25 22 22 25 22 22
25 22 22 25 22 22 25 22 22 25 22 22 25 22 22 25 22 22 25 22 22 25 22
22 25 22 22 25 22 22 25 22 22 25 22 22 25 22 22 25 22 22 25 22 22 25
22 22 25 22 22 25 22 22 25 22 22 25 22 22 25 22 22 25 22 22 25 22 22
25 22 22
25 22 22 25 22 22 25 22 22 25 22 22 25 22 22 25 22 22 25 22 22 25 22
22 25 22 22 25 22 22 25 22 22 25 22 22 25 22 22 25 22 22 25 22 22 25
22 22 25 22 22 25 22 22 25 22 22 25 22 22 25 22 22 25 22 22 25 22 22
25 22 22 25 22 22 25 22 22 17 172 86 18 180 90 18 182 91 18 183 91 18
182 91 18 180 90 17 178 89 17 174 87 17 171 85 16 167 83 16 163 81 15
158 79 15 153 76 14 148 74 14 142 71 13 136 68 13 130 65 12 123 61 11
116 58 10 109 54 10 102 51 9 94 47 8 85 42 7 76 38 6 67 33 5 57 28 4
46 23 3 34 17 2 25 12 2 25 12 2 25 12 2 25 12 25 22 22 25 22 22 25 22
22 25 22 22 25 22 22 25 22 22 25 22 22 25 22 22 25 22 22 25 22 22 25
22 22 25 22 22 25 22 22 25 22 22 25 22 22 25 22 22 25 22 22 25 22 22
25 22 22 25 22 22 25 22 22 25 22 22 25 22 22 25 22 22 25 22 22 25 22
22 25 22 22 25 22 22 25 22 22 25 22 22 25 22 22 25 22 22 25 22 22 25
22 22 25 22 22 25 22 22 25 22 22 25 22 22 25 22 22 25 22 22 25 22 22
25 22 22
25 22 22 25 22 22 25 22 22 25 22 22 25 22 22 25 22 22 25 22 22 25 22
22 25 22 22 25 22 22 25 22 22 25 22 22 25 22 22 25 22 22 25 22 22 25
22 22 25 22 22 25 22 22 25 22 22 25 22 22 25 22 22 25 22 22 25 22 22
25 22 22 25 22 22 25 22 22 16 166 83 17 175 87 17 177 88 17 178 89 17
177 88 17 175 87 17 173 86 17 170 85 16 166 83 16 162 81 15 158 79 15
153 76 14 148 74 14 143 71 13 137 68 13 131 65 12 125 62 11 119 59 11
112 56 10 105 52 9 97 48 8 89 44 8 81 40 7 72 36 6 62 31 5 52 26 4 41
20 2 29 14 2 25 12 2 25 12 2 25 12 2 25 12 25 22 22 25 22 22 25 22 22
25 22 22 12 25 2 81 163 16 78 156 15 71 143 14 62 124 12 47 94 9 25
22 22 25 22 22 25 22 22 25 22 22 25 22 22 25 22 22 25 22 22 25 22 22
25 22 22 25 22 22 25 22 22 25 22 22 25 22 22 25 22 22 25 22 22 25 22
22 25 22 22 25 22 22 25 22 22 25 22 22 25 22 22 25 22 22 25 22 22 25
22 22 25 22 22 25 22 22 25 22 22 25 22 22 25 22 22 25 22 22 25 22 22
25 22 22
25 22 22 25 22 22 25 22 22 25 22 22 25 22 22 25 22 22 25 22 22 25 22
22 25 22 22 25 22 22 25 22 22 25 22 22 25 22 22 25 22 22 25 22 22 25
22 22 25 22 22 25 22 22 25 22 22 25 22 22 25 22 22 25 22 22 25 22 22
25 22 22 25 22 22 25 22 22 16 160 80 16 169 84 17 171 85 17 172 86 17
171 85 17 170 85 16 167 83 16 164 82 16 161 80 15 157 78 15 153 76 14
148 74 14 143 71 13 138 69 13 132 66 12 126 63 12 120 60 11 114 57 10
107 53 10 100 50 9 92 46 8 84 42 7 76 38 6 67 33 5 57 28 4 47 23 3 36
18 2 25 12 2 25 12 2 25 12 2 25 12 2 25 12 25 22 22 25 22 22 12 25 2
12 25 2 12 25 2 91 182 18 87 174 17 80 161 16 72 145 14 62 125 12 49
98 9 24 48 4 25 22 22 25 22 22 25 22 22 25 22 22 25 22 22 25 22 22 25
22 22 25 22 22 25 22 22 25 22 22 25 22 22 25 22 22 25 22 22 25 22 22
25 22 22 25 22 22 25 22 22 25 22 22 25 22 22 25 22 22 25 22 22 25 22
22 25 22 22 25 22 22 25 22 22 25 22 22 25 22 22 25 22 22 25 22 22 25
22 22
25 22 22 25 22 22 25 22 22 25 22 22 25 22 22 25 22 22 25 22 22 25 22
22 25 22 22 25 22 22 25 22 22 25 22 22 25 22 22 25 22 22 25 22 22 25
22 22 25 22 22 25 22 22 25 22 22 25 22 22 25 22 22 25 22 22 25 22 22
25 22 22 25 22 22 25 22 22 15 151 75 16 162 81 16 165 82 16 166 83 16
165 82 16 164 82 16 161 80 15 159 79 15 155 77 15 151 75 14 147 73 14
142 71 13 138 69 13 132 66 12 127 63 12 121 60 11 115 57 10 108 54 10
101 50 9 94 47 8 87 43 7 79 39 7 70 35 6 61 30 5 52 26 4 41 20 3 30
15 2 25 12 2 25 12 2 25 12 2 25 12 2 25 12 25 22 22 12 25 2 12 25 2
12 25 2 12 25 2 95 190 19 90 181 18 84 169 16 77 154 15 68 136 13 56
113 11 42 84 8 16 33 3 25 22 22 25 22 22 25 22 22 25 22 22 25 22 22
25 22 22 25 22 22 25 22 22 25 22 22 25 22 22 25 22 22 25 22 22 25 22
22 25 22 22 25 22 22 25 22 22 25 22 22 25 22 22 25 22 22 25 22 22 25
22 22 25 22 22 25 22 22 25 22 22 25 22 22 25 22 22 25 22 22 25 22 22
25 22 22
25 22 22 25 22 22 25 22 22 25 22 22 25 22 22 25 22 22 25 22 22 25 22
22 25 22 22 25 22 22 25 22 22 25 22 22 25 22 22 25 22 22 25 22 22 25
22 22 25 22 22 25 22 22 25 22 22 25 22 22 25 22 22 25 22 22 25 22 22
25 22 22 25 22 22 25 22 22 14 140 70 15 154 77 15 158 79 15 159 79 15
159 79 15 157 78 15 155 77 15 152 76 14 149 74 14 145 72 14 141 70 13
137 68 13 132 66 12 127 63 12 121 60 11 115 57 10 109 54 10 102 51 9
96 48 8 88 44 8 81 40 7 73 36 6 64 32 5 55 27 4 46 23 3 35 17 2 25 12
2 25 12 2 25 12 2 25 12 2 25 12 2 25 12 12 25 2 12 25 2 12 25 2 12 25
2 99 199 19 96 192 19 91 183 18 85 171 17 78 156 15 69 139 13 59 119
11 47 94 9 30 60 6 25 22 22 25 22 22 25 22 22 25 22 22 25 22 22 25 22
22 25 22 22 25 22 22 25 22 22 25 22 22 25 22 22 25 22 22 25 22 22 25
22 22 25 22 22 25 22 22 25 22 22 25 22 22 25 22 22 25 22 22 25 22 22
25 22 22 25 22 22 25 22 22 25 22 22 25 22 22 25 22 22 25 22 22 25 22
22
25 22 22 25 22 22 25 22 22 25 22 22 25 22 22 25 22 22 25 22 22 25 22
22 25 22 22 25 22 22 25 22 22 25 22 22 25 22 22 25 22 22 25 22 22 25
22 22 25 22 22 25 22 22 25 22 22 25 22 22 25 22 22 25 22 22 25 22 22
25 22 22 25 22 22 25 22 22 25 22 22 14 145 72 15 150 75 15 152 76 15
152 76 15 151 75 14 149 74 14 146 73 14 143 71 13 139 69 13 135 67 13
130 65 12 126 63 12 120 60 11 115 57 10 109 54 10 103 51 9 96 48 9 90
45 8 82 41 7 75 37 6 67 33 5 58 29 4 49 24 3 39 19 2 29 14 2 25 12 2
25 12 2 25 12 2 25 12 2 25 12 25 22 22 12 25 2 12 25 2 12 25 2 12 25
2 99 198 19 95 191 19 90 181 18 84 169 16 77 155 15 69 139 13 59 119
11 48 96 9 33 67 6 12 25 2 25 22 22 25 22 22 25 22 22 25 22 22 25 22
22 25 22 22 25 22 22 25 22 22 25 22 22 25 22 22 25 22 22 25 22 22 25
22 22 25 22 22 25 22 22 25 22 22 25 22 22 25 22 22 25 22 22 25 22 22
25 22 22 25 22 22 25 22 22 25 22 22 25 22 22 25 22 22 25 22 22 25 22
22
150 150 150 150 150 150 150 150 150 149 149 149 149 149 149 149 149
149 149 149 149 149 149 149 148 148 148 148 148 148 148 148 148 148
148 148 147 147 147 147 147 147 147 147 147 147 147 147 146 146 146
146 146 146 146 146 146 146 146 146 145 145 145 145 145 145 145 145
145 145 145 145 144 144 144 144 144 144 144 144 144 13 133 66 14 141
70 14 144 72 14 144 72 14 143 71 14 142 71 13 139 69 13 136 68 13 132
66 12 128 64 12 124 62 11 119 59 11 114 57 10 108 54 10 103 51 9 96
48 9 90 45 8 83 41 7 76 38 6 68 34 6 60 30 5 51 25 4 42 21 3 32 16 2
25 12 2 25 12 2 25 12 2 25 12 2 25 12 2 25 12 135 135 135 12 25 2 12
25 2 12 25 2 12 25 2 145 242 67 94 188 20 88 177 17 82 165 16 75 151
15 67 135 13 58 116 11 47 94 9 33 67 6 14 29 2 130 130 130 130 130
130 129 129 129 129 129 129 129 129 129 128 128 128 128 128 128 128
128 128 127 127 127 127 127 127 127 127 127 127 127 127 126 126 126
126 126 126 126 126 126 125 125 125 125 125 125 125 125 125 124 124
124 124 124 124 124 124 124 123 123 123 123 123 123 123 123 123 122
122 122 122 122 122 122 122 122 122 122 122
153 153 153 153 153 153 153 153 153 152 152 152 152 152 152 152 152
152 152 152 152 152 152 152 151 151 151 151 151 151 151 151 151 151
151 151 150 150 150 150 150 150 150 150 150 150 150 150 149 149 149
149 149 149 149 149 149 149 149 149 148 148 148 148 148 148 148 148
148 148 148 148 147 147 147 147 147 147 147 147 147 11 117 58 13 131
65 13 135 67 13 136 68 13 135 67 13 134 67 13 131 65 12 129 64 12 125
62 12 121 60 11 117 58 11 112 56 10 107 53 10 102 51 9 96 48 9 90 45
8 83 41 7 76 38 6 69 34 6 61 30 5 53 26 4 44 22 3 35 17 2 25 12 2 25
12 2 25 12 2 25 12 2 25 12 2 25 12 2 25 12 12 25 2 12 25 2 12 25 2 12
25 2 12 25 2 93 187 18 89 179 17 85 170 17 79 158 15 72 145 14 64 129
12 55 111 11 44 89 8 31 62 6 13 27 2 133 133 133 133 133 133 132 132
132 132 132 132 132 132 132 131 131 131 131 131 131 131 131 131 130
130 130 130 130 130 130 130 130 129 129 129 129 129 129 129 129 129
128 128 128 128 128 128 128 128 128 128 128 128 127 127 127 127 127
127 127 127 127 126 126 126 126 126 126 126 126 126 125 125 125 125
125 125 125 125 125 124 124 124
156 156 156 156 156 156 155 155 155 155 155 155 155 155 155 155 155
155 155 155 155 154 154 154 154 154 154 154 154 154 154 154 154 153
153 153 153 153 153 153 153 153 153 153 153 152 152 152 152 152 152
152 152 152 152 152 152 151 151 151 151 151 151 151 151 151 150 150
150 150 150 150 150 150 150 150 150 150 149 149 149 149 149 149 11
118 59 12 124 62 12 126 63 12 126 63 12 125 62 12 123 61 12 121 60 11
117 58 11 114 57 10 109 54 10 105 52 10 100 50 9 94 47 8 88 44 8 82
41 7 76 38 6 69 34 6 61 30 5 53 26 4 45 22 3 36 18 2 27 13 2 25 12 2
25 12 2 25 12 2 25 12 2 25 12 2 25 12 140 140 140 12 25 2 12 25 2 12
25 2 12 25 2 12 25 2 89 178 17 85 170 17 80 161 16 75 150 15 68 136
13 60 120 12 51 102 10 40 80 8 27 54 5 12 25 2 135 135 135 135 135
135 135 135 135 135 135 135 134 134 134 134 134 134 134 134 134 133
133 133 133 133 133 133 133 133 132 132 132 132 132 132 132 132 132
131 131 131 131 131 131 131 131 131 130 130 130 130 130 130 130 130
130 130 130 130 129 129 129 129 129 129 129 129 129 128 128 128 128
128 128 128 128 128 127 127 127 127 127 127
158 158 158 158 158 158 158 158 158 158 158 158 157 157 157 157 157
157 157 157 157 157 157 157 156 156 156 156 156 156 156 156 156 156
156 156 155 155 155 155 155 155 155 155 155 155 155 155 154 154 154
154 154 154 154 154 154 154 154 154 153 153 153 153 153 153 153 153
153 152 152 152 152 152 152 152 152 152 152 152 152 151 151 151 9 97
48 11 112 56 11 116 58 11 117 58 11 116 58 11 115 57 11 112 56 10 109
54 10 105 52 10 101 50 9 97 48 9 92 46 8 86 43 8 80 40 7 74 37 6 68
34 6 61 30 5 53 26 4 45 22 3 37 18 2 28 14 2 25 12 2 25 12 2 25 12 2
25 12 2 25 12 2 25 12 2 25 12 25 25 25 12 25 2 12 25 2 12 25 2 12 25
2 12 25 2 83 166 16 79 159 15 75 150 15 69 139 13 62 125 12 55 110 11
45 91 9 34 69 6 21 43 4 12 25 2 25 25 25 25 25 25 25 25 25 137 137
137 137 137 137 136 136 136 136 136 136 136 136 136 135 135 135 135
135 135 135 135 135 134 134 134 134 134 134 134 134 134 133 133 133
133 133 133 133 133 133 133 133 133 132 132 132 132 132 132 132 132
132 131 131 131 131 131 131 131 131 131 130 130 130 130 130 130 130
130 130 130 130 130
160 160 160 160 160 160 160 160 160 160 160 160 159 159 159 159 159
159 159 159 159 159 159 159 158 158 158 158 158 158 158 158 158 158
158 158 157 157 157 157 157 157 157 157 157 157 157 157 156 156 156
156 156 156 157 125 15 148 119 14 132 105 13 110 88 11 77 62 7 154
154 154 154 154 154 154 154 154 154 154 154 153 153 153 153 153 153 9
94 47 10 103 51 10 105 52 10 106 53 10 105 52 10 103 51 10 100 50 9
96 48 9 92 46 8 88 44 8 83 41 7 78 39 7 72 36 6 66 33 5 59 29 5 52 26
4 44 22 3 36 18 2 28 14 2 25 12 2 25 12 2 25 12 2 25 12 2 25 12 2 25
12 2 25 12 25 25 25 25 25 25 25 25 25 12 25 2 12 25 2 12 25 2 12 25 2
76 153 15 73 146 14 68 137 13 62 125 12 56 112 11 48 96 9 38 77 7 27
55 5 14 28 2 12 25 2 25 25 25 25 25 25 25 25 25 25 25 25 139 139 139
138 138 138 138 138 138 138 138 138 137 137 137 137 137 137 137 137
137 137 137 137 136 136 136 136 136 136 136 136 136 135 135 135 135
135 135 135 135 135 134 134 134 134 134 134 134 134 134 134 134 134
133 133 133 133 133 133 133 133 133 132 132 132 132 132 132 132 132
132
162 162 162 162 162 162 162 162 162 161 161 161 161 161 161 161 161
161 161 161 161 160 160 160 160 160 160 160 160 160 160 160 160 159
159 159 159 159 159 159 159 159 159 159 159 158 158 158 187 149 18
185 148 18 174 139 17 160 128 16 142 114 14 122 97 12 98 78 9 69 55 6
25 20 2 156 156 156 155 155 155 155 155 155 155 155 155 154 154 154 8
86 43 9 92 46 9 94 47 9 94 47 9 92 46 9 90 45 8 87 43 8 83 41 7 79 39
7 74 37 6 68 34 6 63 31 5 56 28 5 50 25 4 43 21 3 35 17 2 27 13 2 25
12 2 25 12 2 25 12 2 25 12 2 25 12 2 25 12 2 25 12 25 25 25 25 25 25
25 25 25 25 25 25 12 25 2 12 25 2 12 25 2 12 25 2 68 136 13 65 130 13
60 121 12 55 110 11 48 96 9 40 80 8 30 61 6 18 37 3 12 25 2 12 25 2
25 25 25 25 25 25 25 25 25 25 25 25 25 25 25 25 25 25 140 140 140 140
140 140 139 139 139 139 139 139 139 139 139 138 138 138 138 138 138
138 138 138 138 138 138 137 137 137 137 137 137 137 137 137 136 136
136 136 136 136 136 136 136 136 136 136 135 135 135 135 135 135 135
135 135 134 134 134 134 134 134 134 134 134
164 164 164 164 164 164 163 163 163 163 163 163 163 163 163 163 163
163 162 162 162 162 162 162 162 162 162 161 161 161 161 161 161 161
161 161 161 161 161 160 160 160 160 160 160 199 159 19 197 158 19 188
150 18 175 140 17 160 128 16 142 114 14 123 98 12 100 80 10 74 59 7
43 34 4 25 20 2 157 157 157 157 157 157 156 156 156 156 156 156 156
156 156 7 74 37 7 79 39 8 81 40 8 80 40 7 78 39 7 76 38 7 72 36 6 68
34 6 63 31 5 58 29 5 52 26 4 46 23 3 39 19 3 32 16 2 25 12 2 25 12 2
25 12 2 25 12 2 25 12 2 25 12 2 25 12 2 25 12 25 25 25 25 25 25 25 25
25 25 25 25 25 25 25 25 25 25 12 25 2 12 25 2 12 25 2 58 116 11 55
110 11 51 102 10 45 91 9 38 77 7 30 60 6 20 40 4 12 25 2 12 25 2 25
25 25 25 25 25 25 25 25 25 25 25 25 25 25 25 25 25 25 25 25 25 25 25
25 25 25 25 25 25 141 141 141 141 141 141 140 140 140 140 140 140 140
140 140 139 139 139 139 139 139 139 139 139 139 139 139 138 138 138
138 138 138 138 138 138 137 137 137 137 137 137 137 137 137 137 137
137 136 136 136 136 136 136 136 136 136
165 165 165 165 165 165 165 165 165 164 164 164 164 164 164 164 164
164 164 164 164 163 163 163 163 163 163 163 163 163 163 163 163 162
162 162 162 162 162 162 162 162 199 159 19 203 162 20 196 157 19 185
148 18 172 137 17 156 125 15 138 111 13 119 95 11 97 77 9 72 58 7 44
35 4 25 20 2 158 158 158 158 158 158 158 158 158 157 157 157 157 157
157 157 157 157 5 59 29 6 64 32 6 66 33 6 65 32 6 63 31 6 60 30 5 56
28 5 52 26 4 47 23 4 41 20 3 35 17 2 28 14 2 25 12 2 25 12 2 25 12 2
25 12 2 25 12 2 25 12 2 25 12 2 25 12 25 25 25 25 25 25 25 25 25 25
25 25 25 25 25 25 25 25 25 25 25 25 25 25 12 25 2 12 25 2 12 25 2 43
87 8 39 79 7 34 68 6 26 53 5 18 36 3 12 25 2 12 25 2 25 25 25 25 25
25 25 25 25 25 25 25 25 25 25 25 25 25 25 25 25 25 25 25 25 25 25 25
25 25 143 143 143 143 143 143 142 142 142 142 142 142 142 142 142 141
141 141 141 141 141 141 141 141 141 141 141 140 140 140 140 140 140
140 140 140 139 139 139 139 139 139 139 139 139 139 139 139 138 138
138 138 138 138 138 138 138 137 137 137
166 166 166 166 166 166 166 166 166 166 166 166 165 165 165 165 165
165 165 165 165 165 165 165 164 164 164 164 164 164 164 164 164 164
164 164 163 163 163 163 163 163 202 161 20 199 159 19 190 152 19 193
157 31 165 132 16 149 119 14 132 105 13 112 90 11 90 72 9 66 53 6 39
31 3 25 20 2 25 20 2 159 159 159 159 159 159 159 159 159 158 158 158
158 158 158 158 158 158 3 38 19 4 47 23 4 48 24 4 48 24 4 46 23 4 42
21 3 38 19 3 33 16 2 28 14 2 25 12 2 25 12 2 25 12 2 25 12 2 25 12 2
25 12 2 25 12 2 25 12 2 25 12 25 25 25 25 25 25 25 25 25 25 25 25 25
25 25 25 25 25 25 25 25 25 25 25 25 25 25 25 25 25 12 25 2 12 25 2 27
55 5 24 49 4 19 38 3 12 25 2 12 25 2 12 25 2 25 25 25 25 25 25 25 25
25 25 25 25 25 25 25 25 25 25 25 25 25 25 25 25 25 25 25 25 25 25 145
145 145 144 144 144 144 144 144 144 144 144 143 143 143 143 143 143
143 143 143 143 143 143 142 142 142 142 142 142 142 142 142 142 142
142 141 141 141 141 141 141 141 141 141 140 140 140 140 140 140 140
140 140 140 140 140 139 139 139 139 139 139
167 167 167 167 167 167 167 167 167 167 167 167 166 166 166 166 166
166 166 166 166 166 166 166 165 165 165 165 165 165 165 165 165 165
165 165 164 164 164 188 150 18 196 157 19 191 153 19 182 146 18 173
139 19 156 125 15 140 112 14 123 98 12 103 82 10 82 65 8 58 46 5 31
25 3 25 20 2 25 20 2 160 160 160 160 160 160 160 160 160 160 160 160
159 159 159 159 159 159 159 159 159 158 158 158 2 25 12 2 27 13 2 27
13 2 25 12 2 25 12 2 25 12 2 25 12 2 25 12 2 25 12 2 25 12 2 25 12 2
25 12 2 25 12 2 25 12 25 25 25 25 25 25 25 25 25 25 25 25 25 25 25 25
25 25 25 25 25 25 25 25 25 25 25 25 25 25 25 25 25 25 25 25 25 25 25
25 25 25 12 25 2 12 25 2 12 25 2 12 25 2 25 25 25 25 25 25 25 25 25
25 25 25 25 25 25 25 25 25 25 25 25 25 25 25 147 147 147 147 147 147
147 147 147 146 146 146 146 146 146 146 146 146 145 145 145 145 145
145 145 145 145 145 145 145 144 144 144 144 144 144 144 144 144 144
144 144 143 143 143 143 143 143 143 143 143 142 142 142 142 142 142
142 142 142 142 142 142 141 141 141 141 141 141 141 141 141 141 141
141
168 168 168 168 168 168 168 168 168 168 168 168 167 167 167 167 167
167 167 167 167 167 167 167 166 166 166 166 166 166 166 166 166 166
166 166 165 165 165 183 146 18 187 149 18 181 145 18 172 137 17 160
128 16 145 116 14 129 103 12 112 89 11 92 74 9 71 56 7 47 37 4 25 20
2 25 20 2 25 20 2 161 161 161 161 161 161 161 161 161 161 161 161 160
160 160 160 160 160 160 160 160 160 160 160 159 159 159 159 159 159
25 25 25 2 25 12 2 25 12 2 25 12 2 25 12 2 25 12 2 25 12 2 25 12 2 25
12 25 25 25 25 25 25 25 25 25 25 25 25 25 25 25 25 25 25 25 25 25 25
25 25 25 25 25 25 25 25 25 25 25 25 25 25 25 25 25 25 25 25 25 25 25
25 25 25 25 25 25 152 152 152 151 151 151 151 151 151 151 151 151 151
151 151 150 150 150 150 150 150 150 150 150 149 149 149 149 149 149
149 149 149 149 149 149 148 148 148 148 148 148 148 148 148 148 148
148 147 147 147 147 147 147 147 147 147 146 146 146 146 146 146 146
146 146 146 146 146 145 145 145 145 145 145 145 145 145 145 145 145
144 144 144 144 144 144 144 144 144 144 144 144 143 143 143 143 143
143 143 143 143 142 142 142 142 142 142 142 142 142
169 169 169 169 169 169 169 169 169 169 169 169 168 168 168 168 168
168 168 168 168 168 168 168 167 167 167 167 167 167 167 167 167 167
167 167 166 166 166 171 137 17 175 140 17 169 135 16 159 127 15 147
118 14 133 106 13 117 93 11 99 79 9 79 63 7 58 46 5 34 27 3 25 20 2
25 20 2 25 20 2 162 162 162 162 162 162 162 162 162 162 162 162 161
161 161 161 161 161 161 161 161 160 160 160 160 160 160 160 160 160
160 160 160 25 25 25 25 25 25 25 25 25 25 25 25 25 25 25 25 25 25 25
25 25 25 25 25 25 25 25 25 25 25 25 25 25 25 25 25 25 25 25 25 25 25
25 25 25 25 25 25 25 25 25 25 25 25 25 25 25 25 25 25 154 154 154 154
154 154 154 154 154 153 153 153 153 153 153 153 153 153 152 152 152
152 152 152 152 152 152 152 152 152 151 151 151 151 151 151 151 151
151 151 151 151 150 150 150 150 150 150 150 150 150 150 150 150 149
149 149 149 149 149 149 149 149 148 148 148 148 148 148 148 148 148
148 148 148 147 147 147 147 147 147 147 147 147 147 147 147 146 146
146 146 146 146 146 146 146 146 146 146 145 145 145 145 145 145 145
145 145 145 145 145 144 144 144 144 144 144 144 144 144 143 143 143
143 143 143
170 170 170 170 170 170 170 170 170 169 169 169 169 169 169 169 169
169 169 169 169 168 168 168 168 168 168 168 168 168 168 168 168 167
167 167 167 167 167 152 122 15 159 127 15 154 123 15 145 116 14 133
106 13 118 95 11 102 82 10 85 68 8 65 52 6 43 34 4 25 20 2 25 20 2 25
20 2 25 20 2 163 163 163 163 163 163 163 163 163 162 162 162 162 162
162 162 162 162 25 25 25 161 161 161 161 161 161 161 161 161 161 161
161 160 160 160 160 160 160 160 160 160 160 160 160 159 159 159 159
159 159 159 159 159 158 158 158 158 158 158 158 158 158 158 158 158
157 157 157 157 157 157 157 157 157 157 157 157 156 156 156 156 156
156 156 156 156 156 156 156 155 155 155 155 155 155 155 155 155 155
155 155 154 154 154 154 154 154 154 154 154 153 153 153 153 153 153
153 153 153 153 153 153 152 152 152 152 152 152 152 152 152 152 152
152 151 151 151 151 151 151 151 151 151 151 151 151 150 150 150 150
150 150 150 150 150 150 150 150 149 149 149 149 149 149 149 149 149
149 149 149 148 148 148 148 148 148 148 148 148 147 147 147 147 147
147 147 147 147 147 147 147 146 146 146 146 146 146 146 146 146 146
146 146 145 145 145 145 145 145 145 145 145 145 145 145 144 144 144
171 171 171 170 170 170 170 170 170 170 170 170 170 170 170 170 170
170 169 169 169 169 169 169 169 169 169 169 169 169 168 168 168 168
168 168 168 168 168 168 168 168 140 112 14 137 109 13 128 102 12 116
93 11 102 82 10 86 69 8 68 54 6 48 38 4 26 20 2 25 20 2 25 20 2 25 20
2 25 25 25 25 25 25 25 25 25 25 25 25 25 25 25 25 25 25 25 25 25 25
25 25 25 25 25 25 25 25 25 25 25 161 161 161 161 161 161 161 161 161
161 161 161 160 160 160 160 160 160 160 160 160 160 160 160 159 159
159 159 159 159 159 159 159 159 159 159 158 158 158 158 158 158 158
158 158 158 158 158 157 157 157 157 157 157 157 157 157 156 156 156
156 156 156 156 156 156 156 156 156 155 155 155 155 155 155 155 155
155 155 155 155 154 154 154 154 154 154 154 154 154 154 154 154 153
153 153 153 153 153 153 153 153 153 153 153 152 152 152 152 152 152
152 152 152 152 152 152 151 151 151 151 151 151 151 151 151 151 151
151 150 150 150 150 150 150 150 150 150 150 150 150 149 149 149 149
149 149 149 149 149 149 149 149 148 148 148 148 148 148 148 148 148
148 148 148 147 147 147 147 147 147 147 147 147 147 147 147 146 146
146 146 146 146 146 146 146 146 146 146
171 171 171 171 171 171 171 171 171 171 171 171 170 170 170 170 170
170 170 170 170 170 170 170 169 169 169 169 169 169 169 169 169 169
169 169 168 168 168 168 168 168 113 91 11 115 92 11 108 86 10 97 77 9
83 66 8 67 54 6 49 39 4 28 23 2 25 20 2 25 20 2 25 20 2 25 20 2 25 25
25 25 25 25 25 25 25 25 25 25 25 25 25 25 25 25 25 25 25 25 25 25 25
25 25 25 25 25 162 162 162 162 162 162 162 162 162 162 162 162 161
161 161 161 161 161 161 161 161 161 161 161 160 160 160 160 160 160
160 160 160 160 160 160 159 159 159 159 159 159 159 159 159 159 159
159 158 158 158 158 158 158 158 158 158 158 158 158 157 157 157 157
157 157 157 157 157 157 157 157 156 156 156 156 156 156 156 156 156
156 156 156 155 155 155 155 155 155 155 155 155 155 155 155 154 154
154 154 154 154 154 154 154 154 154 154 153 153 153 153 153 153 153
153 153 153 153 153 152 152 152 152 152 152 152 152 152 152 152 152
151 151 151 151 151 151 151 151 151 151 151 151 150 150 150 150 150
150 150 150 150 150 150 150 149 149 149 149 149 149 149 149 149 149
149 149 148 148 148 148 148 148 148 148 148 148 148 148 147 147 147
147 147 147 147 147 147 147 147 147
172 172 172 172 172 172 171 171 171 171 171 171 171 171 171 171 171
171 170 170 170 170 170 170 170 170 170 170 170 170 169 169 169 169
169 169 169 169 169 169 169 169 169 169 169 86 68 8 83 66 8 74 59 7
60 48 6 45 36 4 26 21 2 25 20 2 25 20 2 25 20 2 25 20 2 25 25 25 25
25 25 25 25 25 25 25 25 25 25 25 25 25 25 25 25 25 25 25 25 25 25 25
164 164 164 163 163 163 163 163 163 163 163 163 163 163 163 162 162
162 162 162 162 162 162 162 162 162 162 161 161 161 161 161 161 161
161 161 161 161 161 160 160 160 160 160 160 160 160 160 160 160 160
159 159 159 159 159 159 159 159 159 159 159 159 158 158 158 158 158
158 158 158 158 158 158 158 157 157 157 157 157 157 157 157 157 157
157 157 156 156 156 156 156 156 156 156 156 156 156 156 155 155 155
155 155 155 155 155 155 155 155 155 154 154 154 154 154 154 154 154
154 154 154 154 153 153 153 153 153 153 153 153 153 153 153 153 152
152 152 152 152 152 152 152 152 152 152 152 151 151 151 151 151 151
151 151 151 151 151 151 151 151 151 150 150 150 150 150 150 150 150
150 150 150 150 149 149 149 149 149 149 149 149 149 149 149 149 148
148 148 148 148 148 148 148 148 148 148 148
172 172 172 172 172 172 172 172 172 172 172 172 171 171 171 171 171
171 171 171 171 171 171 171 171 171 171 170 170 170 170 170 170 170
170 170 170 170 170 169 169 169 169 169 169 169 169 169 44 35 4 42 34
4 31 25 3 25 20 2 25 20 2 25 20 2 25 20 2 25 25 25 25 25 25 25 25 25
25 25 25 25 25 25 25 25 25 25 25 25 25 25 25 165 165 165 165 165 165
164 164 164 164 164 164 164 164 164 164 164 164 163 163 163 163 163
163 163 163 163 163 163 163 163 163 163 162 162 162 162 162 162 162
162 162 162 162 162 161 161 161 161 161 161 161 161 161 161 161 161
160 160 160 160 160 160 160 160 160 160 160 160 159 159 159 159 159
159 159 159 159 159 159 159 158 158 158 158 158 158 158 158 158 158
158 158 157 157 157 157 157 157 157 157 157 157 157 157 156 156 156
156 156 156 156 156 156 156 156 156 155 155 155 155 155 155 155 155
155 155 155 155 154 154 154 154 154 154 154 154 154 154 154 154 154
154 154 153 153 153 153 153 153 153 153 153 153 153 153 152 152 152
152 152 152 152 152 152 152 152 152 151 151 151 151 151 151 151 151
151 151 151 151 150 150 150 150 150 150 150 150 150 150 150 150 150
150 150 149 149 149 149 149 149 149 149 149 149 149 149
173 173 173 173 173 173 172 172 172 172 172 172 172 172 172 172 172
172 171 171 171 171 171 171 171 171 171 171 171 171 171 171 171 170
170 170 170 170 170 170 170 170 170 170 170 169 169 169 169 169 169
169 169 169 25 25 25 25 25 25 25 25 25 25 25 25 25 25 25 25 25 25 25
25 25 25 25 25 25 25 25 166 166 166 166 166 166 166 166 166 166 166
166 166 166 166 165 165 165 165 165 165 165 165 165 165 165 165 164
164 164 164 164 164 164 164 164 164 164 164 163 163 163 163 163 163
163 163 163 163 163 163 162 162 162 162 162 162 162 162 162 162 162
162 161 161 161 161 161 161 161 161 161 161 161 161 160 160 160 160
160 160 160 160 160 160 160 160 160 160 160 159 159 159 159 159 159
159 159 159 159 159 159 158 158 158 158 158 158 158 158 158 158 158
158 157 157 157 157 157 157 157 157 157 157 157 157 156 156 156 156
156 156 156 156 156 156 156 156 156 156 156 155 155 155 155 155 155
155 155 155 155 155 155 154 154 154 154 154 154 154 154 154 154 154
154 153 153 153 153 153 153 153 153 153 153 153 153 152 152 152 152
152 152 152 152 152 152 152 152 152 152 152 151 151 151 151 151 151
151 151 151 151 151 151 150 150 150 150 150 150 150 150 150 150 150
150 149 149 149
173 173 173 173 173 173 173 173 173 173 173 173 172 172 172 172 172
172 172 172 172 172 172 172 171 171 171 171 171 171 171 171 171 171
171 171 171 171 171 170 170 170 170 170 170 170 170 170 170 170 170
169 169 169 169 169 169 169 169 169 169 169 169 168 168 168 168 168
168 168 168 168 168 168 168 167 167 167 167 167 167 167 167 167 167
167 167 167 167 167 166 166 166 166 166 166 166 166 166 166 166 166
165 165 165 165 165 165 165 165 165 165 165 165 164 164 164 164 164
164 164 164 164 164 164 164 163 163 163 163 163 163 163 163 163 163
163 163 163 163 163 162 162 162 162 162 162 162 162 162 162 162 162
161 161 161 161 161 161 161 161 161 161 161 161 160 160 160 160 160
160 160 160 160 160 160 160 159 159 159 159 159 159 159 159 159 159
159 159 159 159 159 158 158 158 158 158 158 158 158 158 158 158 158
157 157 157 157 157 157 157 157 157 157 157 157 156 156 156 156 156
156 156 156 156 156 156 156 156 156 156 155 155 155 155 155 155 155
155 155 155 155 155 154 154 154 154 154 154 154 154 154 154 154 154
153 153 153 153 153 153 153 153 153 153 153 153 153 153 153 152 152
152 152 152 152 152 152 152 152 152 152 151 151 151 151 151 151 151
151 151 151 151 151 151 151 151 150 150 150
174 174 174 173 173 173 173 173 173 173 173 173 173 173 173 173 173
173 172 172 172 172 172 172 172 172 172 172 172 172 171 171 171 171
171 171 171 171 171 171 171 171 170 170 170 170 170 170 170 170 170
170 170 170 170 170 170 169 169 169 169 169 169 169 169 169 169 169
169 168 168 168 168 168 168 168 168 168 168 168 168 167 167 167 167
167 167 167 167 167 167 167 167 167 167 167 166 166 166 166 166 166
166 166 166 166 166 166 165 165 165 165 165 165 165 165 165 165 165
165 164 164 164 164 164 164 164 164 164 164 164 164 164 164 164 163
163 163 163 163 163 163 163 163 163 163 163 162 162 162 162 162 162
162 162 162 162 162 162 161 161 161 161 161 161 161 161 161 161 161
161 161 161 161 160 160 160 160 160 160 160 160 160 160 160 160 159
159 159 159 159 159 159 159 159 159 159 159 158 158 158 158 158 158
158 158 158 158 158 158 158 158 158 157 157 157 157 157 157 157 157
157 157 157 157 156 156 156 156 156 156 156 156 156 156 156 156 156
156 156 155 155 155 155 155 155 155 155 155 155 155 155 154 154 154
154 154 154 154 154 154 154 154 154 154 154 154 153 153 153 153 153
153 153 153 153 153 153 153 152 152 152 152 152 152 152 152 152 152
152 152 152 152 152 151 151 151 151 151 151
174 174 174 174 174 174 174 174 174 173 173 173 173 173 173 173 173
173 173 173 173 172 172 172 172 172 172 172 172 172 172 172 172 172
172 172 171 171 171 171 171 171 171 171 171 171 171 171 170 170 170
170 170 170 170 170 170 170 170 170 170 170 170 169 169 169 169 169
169 169 169 169 169 169 169 168 168 168 168 168 168 168 168 168 168
168 168 167 167 167 167 167 167 167 167 167 167 167 167 167 167 167
166 166 166 166 166 166 166 166 166 166 166 166 165 165 165 165 165
165 165 165 165 165 165 165 165 165 165 164 164 164 164 164 164 164
164 164 164 164 164 163 163 163 163 163 163 163 163 163 163 163 163
162 162 162 162 162 162 162 162 162 162 162 162 162 162 162 161 161
161 161 161 161 161 161 161 161 161 161 160 160 160 160 160 160 160
160 160 160 160 160 160 160 160 159 159 159 159 159 159 159 159 159
159 159 159 158 158 158 158 158 158 158 158 158 158 158 158 158 158
158 157 157 157 157 157 157 157 157 157 157 157 157 156 156 156 156
156 156 156 156 156 156 156 156 156 156 156 155 155 155 155 155 155
155 155 155 155 155 155 154 154 154 154 154 154 154 154 154 154 154
154 154 154 154 153 153 153 153 153 153 153 153 153 153 153 153 152
152 152 152 152 152 152 152 152 152 152 152
