P3
100 50
255
0 0 0 0 0 0 0 0 0 0 0 0 0 0 0 0 0 0 0 0 0 0 0 0 0 0 0 0 0 0 0 0 0 0 0
0 0 0 0 216 216 216 217 217 217 217 217 217 217 217 217 218 218 218
218 218 218 218 218 218 218 218 218 218 218 218 218 218 218 218 218
218 218 218 218 218 218 218 0 0 0 0 0 0 0 0 0 0 0 0 0 0 0 0 0 0 0 0 0
0 0 0 0 0 0 0 0 0 0 0 0 0 0 0 208 208 208 206 206 206 205 205 205 204
204 204 202 202 202 201 201 201 199 199 199 197 197 197 196 196 196
194 194 194 0 0 0 0 0 0 0 0 0 0 0 0 0 0 0 0 0 0 0 0 0 0 0 0 0 0 0 174
174 174 172 172 172 170 170 170 168 168 168 165 165 165 163 163 163
161 161 161 159 159 159 0 0 0 0 0 0 0 0 0 0 0 0 0 0 0 0 0 0 0 0 0 142
142 142 140 140 140 138 138 138 136 136 136 134 134 134 132 132 132 0
0 0 0 0 0 0 0 0 0 0 0 0 0 0 0 0 0 119 119 119 117 117 117 116 116 116
114 114 114 112 112 112 0 0 0 0 0 0 0 0 0 0 0 0 0 0 0 103 103 103 101
101 101 100 100 100 98 98 98 0 0 0 0 0 0
0 0 0 0 0 0 0 0 0 0 0 0 0 0 0 0 0 0 0 0 0 0 0 0 0 0 0 0 0 0 0 0 0 0 0
0 0 0 0 214 214 214 215 215 215 215 215 215 215 215 215 216 216 216
216 216 216 216 216 216 216 216 216 216 216 216 216 216 216 216 216
216 216 216 216 216 216 216 0 0 0 0 0 0 0 0 0 0 0 0 0 0 0 0 0 0 0 0 0
0 0 0 0 0 0 0 0 0 0 0 0 0 0 0 206 206 206 205 205 205 203 203 203 202
202 202 201 201 201 199 199 199 197 197 197 196 196 196 194 194 194
192 192 192 0 0 0 0 0 0 0 0 0 0 0 0 0 0 0 0 0 0 0 0 0 0 0 0 0 0 0 173
173 173 171 171 171 169 169 169 167 167 167 165 165 165 162 162 162
160 160 160 158 158 158 0 0 0 0 0 0 0 0 0 0 0 0 0 0 0 0 0 0 0 0 0 142
142 142 140 140 140 138 138 138 136 136 136 134 134 134 132 132 132 0
0 0 0 0 0 0 0 0 0 0 0 0 0 0 0 0 0 119 119 119 117 117 117 115 115 115
114 114 114 112 112 112 0 0 0 0 0 0 0 0 0 0 0 0 0 0 0 102 102 102 101
101 101 99 99 99 98 98 98 0 0 0 0 0 0
0 0 0 0 0 0 0 0 0 0 0 0 0 0 0 0 0 0 0 0 0 0 0 0 0 0 0 0 0 0 0 0 0 0 0
0 0 0 0 213 213 213 213 213 213 213 213 213 214 214 214 214 214 214
214 214 214 214 214 214 214 214 214 214 214 214 214 214 214 214 214
214 214 214 214 214 214 214 0 0 0 0 0 0 0 0 0 0 0 0 0 0 0 0 0 0 0 0 0
0 0 0 0 0 0 0 0 0 0 0 0 0 0 0 204 204 204 203 203 203 202 202 202 200
200 200 199 199 199 197 197 197 196 196 196 194 194 194 193 193 193
191 191 191 0 0 0 0 0 0 0 0 0 0 0 0 0 0 0 0 0 0 0 0 0 0 0 0 0 0 0 172
172 172 170 170 170 168 168 168 166 166 166 164 164 164 162 162 162
159 159 159 157 157 157 0 0 0 0 0 0 0 0 0 0 0 0 0 0 0 0 0 0 0 0 0 141
141 141 139 139 139 137 137 137 135 135 135 133 133 133 131 131 131 0
0 0 0 0 0 0 0 0 0 0 0 0 0 0 0 0 0 118 118 118 117 117 117 115 115 115
113 113 113 112 112 112 0 0 0 0 0 0 0 0 0 0 0 0 0 0 0 102 102 102 101
101 101 99 99 99 98 98 98 0 0 0 0 0 0
0 0 0 0 0 0 0 0 0 0 0 0 0 0 0 0 0 0 0 0 0 0 0 0 0 0 0 0 0 0 0 0 0 0 0
0 0 0 0 211 211 211 211 211 211 211 211 211 212 212 212 212 212 212
212 212 212 212 212 212 212 212 212 212 212 212 212 212 212 212 212
212 212 212 212 212 212 212 0 0 0 0 0 0 0 0 0 0 0 0 0 0 0 0 0 0 0 0 0
0 0 0 0 0 0 0 0 0 0 0 0 0 0 0 203 203 203 201 201 201 200 200 200 199
199 199 197 197 197 196 196 196 194 194 194 193 193 193 191 191 191
190 190 190 0 0 0 0 0 0 0 0 0 0 0 0 0 0 0 0 0 0 0 0 0 0 0 0 0 0 0 171
171 171 169 169 169 167 167 167 165 165 165 163 163 163 161 161 161
159 159 159 156 156 156 0 0 0 0 0 0 0 0 0 0 0 0 0 0 0 0 0 0 0 0 0 140
140 140 138 138 138 136 136 136 134 134 134 133 133 133 131 131 131 0
0 0 0 0 0 0 0 0 0 0 0 0 0 0 0 0 0 118 118 118 116 116 116 115 115 115
113 113 113 111 111 111 0 0 0 0 0 0 0 0 0 0 0 0 0 0 0 102 102 102 100
100 100 99 99 99 97 97 97 0 0 0 0 0 0
0 0 0 0 0 0 0 0 0 0 0 0 0 0 0 0 0 0 0 0 0 0 0 0 0 0 0 0 0 0 0 0 0 0 0
0 0 0 0 209 209 209 209 209 209 210 210 210 210 210 210 210 210 210
210 210 210 210 210 210 210 210 210 210 210 210 210 210 210 210 210
210 210 210 210 210 210 210 0 0 0 0 0 0 0 0 0 0 0 0 0 0 0 0 0 0 0 0 0
0 0 0 0 0 0 0 0 0 0 0 0 0 0 0 201 201 201 200 200 200 198 198 198 197
197 197 196 196 196 194 194 194 193 193 193 191 191 191 190 190 190
188 188 188 0 0 0 0 0 0 0 0 0 0 0 0 0 0 0 0 0 0 0 0 0 0 0 0 0 0 0 170
170 170 168 168 168 166 166 166 164 164 164 162 162 162 160 160 160
158 158 158 156 156 156 0 0 0 0 0 0 0 0 0 0 0 0 0 0 0 0 0 0 0 0 0 140
140 140 138 138 138 136 136 136 134 134 134 132 132 132 130 130 130 0
0 0 0 0 0 0 0 0 0 0 0 0 0 0 0 0 0 117 117 117 116 116 116 114 114 114
112 112 112 111 111 111 0 0 0 0 0 0 0 0 0 0 0 0 0 0 0 101 101 101 100
100 100 98 98 98 97 97 97 0 0 0 0 0 0
0 0 0 0 0 0 0 0 0 0 0 0 0 0 0 0 0 0 0 0 0 0 0 0 0 0 0 0 0 0 0 0 0 0 0
0 0 0 0 207 207 207 207 207 207 208 208 208 208 208 208 208 208 208
208 208 208 208 208 208 209 209 209 209 209 209 208 208 208 208 208
208 208 208 208 208 208 208 208 208 208 0 0 0 0 0 0 0 0 0 0 0 0 0 0 0
0 0 0 0 0 0 0 0 0 0 0 0 0 0 0 0 0 0 199 199 199 198 198 198 197 197
197 195 195 195 194 194 194 193 193 193 191 191 191 190 190 190 188
188 188 187 187 187 0 0 0 0 0 0 0 0 0 0 0 0 0 0 0 0 0 0 0 0 0 0 0 0 0
0 0 169 169 169 167 167 167 165 165 165 163 163 163 161 161 161 159
159 159 157 157 157 155 155 155 0 0 0 0 0 0 0 0 0 0 0 0 0 0 0 0 0 0 0
0 0 139 139 139 137 137 137 135 135 135 133 133 133 131 131 131 129
129 129 0 0 0 0 0 0 0 0 0 0 0 0 0 0 0 0 0 0 117 117 117 115 115 115
114 114 114 112 112 112 110 110 110 0 0 0 0 0 0 0 0 0 0 0 0 0 0 0 101
101 101 100 100 100 98 98 98 97 97 97 0 0 0 0 0 0
0 0 0 0 0 0 0 0 0 0 0 0 0 0 0 0 0 0 0 0 0 0 0 0 0 0 0 0 0 0 0 0 0 0 0
0 0 0 0 205 205 205 206 206 206 206 206 206 206 206 206 206 206 206
206 206 206 207 207 207 207 207 207 207 207 207 207 207 207 206 206
206 206 206 206 206 206 206 206 206 206 0 0 0 0 0 0 0 0 0 0 0 0 0 0 0
0 0 0 0 0 0 0 0 0 0 0 0 0 0 0 0 0 0 197 197 197 196 196 196 195 195
195 194 194 194 192 192 192 191 191 191 190 190 190 188 188 188 187
187 187 185 185 185 0 0 0 0 0 0 0 0 0 0 0 0 0 0 0 0 0 0 0 0 0 0 0 0 0
0 0 167 167 167 165 165 165 164 164 164 162 162 162 160 160 160 158
158 158 156 156 156 154 154 154 0 0 0 0 0 0 0 0 0 0 0 0 0 0 0 0 0 0 0
0 0 138 138 138 136 136 136 134 134 134 133 133 133 131 131 131 129
129 129 0 0 0 0 0 0 0 0 0 0 0 0 0 0 0 0 0 0 117 117 117 115 115 115
113 113 113 112 112 112 110 110 110 0 0 0 0 0 0 0 0 0 0 0 0 0 0 0 101
101 101 99 99 99 98 98 98 96 96 96 0 0 0 0 0 0
0 0 0 0 0 0 0 0 0 0 0 0 0 0 0 0 0 0 0 0 0 0 0 0 0 0 0 0 0 0 0 0 0 0 0
0 0 0 0 203 203 203 204 204 204 204 204 204 204 204 204 204 204 204
205 205 205 205 205 205 205 205 205 205 205 205 205 205 205 205 205
205 204 204 204 204 204 204 204 204 204 0 0 0 0 0 0 0 0 0 0 0 0 0 0 0
0 0 0 0 0 0 0 0 0 0 0 0 0 0 0 0 0 0 195 195 195 194 194 194 193 193
193 192 192 192 191 191 191 189 189 189 188 188 188 187 187 187 185
185 185 184 184 184 0 0 0 0 0 0 0 0 0 0 0 0 0 0 0 0 0 0 0 0 0 0 0 0 0
0 0 166 166 166 164 164 164 162 162 162 161 161 161 159 159 159 157
157 157 155 155 155 153 153 153 0 0 0 0 0 0 0 0 0 0 0 0 0 0 0 0 0 0 0
0 0 138 138 138 136 136 136 134 134 134 132 132 132 130 130 130 128
128 128 0 0 0 0 0 0 0 0 0 0 0 0 0 0 0 0 0 0 116 116 116 114 114 114
113 113 113 111 111 111 110 110 110 0 0 0 0 0 0 0 0 0 0 0 0 0 0 0 100
100 100 99 99 99 98 98 98 96 96 96 0 0 0 0 0 0
0 0 0 0 0 0 0 0 0 0 0 0 0 0 0 0 0 0 0 0 0 0 0 0 0 0 0 0 0 0 0 0 0 0 0
0 0 0 0 202 202 202 202 202 202 202 202 202 202 202 202 203 203 203
203 203 203 203 203 203 203 203 203 203 203 203 203 203 203 203 203
203 202 202 202 202 202 202 202 202 202 0 0 0 0 0 0 0 0 0 0 0 0 0 0 0
0 0 0 0 0 0 0 0 0 0 0 0 0 0 0 0 0 0 194 194 194 193 193 193 191 191
191 190 190 190 189 189 189 188 188 188 186 186 186 185 185 185 184
184 184 182 182 182 0 0 0 0 0 0 0 0 0 0 0 0 0 0 0 0 0 0 0 0 0 0 0 0 0
0 0 165 165 165 163 163 163 161 161 161 159 159 159 158 158 158 156
156 156 154 154 154 152 152 152 0 0 0 0 0 0 0 0 0 0 0 0 0 0 0 0 0 0 0
0 0 137 137 137 135 135 135 133 133 133 131 131 131 129 129 129 128
128 128 0 0 0 0 0 0 0 0 0 0 0 0 0 0 0 0 0 0 116 116 116 114 114 114
112 112 112 111 111 111 109 109 109 0 0 0 0 0 0 0 0 0 0 0 0 101 101
101 100 100 100 99 99 99 97 97 97 96 96 96 0 0 0 0 0 0
0 0 0 0 0 0 0 0 0 0 0 0 0 0 0 0 0 0 0 0 0 0 0 0 0 0 0 0 0 0 0 0 0 0 0
0 0 0 0 200 200 200 200 200 200 200 200 200 201 201 201 201 201 201
201 201 201 201 201 201 201 201 201 201 201 201 201 201 201 201 201
201 200 200 200 200 200 200 200 200 200 0 0 0 0 0 0 0 0 0 0 0 0 0 0 0
0 0 0 0 0 0 0 0 0 0 0 0 0 0 0 0 0 0 192 192 192 191 191 191 190 190
190 189 189 189 187 187 187 186 186 186 185 185 185 183 183 183 182
182 182 180 180 180 0 0 0 0 0 0 0 0 0 0 0 0 0 0 0 0 0 0 0 0 0 0 0 0 0
0 0 164 164 164 162 162 162 160 160 160 158 158 158 157 157 157 155
155 155 153 153 153 151 151 151 0 0 0 0 0 0 0 0 0 0 0 0 0 0 0 0 0 0 0
0 0 136 136 136 134 134 134 132 132 132 131 131 131 129 129 129 127
127 127 0 0 0 0 0 0 0 0 0 0 0 0 0 0 0 0 0 0 115 115 115 113 113 113
112 112 112 110 110 110 109 109 109 0 0 0 0 0 0 0 0 0 0 0 0 101 101
101 100 100 100 98 98 98 97 97 97 95 95 95 0 0 0 0 0 0
0 0 0 0 0 0 0 0 0 0 0 0 0 0 0 0 0 0 0 0 0 0 0 0 0 0 0 0 0 0 0 0 0 0 0
0 0 0 0 0 0 0 198 198 198 198 198 198 199 199 199 199 199 199 199 199
199 199 199 199 199 199 199 199 199 199 199 199 199 199 199 199 199
199 199 198 198 198 198 198 198 0 0 0 0 0 0 0 0 0 0 0 0 0 0 0 0 0 0 0
0 0 0 0 0 0 0 0 0 0 0 0 0 0 133 44 88 183 183 183 183 183 183 134 44
89 186 186 186 184 184 184 183 183 183 182 182 182 180 180 180 179
179 179 0 0 0 0 0 0 0 0 0 0 0 0 0 0 0 0 0 0 0 0 0 0 0 0 0 0 0 163 163
163 161 161 161 159 159 159 157 157 157 155 155 155 154 154 154 152
152 152 150 150 150 0 0 0 0 0 0 0 0 0 0 0 0 0 0 0 0 0 0 0 0 0 135 135
135 133 133 133 132 132 132 130 130 130 128 128 128 126 126 126 0 0 0
0 0 0 0 0 0 0 0 0 0 0 0 0 0 0 115 115 115 113 113 113 111 111 111 110
110 110 108 108 108 0 0 0 0 0 0 0 0 0 0 0 0 101 101 101 99 99 99 98
98 98 96 96 96 95 95 95 0 0 0 0 0 0
0 0 0 0 0 0 0 0 0 0 0 0 0 0 0 0 0 0 0 0 0 0 0 0 0 0 0 0 0 0 0 0 0 0 0
0 0 0 0 0 0 0 196 196 196 197 197 197 197 197 197 197 197 197 197 197
197 197 197 197 197 197 197 197 197 197 197 197 197 197 197 197 197
197 197 196 196 196 196 196 196 0 0 0 0 0 0 0 0 0 0 0 0 0 0 0 0 0 0 0
0 0 117 39 78 136 45 91 143 47 95 196 196 196 200 200 200 151 50 100
151 50 100 199 199 199 196 196 196 142 47 95 181 181 181 123 41 82
179 179 179 177 177 177 0 0 0 0 0 0 0 0 0 0 0 0 0 0 0 0 0 0 0 0 0 0 0
0 0 0 0 161 161 161 160 160 160 158 158 158 156 156 156 154 154 154
153 153 153 151 151 151 149 149 149 0 0 0 0 0 0 0 0 0 0 0 0 0 0 0 0 0
0 0 0 0 135 135 135 133 133 133 131 131 131 129 129 129 127 127 127
126 126 126 0 0 0 0 0 0 0 0 0 0 0 0 0 0 0 116 116 116 114 114 114 112
112 112 111 111 111 109 109 109 108 108 108 0 0 0 0 0 0 0 0 0 0 0 0
100 100 100 99 99 99 97 97 97 96 96 96 0 0 0 0 0 0 0 0 0
0 0 0 0 0 0 0 0 0 0 0 0 0 0 0 0 0 0 0 0 0 0 0 0 0 0 0 0 0 0 0 0 0 0 0
0 0 0 0 0 0 0 195 195 195 195 195 195 195 195 195 195 195 195 195 195
195 195 195 195 195 195 195 195 195 195 195 195 195 195 195 195 195
195 195 195 195 195 194 194 194 0 0 0 0 0 0 0 0 0 0 0 0 0 0 0 0 0 0
129 43 86 184 184 184 191 191 191 147 49 98 150 50 100 202 202 202
203 203 203 152 50 101 151 50 101 199 199 199 146 48 97 142 47 95 182
182 182 128 42 85 112 37 74 0 0 0 0 0 0 0 0 0 0 0 0 0 0 0 0 0 0 0 0 0
0 0 0 0 0 0 160 160 160 158 158 158 157 157 157 155 155 155 153 153
153 151 151 151 150 150 150 148 148 148 0 0 0 0 0 0 0 0 0 0 0 0 0 0 0
0 0 0 0 0 0 134 134 134 132 132 132 130 130 130 128 128 128 127 127
127 125 125 125 0 0 0 0 0 0 0 0 0 0 0 0 0 0 0 115 115 115 114 114 114
112 112 112 110 110 110 109 109 109 0 0 0 0 0 0 0 0 0 0 0 0 0 0 0 100
100 100 99 99 99 97 97 97 96 96 96 0 0 0 0 0 0 0 0 0
0 0 0 0 0 0 0 0 0 0 0 0 0 0 0 0 0 0 0 0 0 0 0 0 0 0 0 0 0 0 0 0 0 0 0
0 0 0 0 0 0 0 193 193 193 193 193 193 193 193 193 193 193 193 193 193
193 193 193 193 193 193 193 193 193 193 193 193 193 193 193 193 193
193 193 193 193 193 192 192 192 0 0 0 0 0 0 0 0 0 0 0 0 150 150 150
126 42 84 134 44 89 140 46 93 192 192 192 196 196 196 149 49 99 150
50 100 201 201 201 201 201 201 150 50 100 148 49 99 195 195 195 142
47 95 184 184 184 177 177 177 124 41 83 112 37 74 0 0 0 0 0 0 0 0 0 0
0 0 0 0 0 0 0 0 0 0 0 0 0 0 159 159 159 157 157 157 156 156 156 154
154 154 152 152 152 150 150 150 149 149 149 147 147 147 0 0 0 0 0 0 0
0 0 0 0 0 0 0 0 0 0 0 0 0 0 133 133 133 131 131 131 129 129 129 128
128 128 126 126 126 124 124 124 0 0 0 0 0 0 0 0 0 0 0 0 0 0 0 115 115
115 113 113 113 111 111 111 110 110 110 108 108 108 0 0 0 0 0 0 0 0 0
0 0 0 0 0 0 100 100 100 98 98 98 97 97 97 95 95 95 0 0 0 0 0 0 0 0 0
0 0 0 0 0 0 0 0 0 0 0 0 0 0 0 0 0 0 0 0 0 0 0 0 0 0 0 0 0 0 0 0 0 0 0
0 0 0 0 0 0 0 191 191 191 191 191 191 191 191 191 191 191 191 191 191
191 191 191 191 191 191 191 191 191 191 191 191 191 191 191 191 191
191 191 191 191 191 190 190 190 0 0 0 0 0 0 0 0 0 142 142 142 159 159
159 170 170 170 133 44 89 138 46 92 141 47 94 192 192 192 194 194 194
147 49 98 147 49 98 196 196 196 146 48 97 145 48 96 191 191 191 187
187 187 136 45 91 176 176 176 126 42 84 157 157 157 105 35 70 0 0 0 0
0 0 0 0 0 0 0 0 0 0 0 0 0 0 0 0 0 158 158 158 156 156 156 154 154 154
153 153 153 151 151 151 149 149 149 148 148 148 146 146 146 0 0 0 0 0
0 0 0 0 0 0 0 0 0 0 0 0 0 134 134 134 132 132 132 130 130 130 129 129
129 127 127 127 125 125 125 124 124 124 0 0 0 0 0 0 0 0 0 0 0 0 0 0 0
114 114 114 112 112 112 111 111 111 109 109 109 108 108 108 0 0 0 0 0
0 0 0 0 0 0 0 0 0 0 99 99 99 98 98 98 96 96 96 95 95 95 0 0 0 0 0 0 0
0 0
0 0 0 0 0 0 0 0 0 0 0 0 0 0 0 0 0 0 0 0 0 0 0 0 0 0 0 0 0 0 0 0 0 0 0
0 0 0 0 0 0 0 189 189 189 189 189 189 189 189 189 190 190 190 190 190
190 190 190 190 190 190 190 190 190 190 189 189 189 189 189 189 189
189 189 189 189 189 189 189 189 0 0 0 0 0 0 96 32 64 111 37 74 119 39
79 168 168 168 174 174 174 135 45 90 138 46 92 187 187 187 189 189
189 142 47 95 143 47 95 190 190 190 189 189 189 141 47 94 139 46 92
182 182 182 133 44 88 172 172 172 165 165 165 117 39 78 145 145 145
127 127 127 0 0 0 0 0 0 0 0 0 0 0 0 0 0 0 0 0 0 156 156 156 155 155
155 153 153 153 152 152 152 150 150 150 148 148 148 147 147 147 145
145 145 0 0 0 0 0 0 0 0 0 0 0 0 0 0 0 0 0 0 133 133 133 131 131 131
130 130 130 128 128 128 126 126 126 125 125 125 123 123 123 0 0 0 0 0
0 0 0 0 0 0 0 0 0 0 113 113 113 112 112 112 110 110 110 109 109 109
107 107 107 0 0 0 0 0 0 0 0 0 0 0 0 0 0 0 99 99 99 97 97 97 96 96 96
95 95 95 0 0 0 0 0 0 0 0 0
0 0 0 0 0 0 0 0 0 0 0 0 0 0 0 0 0 0 0 0 0 0 0 0 0 0 0 0 0 0 0 0 0 0 0
0 0 0 0 0 0 0 187 187 187 188 188 188 188 188 188 188 188 188 188 188
188 188 188 188 188 188 188 188 188 188 188 188 188 187 187 187 187
187 187 187 187 187 187 187 187 0 0 0 82 27 54 100 33 66 110 36 73
117 39 78 163 163 163 169 169 169 174 174 174 133 44 88 135 45 90 182
182 182 183 183 183 145 53 99 147 55 101 183 183 183 135 45 90 134 44
89 175 175 175 128 42 85 125 41 83 160 160 160 114 38 76 143 143 143
97 32 65 109 109 109 0 0 0 0 0 0 0 0 0 0 0 0 0 0 0 155 155 155 154
154 154 152 152 152 150 150 150 149 149 149 147 147 147 145 145 145
144 144 144 0 0 0 0 0 0 0 0 0 0 0 0 0 0 0 0 0 0 132 132 132 130 130
130 129 129 129 127 127 127 126 126 126 124 124 124 122 122 122 0 0 0
0 0 0 0 0 0 0 0 0 0 0 0 113 113 113 111 111 111 110 110 110 108 108
108 107 107 107 0 0 0 0 0 0 0 0 0 0 0 0 0 0 0 98 98 98 97 97 97 96 96
96 94 94 94 0 0 0 0 0 0 0 0 0
0 0 0 0 0 0 0 0 0 0 0 0 0 0 0 0 0 0 0 0 0 0 0 0 0 0 0 0 0 0 0 0 0 0 0
0 0 0 0 0 0 0 186 186 186 186 186 186 186 186 186 186 186 186 186 186
186 186 186 186 186 186 186 186 186 186 186 186 186 186 186 186 185
185 185 185 185 185 185 185 185 0 0 0 116 116 116 132 132 132 107 35
71 113 37 75 118 39 78 162 162 162 166 166 166 127 42 85 129 43 86
174 174 174 176 176 176 169 81 125 178 90 134 176 176 176 173 173 173
128 42 85 168 168 168 164 164 164 119 39 79 154 154 154 110 36 73 104
34 69 128 128 128 113 113 113 78 78 78 0 0 0 0 0 0 0 0 0 0 0 0 154
154 154 152 152 152 151 151 151 149 149 149 148 148 148 146 146 146
144 144 144 143 143 143 0 0 0 0 0 0 0 0 0 0 0 0 0 0 0 0 0 0 131 131
131 130 130 130 128 128 128 126 126 126 125 125 125 123 123 123 122
122 122 0 0 0 0 0 0 0 0 0 0 0 0 0 0 0 112 112 112 111 111 111 109 109
109 108 108 108 106 106 106 0 0 0 0 0 0 0 0 0 0 0 0 0 0 0 98 98 98 96
96 96 95 95 95 94 94 94 0 0 0 0 0 0 0 0 0
0 0 0 0 0 0 0 0 0 0 0 0 0 0 0 0 0 0 0 0 0 0 0 0 0 0 0 0 0 0 0 0 0 0 0
0 0 0 0 0 0 0 184 184 184 184 184 184 184 184 184 184 184 184 184 184
184 184 184 184 184 184 184 184 184 184 184 184 184 184 184 184 184
184 184 183 183 183 183 183 183 93 93 93 115 115 115 127 127 127 137
137 137 108 36 72 112 37 75 155 155 155 159 159 159 121 40 81 123 41
82 165 165 165 166 166 166 126 42 84 126 42 84 166 166 166 164 164
164 122 40 81 120 40 80 156 156 156 114 38 76 147 147 147 140 140 140
99 33 66 123 123 123 83 27 55 68 22 45 0 0 0 0 0 0 0 0 0 0 0 0 153
153 153 151 151 151 150 150 150 148 148 148 146 146 146 145 145 145
143 143 143 0 0 0 0 0 0 0 0 0 0 0 0 0 0 0 0 0 0 0 0 0 130 130 130 129
129 129 127 127 127 126 126 126 124 124 124 122 122 122 0 0 0 0 0 0 0
0 0 0 0 0 0 0 0 0 0 0 112 112 112 110 110 110 109 109 109 107 107 107
106 106 106 0 0 0 0 0 0 0 0 0 0 0 0 0 0 0 97 97 97 96 96 96 95 95 95
93 93 93 0 0 0 0 0 0 0 0 0
0 0 0 0 0 0 0 0 0 0 0 0 0 0 0 0 0 0 0 0 0 0 0 0 0 0 0 0 0 0 0 0 0 0 0
0 0 0 0 0 0 0 182 182 182 182 182 182 182 182 182 182 182 182 182 182
182 182 182 182 182 182 182 182 182 182 182 182 182 182 182 182 182
182 182 181 181 181 181 181 181 70 23 47 110 110 110 121 121 121 130
130 130 102 34 68 106 35 71 110 36 73 150 150 150 153 153 153 116 38
77 117 39 78 158 158 158 158 158 158 118 39 79 117 39 78 155 155 155
115 38 76 113 37 75 148 148 148 107 35 71 104 34 69 133 133 133 94 31
62 117 117 117 79 26 52 90 90 90 0 0 0 0 0 0 0 0 0 0 0 0 151 151 151
150 150 150 148 148 148 147 147 147 145 145 145 144 144 144 142 142
142 0 0 0 0 0 0 0 0 0 0 0 0 0 0 0 0 0 0 0 0 0 130 130 130 128 128 128
126 126 126 125 125 125 123 123 123 122 122 122 0 0 0 0 0 0 0 0 0 0 0
0 0 0 0 0 0 0 111 111 111 110 110 110 108 108 108 107 107 107 105 105
105 0 0 0 0 0 0 0 0 0 0 0 0 0 0 0 97 97 97 96 96 96 94 94 94 93 93 93
0 0 0 0 0 0 0 0 0
0 0 0 0 0 0 0 0 0 0 0 0 0 0 0 0 0 0 0 0 0 0 0 0 0 0 0 0 0 0 0 0 0 0 0
0 0 0 0 0 0 0 181 181 181 181 181 181 181 181 181 181 181 181 181 181
181 181 181 181 181 181 181 180 180 180 180 180 180 180 180 180 180
180 180 180 180 180 47 15 31 67 22 45 78 26 52 114 114 114 122 122
122 96 32 64 100 33 66 103 34 69 141 141 141 144 144 144 109 36 73
110 36 73 148 148 148 149 149 149 111 37 74 110 36 73 146 146 146 108
36 72 106 35 71 139 139 139 135 135 135 97 32 65 124 124 124 88 29 59
109 109 109 74 24 49 85 85 85 47 15 31 0 0 0 0 0 0 0 0 0 150 150 150
149 149 149 147 147 147 146 146 146 144 144 144 143 143 143 141 141
141 0 0 0 0 0 0 0 0 0 0 0 0 0 0 0 0 0 0 0 0 0 129 129 129 127 127 127
126 126 126 124 124 124 122 122 122 121 121 121 0 0 0 0 0 0 0 0 0 0 0
0 0 0 0 0 0 0 110 110 110 109 109 109 107 107 107 106 106 106 105 105
105 0 0 0 0 0 0 0 0 0 0 0 0 98 98 98 96 96 96 95 95 95 94 94 94 93 93
93 0 0 0 0 0 0 0 0 0
0 0 0 0 0 0 0 0 0 0 0 0 0 0 0 0 0 0 0 0 0 0 0 0 0 0 0 0 0 0 0 0 0 0 0
0 0 0 0 0 0 0 179 179 179 179 179 179 179 179 179 179 179 179 179 179
179 179 179 179 179 179 179 179 179 179 179 179 179 178 178 178 178
178 178 178 178 178 47 15 31 63 21 42 72 24 48 106 106 106 113 113
113 119 119 119 93 31 62 96 32 64 132 132 132 134 134 134 102 34 68
103 34 69 139 139 139 139 139 139 104 34 69 103 34 69 137 137 137 135
135 135 99 33 66 129 129 129 125 125 125 91 30 60 115 115 115 82 27
54 76 25 50 91 91 91 59 19 39 45 15 30 0 0 0 0 0 0 0 0 0 149 149 149
147 147 147 146 146 146 144 144 144 143 143 143 141 141 141 140 140
140 0 0 0 0 0 0 0 0 0 0 0 0 0 0 0 0 0 0 0 0 0 128 128 128 126 126 126
125 125 125 123 123 123 122 122 122 120 120 120 0 0 0 0 0 0 0 0 0 0 0
0 0 0 0 0 0 0 110 110 110 108 108 108 107 107 107 105 105 105 104 104
104 0 0 0 0 0 0 0 0 0 0 0 0 97 97 97 96 96 96 95 95 95 93 93 93 92 92
92 0 0 0 0 0 0 0 0 0
0 0 0 0 0 0 0 0 0 0 0 0 0 0 0 0 0 0 0 0 0 0 0 0 0 0 0 0 0 0 0 0 0 0 0
0 0 0 0 0 0 0 177 177 177 177 177 177 177 177 177 177 177 177 177 177
177 177 177 177 177 177 177 177 177 177 177 177 177 177 177 177 176
176 176 176 176 176 44 14 29 57 19 38 66 22 44 97 97 97 104 104 104
110 110 110 86 28 57 89 29 59 122 122 122 125 125 125 95 31 63 96 32
64 129 129 129 129 129 129 96 32 64 96 32 64 127 127 127 125 125 125
92 30 61 119 119 119 116 116 116 83 27 55 106 106 106 100 100 100 69
23 46 83 83 83 53 17 35 40 13 27 0 0 0 0 0 0 0 0 0 148 148 148 146
146 146 145 145 145 143 143 143 142 142 142 140 140 140 139 139 139 0
0 0 0 0 0 0 0 0 0 0 0 0 0 0 0 0 0 0 0 0 127 127 127 125 125 125 124
124 124 122 122 122 121 121 121 119 119 119 0 0 0 0 0 0 0 0 0 0 0 0 0
0 0 0 0 0 109 109 109 108 108 108 106 106 106 105 105 105 104 104 104
0 0 0 0 0 0 0 0 0 0 0 0 97 97 97 96 96 96 94 94 94 93 93 93 0 0 0 0 0
0 0 0 0 0 0 0
0 0 0 0 0 0 0 0 0 0 0 0 0 0 0 0 0 0 0 0 0 0 0 0 0 0 0 0 0 0 0 0 0 0 0
0 0 0 0 0 0 0 175 175 175 176 176 176 176 176 176 176 176 176 176 176
176 175 175 175 175 175 175 175 175 175 175 175 175 175 175 175 175
175 175 174 174 174 38 12 25 51 17 34 59 19 39 66 22 44 95 95 95 101
101 101 79 26 52 82 27 54 112 112 112 115 115 115 87 29 58 88 29 59
89 29 59 119 119 119 89 29 59 88 29 59 116 116 116 115 115 115 84 28
56 82 27 54 106 106 106 76 25 51 96 96 96 90 90 90 62 20 41 74 74 74
47 15 31 46 46 46 197 197 197 197 197 197 143 47 95 175 175 175 108
36 72 144 144 144 142 142 142 141 141 141 139 139 139 138 138 138 0 0
0 0 0 0 0 0 0 0 0 0 0 0 0 0 0 0 0 0 0 126 126 126 125 125 125 123 123
123 122 122 122 120 120 120 119 119 119 0 0 0 0 0 0 0 0 0 0 0 0 0 0 0
0 0 0 109 109 109 107 107 107 106 106 106 104 104 104 103 103 103 0 0
0 0 0 0 0 0 0 0 0 0 96 96 96 95 95 95 94 94 94 92 92 92 0 0 0 0 0 0 0
0 0 0 0 0
0 0 0 0 0 0 0 0 0 0 0 0 0 0 0 0 0 0 0 0 0 0 0 0 0 0 0 0 0 0 0 0 0 0 0
0 0 0 0 0 0 0 0 0 0 174 174 174 174 174 174 174 174 174 174 174 174
174 174 174 174 174 174 174 174 174 173 173 173 173 173 173 173 173
173 173 173 173 32 10 21 44 14 29 52 17 35 59 19 39 85 85 85 91 91 91
71 23 47 74 24 49 76 25 51 104 104 104 106 106 106 80 26 53 81 27 54
108 108 108 108 108 108 80 26 53 106 106 106 104 104 104 76 25 51 74
24 49 96 96 96 68 22 45 86 86 86 80 80 80 55 18 36 64 64 64 40 13 26
37 37 37 203 203 203 202 202 202 147 49 98 138 46 92 165 165 165 100
33 67 141 141 141 140 140 140 138 138 138 137 137 137 0 0 0 0 0 0 0 0
0 0 0 0 0 0 0 0 0 0 0 0 0 125 125 125 124 124 124 122 122 122 121 121
121 119 119 119 118 118 118 0 0 0 0 0 0 0 0 0 0 0 0 0 0 0 0 0 0 108
108 108 106 106 106 105 105 105 104 104 104 102 102 102 0 0 0 0 0 0 0
0 0 0 0 0 96 96 96 95 95 95 93 93 93 92 92 92 24 6 6 95 23 23 95 23
23 94 23 23
0 0 0 0 0 0 0 0 0 0 0 0 0 0 0 0 0 0 0 0 0 0 0 0 0 0 0 0 0 0 0 0 0 0 0
0 0 0 0 0 0 0 0 0 0 172 172 172 172 172 172 172 172 172 172 172 172
172 172 172 172 172 172 172 172 172 172 172 172 171 171 171 171 171
171 171 171 171 24 8 16 36 12 24 45 15 30 51 17 34 75 75 75 80 80 80
63 21 42 66 22 44 68 22 45 94 94 94 96 96 96 72 24 48 73 24 49 98 98
98 97 97 97 72 24 48 96 96 96 94 94 94 68 22 45 66 22 44 85 85 85 61
20 40 57 19 38 70 70 70 47 15 31 54 54 54 32 10 21 27 27 27 148 49 99
197 197 197 191 191 191 135 45 90 164 164 164 141 141 141 100 100 100
138 138 138 137 137 137 136 136 136 0 0 0 0 0 0 0 0 0 0 0 0 0 0 0 0 0
0 0 0 0 124 124 124 123 123 123 121 121 121 120 120 120 118 118 118
117 117 117 0 0 0 0 0 0 0 0 0 0 0 0 0 0 0 0 0 0 107 107 107 106 106
106 105 105 105 103 103 103 0 0 0 0 0 0 106 26 26 105 26 26 104 26 26
104 26 26 103 25 25 103 25 25 25 6 6 25 6 6 25 6 6 25 6 6 25 6 6
0 0 0 0 0 0 0 0 0 0 0 0 0 0 0 0 0 0 0 0 0 0 0 0 0 0 0 0 0 0 0 0 0 0 0
0 0 0 0 0 0 0 0 0 0 171 171 171 171 171 171 171 171 171 171 171 171
170 170 170 170 170 170 170 170 170 170 170 170 170 170 170 170 170
170 169 169 169 19 6 12 28 9 19 36 12 24 43 14 28 64 64 64 69 69 69
55 18 37 58 19 39 60 20 40 83 83 83 85 85 85 64 21 43 65 21 43 87 87
87 87 87 87 64 21 43 85 85 85 83 83 83 60 20 40 58 19 39 74 74 74 52
17 35 49 16 32 59 59 59 39 13 26 43 43 43 24 8 16 25 25 25 19 6 12
151 58 105 179 179 179 127 42 85 116 38 77 135 135 135 78 26 52 137
137 137 136 136 136 135 135 135 0 0 0 0 0 0 0 0 0 0 0 0 0 0 0 0 0 0 0
0 0 123 123 123 122 122 122 120 120 120 119 119 119 118 118 118 116
116 116 0 0 0 0 0 0 0 0 0 0 0 0 0 0 0 116 29 29 28 7 7 28 7 7 28 7 7
28 7 7 28 7 7 28 7 7 27 6 6 27 6 6 27 6 6 109 27 27 109 27 27 108 27
27 108 27 27 107 26 26 26 6 6 26 6 6 26 6 6
0 0 0 0 0 0 0 0 0 0 0 0 0 0 0 0 0 0 0 0 0 0 0 0 0 0 0 0 0 0 0 0 0 0 0
0 0 0 0 0 0 0 0 0 0 169 169 169 169 169 169 169 169 169 169 169 169
169 169 169 169 169 169 169 169 169 168 168 168 168 168 168 168 168
168 168 168 168 19 6 12 19 6 13 28 9 18 34 11 23 53 53 53 58 58 58 47
15 31 50 16 33 52 17 35 72 72 72 74 74 74 56 18 37 57 19 38 76 76 76
76 76 76 56 18 37 74 74 74 72 72 72 52 17 35 50 16 33 63 63 63 44 14
29 40 13 27 48 48 48 30 10 20 31 31 31 19 6 12 19 6 12 19 6 12 127 42
84 164 164 164 155 155 155 106 35 70 122 122 122 70 23 47 36 36 36
135 135 135 133 133 133 0 0 0 0 0 0 0 0 0 0 0 0 0 0 0 0 0 0 0 0 0 122
122 122 121 121 121 120 120 120 118 118 118 31 7 7 31 7 7 31 7 7 31 7
7 123 30 30 123 30 30 122 30 30 121 30 30 121 30 30 120 30 30 120 30
30 119 29 29 118 29 29 29 7 7 29 7 7 29 7 7 116 29 29 115 28 28 114
28 28 114 28 28 113 28 28 112 28 28 112 28 28 27 6 6 27 6 6
0 0 0 0 0 0 0 0 0 0 0 0 0 0 0 0 0 0 0 0 0 0 0 0 0 0 0 0 0 0 0 0 0 0 0
0 0 0 0 0 0 0 0 0 0 167 167 167 167 167 167 167 167 167 167 167 167
167 167 167 167 167 167 167 167 167 167 167 167 166 166 166 166 166
166 166 166 166 19 6 12 19 6 12 19 6 12 25 8 17 41 41 41 47 47 47 38
12 25 41 13 27 44 14 29 61 61 61 62 62 62 48 16 32 48 16 32 65 65 65
64 64 64 48 16 32 62 62 62 61 61 61 44 14 29 41 13 27 52 52 52 35 11
23 32 10 21 36 36 36 21 7 14 25 25 25 19 6 12 19 6 12 19 6 12 113 37
75 145 145 145 136 136 136 92 30 61 104 104 104 58 19 39 28 28 28 134
134 134 132 132 132 0 0 0 0 0 0 0 0 0 0 0 0 136 34 34 135 33 33 135
33 33 134 33 33 134 33 33 33 8 8 33 8 8 33 8 8 32 8 8 32 8 8 32 8 8
32 8 8 32 8 8 32 8 8 31 7 7 126 31 31 126 31 31 31 7 7 31 7 7 31 7 7
30 7 7 30 7 7 30 7 7 30 7 7 30 7 7 29 7 7 119 29 29 118 29 29 117 29
29 117 29 29 116 29 29 115 28 28
0 0 0 0 0 0 0 0 0 0 0 0 0 0 0 0 0 0 0 0 0 0 0 0 0 0 0 0 0 0 0 0 0 0 0
0 0 0 0 0 0 0 0 0 0 166 166 166 166 166 166 166 166 166 166 166 166
166 166 166 165 165 165 165 165 165 165 165 165 165 165 165 165 165
165 164 164 164 164 164 164 19 6 12 19 6 12 19 6 12 29 29 29 35 35 35
30 10 20 32 10 21 35 11 23 49 49 49 51 51 51 39 13 26 39 13 26 53 53
53 53 53 53 39 13 26 51 51 51 49 49 49 35 11 23 33 11 22 40 40 40 27
9 18 30 30 30 25 25 25 19 6 12 25 25 25 19 6 12 25 25 25 19 6 12 19 6
12 123 123 123 114 114 114 75 25 50 82 82 82 41 13 27 25 25 25 36 9 9
36 9 9 36 9 9 35 8 8 143 35 35 142 35 35 142 35 35 141 35 35 141 35
35 140 35 35 139 34 34 139 34 34 138 34 34 137 34 34 137 34 34 34 8 8
33 8 8 135 33 33 134 33 33 133 33 33 133 33 33 132 33 33 131 32 32
130 32 32 130 32 32 129 32 32 32 8 8 32 8 8 31 7 7 31 7 7 31 7 7 31 7
7 31 7 7 30 7 7 30 7 7 30 7 7 30 7 7 120 30 30
0 0 0 0 0 0 0 0 0 0 0 0 0 0 0 0 0 0 0 0 0 0 0 0 0 0 0 0 0 0 0 0 0 0 0
0 0 0 0 0 0 0 0 0 0 164 164 164 164 164 164 164 164 164 164 164 164
164 164 164 164 164 164 164 164 164 163 163 163 163 163 163 163 163
163 163 163 163 162 162 162 19 6 12 19 6 12 19 6 12 25 25 25 25 25 25
20 6 13 23 7 15 26 8 17 37 37 37 39 39 39 30 10 20 31 10 20 41 41 41
41 41 41 30 10 20 39 39 39 37 37 37 26 8 17 23 7 15 28 28 28 19 6 12
25 25 25 25 25 25 19 6 12 25 25 25 25 25 25 25 25 25 19 6 12 19 6 12
97 97 97 88 88 88 56 18 37 56 56 56 20 6 13 37 9 9 37 9 9 37 9 9 37 9
9 37 9 9 37 9 9 37 9 9 36 9 9 36 9 9 146 36 36 145 36 36 145 36 36 36
9 9 36 9 9 35 8 8 35 8 8 35 8 8 35 8 8 35 8 8 34 8 8 139 34 34 138 34
34 137 34 34 136 34 34 136 34 34 135 33 33 134 33 33 133 33 33 133 33
33 132 33 33 131 32 32 130 32 32 32 8 8 32 8 8 32 8 8 31 7 7 31 7 7
31 7 7 31 7 7
0 0 0 0 0 0 0 0 0 0 0 0 0 0 0 0 0 0 0 0 0 0 0 0 0 0 0 0 0 0 0 0 0 0 0
0 0 0 0 0 0 0 0 0 0 163 163 163 163 163 163 163 163 163 163 163 163
162 162 162 162 162 162 162 162 162 162 162 162 162 162 162 161 161
161 161 161 161 161 161 161 25 25 25 19 6 12 25 25 25 25 25 25 25 25
25 19 6 12 19 6 12 19 6 12 25 25 25 27 27 27 21 7 14 21 7 14 29 29 29
21 7 14 21 7 14 26 26 26 25 25 25 19 6 12 25 25 25 25 25 25 19 6 12
25 25 25 19 6 12 25 25 25 19 6 12 19 6 12 25 25 25 19 6 12 19 6 12 68
68 68 59 59 59 33 11 22 25 25 25 19 6 12 39 9 9 39 9 9 38 9 9 38 9 9
38 9 9 38 9 9 153 38 38 153 38 38 152 38 38 151 37 37 151 37 37 150
37 37 37 9 9 37 9 9 37 9 9 36 9 9 36 9 9 36 9 9 36 9 9 36 9 9 36 9 9
35 8 8 35 8 8 35 8 8 140 35 35 140 35 35 139 34 34 138 34 34 137 34
34 136 34 34 136 34 34 135 33 33 134 33 33 133 33 33 133 33 33 132 33
33 32 8 8 32 8 8 32 8 8
0 0 0 0 0 0 0 0 0 0 0 0 0 0 0 0 0 0 0 0 0 0 0 0 0 0 0 0 0 0 0 0 0 0 0
0 0 0 0 0 0 0 0 0 0 161 161 161 161 161 161 161 161 161 161 161 161
161 161 161 161 161 161 161 161 161 160 160 160 160 160 160 160 160
160 160 160 160 159 159 159 25 25 25 25 25 25 25 25 25 25 25 25 25 25
25 19 6 12 19 6 12 25 25 25 25 25 25 19 6 12 19 6 12 25 25 25 25 25
25 19 6 12 19 6 12 25 25 25 25 25 25 19 6 12 25 25 25 25 25 25 19 6
12 25 25 25 19 6 12 25 25 25 19 6 12 25 25 25 19 6 12 19 6 12 19 6 12
34 34 34 19 6 12 19 6 12 25 25 25 20 5 5 5 1 1 5 1 1 40 10 10 160 40
40 159 39 39 159 39 39 158 39 39 158 39 39 157 39 39 156 39 39 156 39
39 155 38 38 154 38 38 153 38 38 153 38 38 152 38 38 37 9 9 37 9 9 37
9 9 37 9 9 37 9 9 36 9 9 36 9 9 36 9 9 36 9 9 36 9 9 35 8 8 35 8 8
142 35 35 141 35 35 140 35 35 139 34 34 139 34 34 138 34 34 137 34 34
136 34 34 135 33 33 134 33 33 134 33 33
0 0 0 0 0 0 0 0 0 0 0 0 0 0 0 0 0 0 0 0 0 0 0 0 0 0 0 0 0 0 0 0 0 0 0
0 0 0 0 0 0 0 0 0 0 160 160 160 160 160 160 160 160 160 159 159 159
159 159 159 159 159 159 159 159 159 159 159 159 159 159 159 158 158
158 158 158 158 25 25 25 25 25 25 0 0 0 25 25 25 25 25 25 25 25 25 19
6 12 19 6 12 25 25 25 25 25 25 19 6 12 19 6 12 25 25 25 25 25 25 19 6
12 19 6 12 25 25 25 25 25 25 19 6 12 25 25 25 19 6 12 19 6 12 25 25
25 19 6 12 25 25 25 5 1 1 19 6 12 19 6 12 19 6 12 25 25 25 25 25 25
19 6 12 25 25 25 5 1 1 5 1 1 5 1 1 5 1 1 41 10 10 41 10 10 41 10 10
40 10 10 163 40 40 162 40 40 161 40 40 161 40 40 160 40 40 159 39 39
159 39 39 158 39 39 157 39 39 157 39 39 156 39 39 155 38 38 154 38 38
38 9 9 38 9 9 38 9 9 37 9 9 37 9 9 37 9 9 37 9 9 37 9 9 36 9 9 36 9 9
36 9 9 36 9 9 36 9 9 143 35 35 142 35 35 141 35 35 140 35 35 139 34
34 139 34 34 34 8 8
0 0 0 0 0 0 0 0 0 0 0 0 0 0 0 0 0 0 0 0 0 0 0 0 0 0 0 0 0 0 0 0 0 0 0
0 0 0 0 0 0 0 0 0 0 158 158 158 158 158 158 158 158 158 158 158 158
158 158 158 158 158 158 158 158 158 157 157 157 157 157 157 157 157
157 156 156 156 20 5 5 20 5 5 5 1 1 5 1 1 25 25 25 19 6 12 19 6 12 19
6 12 25 25 25 25 25 25 19 6 12 19 6 12 25 25 25 25 25 25 19 6 12 19 6
12 25 25 25 19 6 12 19 6 12 25 25 25 19 6 12 25 25 25 19 6 12 25 25
25 20 5 5 20 5 5 20 5 5 20 5 5 20 5 5 19 6 12 19 6 12 5 1 1 5 1 1 5 1
1 5 1 1 5 1 1 42 10 10 42 10 10 42 10 10 42 10 10 42 10 10 41 10 10
41 10 10 41 10 10 165 41 41 164 41 41 164 41 41 163 40 40 162 40 40
161 40 40 161 40 40 160 40 40 159 39 39 158 39 39 158 39 39 157 39 39
156 39 39 155 38 38 38 9 9 38 9 9 38 9 9 38 9 9 37 9 9 37 9 9 37 9 9
37 9 9 37 9 9 36 9 9 36 9 9 145 36 36 144 36 36 143 35 35 35 8 8 35 8
8
156 156 156 0 0 0 0 0 0 0 0 0 0 0 0 0 0 0 0 0 0 0 0 0 0 0 0 0 0 0 0 0
0 0 0 0 0 0 0 0 0 0 0 0 0 157 157 157 157 157 157 157 157 157 157 157
157 171 42 42 171 42 42 172 43 43 173 43 43 173 43 43 174 43 43 20 5
5 20 5 5 20 5 5 20 5 5 5 1 1 5 1 1 19 6 12 19 6 12 194 194 194 25 25
25 25 25 25 19 6 12 19 6 12 25 25 25 25 25 25 19 6 12 25 25 25 25 25
25 19 6 12 25 25 25 25 25 25 19 6 12 25 25 25 19 6 12 20 5 5 20 5 5
20 5 5 20 5 5 20 5 5 20 5 5 20 5 5 20 5 5 176 44 44 44 11 11 43 10 10
43 10 10 43 10 10 43 10 10 43 10 10 43 10 10 43 10 10 42 10 10 42 10
10 42 10 10 42 10 10 42 10 10 42 10 10 41 10 10 167 41 41 166 41 41
165 41 41 164 41 41 164 41 41 163 40 40 162 40 40 161 40 40 161 40 40
160 40 40 159 39 39 158 39 39 157 39 39 156 39 39 39 9 9 38 9 9 38 9
9 38 9 9 152 38 38 151 37 37 150 37 37 150 37 37 149 37 37 148 37 37
147 36 36 146 36 36 145 36 36
155 155 155 0 0 0 0 0 0 0 0 0 0 0 0 0 0 0 0 0 0 0 0 0 0 0 0 0 0 0 0 0
0 0 0 0 42 10 10 42 10 10 42 10 10 43 10 10 173 43 43 173 43 43 174
43 43 175 43 43 175 43 43 176 44 44 176 44 44 177 44 44 20 5 5 20 5 5
20 5 5 20 5 5 20 5 5 20 5 5 177 177 177 192 192 192 149 49 99 151 50
100 199 199 199 145 48 96 134 44 89 25 25 25 25 25 25 19 6 12 19 6 12
25 25 25 19 6 12 19 6 12 25 25 25 19 6 12 25 25 25 19 6 12 20 5 5 20
5 5 20 5 5 20 5 5 20 5 5 20 5 5 20 5 5 20 5 5 20 5 5 180 45 45 179 44
44 179 44 44 178 44 44 44 11 11 44 11 11 44 11 11 44 11 11 44 11 11
43 10 10 43 10 10 43 10 10 43 10 10 43 10 10 43 10 10 42 10 10 42 10
10 42 10 10 42 10 10 168 42 42 167 41 41 166 41 41 166 41 41 165 41
41 164 41 41 163 40 40 162 40 40 162 40 40 161 40 40 160 40 40 39 9 9
39 9 9 39 9 9 39 9 9 156 39 39 155 38 38 154 38 38 153 38 38 152 38
38 151 37 37 150 37 37 150 37 37 149 37 37
153 153 153 0 0 0 0 0 0 0 0 0 0 0 0 42 10 10 42 10 10 42 10 10 42 10
10 42 10 10 43 10 10 43 10 10 43 10 10 43 10 10 43 10 10 43 10 10 176
44 44 177 44 44 177 44 44 178 44 44 179 44 44 179 44 44 180 45 45 180
45 45 20 5 5 20 5 5 20 5 5 20 5 5 20 5 5 118 39 78 130 43 86 182 182
182 187 187 187 141 47 94 187 187 187 182 182 182 130 43 86 157 157
157 19 6 12 19 6 12 25 25 25 25 25 25 19 6 12 25 25 25 25 25 25 25 25
25 20 5 5 20 5 5 20 5 5 20 5 5 20 5 5 20 5 5 20 5 5 20 5 5 20 5 5 20
5 5 183 45 45 183 45 45 182 45 45 182 45 45 182 45 45 181 45 45 181
45 45 45 11 11 44 11 11 44 11 11 44 11 11 44 11 11 44 11 11 44 11 11
44 11 11 43 10 10 43 10 10 43 10 10 43 10 10 43 10 10 42 10 10 42 10
10 42 10 10 169 42 42 168 42 42 167 41 41 166 41 41 41 10 10 41 10 10
41 10 10 40 10 10 40 10 10 40 10 10 40 10 10 40 10 10 39 9 9 39 9 9
39 9 9 156 39 39 155 38 38 155 38 38 154 38 38 153 38 38 152 38 38
167 41 41 42 10 10 42 10 10 42 10 10 42 10 10 42 10 10 43 10 10 43 10
10 43 10 10 43 10 10 43 10 10 44 11 11 44 11 11 44 11 11 44 11 11 44
11 11 44 11 11 180 45 45 181 45 45 181 45 45 182 45 45 182 45 45 183
45 45 184 46 46 184 46 46 5 1 1 5 1 1 5 1 1 126 126 126 110 36 73 119
39 79 165 165 165 169 169 169 157 71 114 127 42 84 165 165 165 118 39
79 109 36 73 122 122 122 25 25 25 25 25 25 19 6 12 25 25 25 20 5 5 20
5 5 20 5 5 20 5 5 20 5 5 20 5 5 20 5 5 20 5 5 20 5 5 20 5 5 20 5 5 20
5 5 186 46 46 186 46 46 186 46 46 185 46 46 185 46 46 184 46 46 184
46 46 183 45 45 183 45 45 182 45 45 182 45 45 45 11 11 45 11 11 45 11
11 44 11 11 44 11 11 44 11 11 44 11 11 44 11 11 44 11 11 43 10 10 43
10 10 43 10 10 43 10 10 172 43 43 171 42 42 170 42 42 42 10 10 42 10
10 42 10 10 41 10 10 41 10 10 41 10 10 41 10 10 41 10 10 40 10 10 40
10 10 40 10 10 40 10 10 39 9 9 39 9 9 39 9 9 39 9 9 156 39 39 155 38
38
170 42 42 42 10 10 43 10 10 43 10 10 43 10 10 43 10 10 43 10 10 44 11
11 44 11 11 44 11 11 44 11 11 44 11 11 45 11 11 45 11 11 45 11 11 45
11 11 45 11 11 45 11 11 183 45 45 46 11 11 46 11 11 46 11 11 46 11 11
46 11 11 46 11 11 46 11 11 47 11 11 5 1 1 114 114 114 97 32 65 105 35
70 109 36 72 149 149 149 112 37 75 111 37 74 145 145 145 138 138 138
95 31 63 110 110 110 20 5 5 20 5 5 20 5 5 20 5 5 20 5 5 20 5 5 20 5 5
20 5 5 20 5 5 20 5 5 20 5 5 20 5 5 20 5 5 20 5 5 190 47 47 189 47 47
189 47 47 189 47 47 188 47 47 188 47 47 187 46 46 187 46 46 186 46 46
186 46 46 185 46 46 185 46 46 184 46 46 184 46 46 183 45 45 45 11 11
45 11 11 45 11 11 45 11 11 45 11 11 44 11 11 178 44 44 178 44 44 177
44 44 176 44 44 175 43 43 174 43 43 174 43 43 173 43 43 172 43 43 171
42 42 170 42 42 42 10 10 42 10 10 42 10 10 41 10 10 41 10 10 41 10 10
41 10 10 41 10 10 40 10 10 40 10 10 40 10 10 40 10 10 39 9 9 39 9 9
39 9 9
173 43 43 43 10 10 43 10 10 44 11 11 44 11 11 44 11 11 44 11 11 44 11
11 44 11 11 45 11 11 45 11 11 45 11 11 45 11 11 183 45 45 184 46 46
184 46 46 185 46 46 185 46 46 46 11 11 46 11 11 46 11 11 47 11 11 47
11 11 47 11 11 47 11 11 47 11 11 47 11 11 69 69 69 96 96 96 109 109
109 88 29 59 92 30 61 126 126 126 127 127 127 94 31 63 122 122 122
116 116 116 79 26 53 90 90 90 20 5 5 20 5 5 20 5 5 20 5 5 20 5 5 20 5
5 20 5 5 20 5 5 20 5 5 20 5 5 20 5 5 193 48 48 192 48 48 192 48 48
192 48 48 192 48 48 191 47 47 191 47 47 190 47 47 190 47 47 190 47 47
189 47 47 189 47 47 188 47 47 188 47 47 187 46 46 186 46 46 186 46 46
185 46 46 185 46 46 184 46 46 183 45 45 183 45 45 182 45 45 181 45 45
181 45 45 180 45 45 179 44 44 178 44 44 178 44 44 177 44 44 176 44 44
175 43 43 175 43 43 174 43 43 173 43 43 172 43 43 171 42 42 170 42 42
42 10 10 42 10 10 42 10 10 41 10 10 41 10 10 41 10 10 41 10 10 41 10
10 40 10 10 40 10 10 40 10 10 160 40 40
176 44 44 44 11 11 44 11 11 44 11 11 44 11 11 45 11 11 45 11 11 181
45 45 182 45 45 183 45 45 183 45 45 184 46 46 185 46 46 185 46 46 186
46 46 187 46 46 187 46 46 188 47 47 188 47 47 47 11 11 47 11 11 47 11
11 47 11 11 47 11 11 47 11 11 48 12 12 48 12 12 50 50 50 73 73 73 86
86 86 71 23 47 74 24 49 102 102 102 103 103 103 76 25 50 73 24 49 91
91 91 61 20 40 66 66 66 21 7 14 20 5 5 20 5 5 20 5 5 20 5 5 195 48 48
195 48 48 195 48 48 195 48 48 195 48 48 195 48 48 195 48 48 194 48 48
194 48 48 194 48 48 193 48 48 193 48 48 193 48 48 192 48 48 192 48 48
192 48 48 191 47 47 191 47 47 190 47 47 190 47 47 189 47 47 188 47 47
47 11 11 46 11 11 46 11 11 46 11 11 46 11 11 46 11 11 46 11 11 183 45
45 183 45 45 182 45 45 181 45 45 181 45 45 180 45 45 179 44 44 178 44
44 178 44 44 177 44 44 176 44 44 175 43 43 174 43 43 174 43 43 173 43
43 172 43 43 171 42 42 170 42 42 42 10 10 42 10 10 42 10 10 41 10 10
41 10 10 165 41 41 164 41 41 164 41 41 163 40 40
178 44 44 179 44 44 180 45 45 180 45 45 181 45 45 182 45 45 183 45 45
183 45 45 184 46 46 185 46 46 185 46 46 186 46 46 187 46 46 187 46 46
188 47 47 189 47 47 189 47 47 190 47 47 190 47 47 191 47 47 47 11 11
48 12 12 48 12 12 48 12 12 48 12 12 48 12 12 48 12 12 25 25 25 48 48
48 61 61 61 52 17 34 55 18 37 77 77 77 77 77 77 57 19 38 54 18 36 65
65 65 41 13 27 39 39 39 197 49 49 197 49 49 197 49 49 197 49 49 197
49 49 197 49 49 197 49 49 197 49 49 197 49 49 197 49 49 196 49 49 196
49 49 196 49 49 196 49 49 195 48 48 195 48 48 195 48 48 194 48 48 194
48 48 194 48 48 193 48 48 193 48 48 192 48 48 48 12 12 47 11 11 47 11
11 47 11 11 47 11 11 47 11 11 47 11 11 47 11 11 46 11 11 46 11 11 46
11 11 46 11 11 46 11 11 184 46 46 183 45 45 182 45 45 182 45 45 181
45 45 180 45 45 179 44 44 179 44 44 178 44 44 177 44 44 176 44 44 176
44 44 175 43 43 174 43 43 173 43 43 172 43 43 172 43 43 171 42 42 42
10 10 169 42 42 168 42 42 167 41 41 167 41 41 166 41 41 165 41 41
45 11 11 181 45 45 182 45 45 183 45 45 183 45 45 184 46 46 185 46 46
185 46 46 186 46 46 187 46 46 187 46 46 188 47 47 189 47 47 189 47 47
190 47 47 190 47 47 191 47 47 192 48 48 192 48 48 193 48 48 48 12 12
48 12 12 48 12 12 48 12 12 48 12 12 48 12 12 49 12 12 25 25 25 25 25
25 33 33 33 31 10 21 35 11 23 49 49 49 50 50 50 36 12 24 33 11 22 37
37 37 19 6 13 25 25 25 198 49 49 199 49 49 199 49 49 199 49 49 198 49
49 198 49 49 198 49 49 198 49 49 198 49 49 198 49 49 198 49 49 198 49
49 197 49 49 197 49 49 197 49 49 196 49 49 196 49 49 196 49 49 195 48
48 48 12 12 48 12 12 48 12 12 48 12 12 48 12 12 48 12 12 48 12 12 48
12 12 47 11 11 47 11 11 47 11 11 47 11 11 47 11 11 47 11 11 47 11 11
46 11 11 46 11 11 46 11 11 46 11 11 46 11 11 183 45 45 183 45 45 182
45 45 181 45 45 180 45 45 180 45 45 179 44 44 178 44 44 177 44 44 177
44 44 176 44 44 175 43 43 43 10 10 43 10 10 43 10 10 43 10 10 42 10
10 42 10 10 42 10 10 169 42 42 168 42 42 167 41 41
45 11 11 45 11 11 184 46 46 184 46 46 185 46 46 186 46 46 187 46 46
187 46 46 188 47 47 188 47 47 189 47 47 190 47 47 190 47 47 191 47 47
192 48 48 192 48 48 193 48 48 193 48 48 194 48 48 194 48 48 195 48 48
48 12 12 49 12 12 49 12 12 49 12 12 49 12 12 49 12 12 49 12 12 25 25
25 25 25 25 19 6 12 19 6 12 25 25 25 25 25 25 19 6 12 19 6 12 25 25
25 19 6 12 25 25 25 50 12 12 50 12 12 200 50 50 200 50 50 200 50 50
200 50 50 200 50 50 199 49 49 199 49 49 199 49 49 199 49 49 199 49 49
198 49 49 198 49 49 198 49 49 49 12 12 49 12 12 49 12 12 49 12 12 49
12 12 49 12 12 48 12 12 48 12 12 48 12 12 48 12 12 48 12 12 48 12 12
48 12 12 48 12 12 47 11 11 47 11 11 47 11 11 47 11 11 47 11 11 47 11
11 47 11 11 46 11 11 46 11 11 46 11 11 46 11 11 46 11 11 184 46 46
183 45 45 182 45 45 181 45 45 181 45 45 180 45 45 179 44 44 44 11 11
44 11 11 44 11 11 44 11 11 43 10 10 43 10 10 43 10 10 43 10 10 43 10
10 42 10 10 42 10 10 42 10 10 42 10 10
46 11 11 46 11 11 185 46 46 186 46 46 187 46 46 187 46 46 188 47 47
189 47 47 189 47 47 190 47 47 191 47 47 191 47 47 192 48 48 192 48 48
193 48 48 193 48 48 194 48 48 195 48 48 195 48 48 195 48 48 196 49 49
196 49 49 49 12 12 49 12 12 49 12 12 49 12 12 49 12 12 49 12 12 25 25
25 25 25 25 19 6 12 19 6 12 25 25 25 25 25 25 19 6 12 19 6 12 25 25
25 19 6 12 5 1 1 50 12 12 50 12 12 50 12 12 201 50 50 201 50 50 201
50 50 200 50 50 200 50 50 200 50 50 200 50 50 200 50 50 50 12 12 49
12 12 49 12 12 49 12 12 49 12 12 49 12 12 49 12 12 49 12 12 49 12 12
49 12 12 49 12 12 49 12 12 49 12 12 48 12 12 48 12 12 48 12 12 48 12
12 48 12 12 48 12 12 48 12 12 47 11 11 47 11 11 47 11 11 47 11 11 47
11 11 47 11 11 47 11 11 46 11 11 46 11 11 46 11 11 46 11 11 46 11 11
183 45 45 45 11 11 45 11 11 45 11 11 45 11 11 45 11 11 44 11 11 44 11
11 44 11 11 44 11 11 44 11 11 43 10 10 43 10 10 43 10 10 43 10 10 43
10 10 42 10 10 42 10 10
46 11 11 46 11 11 187 46 46 188 47 47 188 47 47 189 47 47 190 47 47
190 47 47 191 47 47 191 47 47 192 48 48 193 48 48 193 48 48 194 48 48
194 48 48 195 48 48 195 48 48 196 49 49 196 49 49 197 49 49 197 49 49
197 49 49 49 12 12 49 12 12 49 12 12 49 12 12 49 12 12 5 1 1 5 1 1 25
25 25 19 6 12 19 6 12 25 25 25 25 25 25 19 6 12 25 25 25 25 25 25 5 1
1 5 1 1 5 1 1 50 12 12 50 12 12 50 12 12 201 50 50 201 50 50 201 50
50 50 12 12 50 12 12 50 12 12 50 12 12 50 12 12 50 12 12 50 12 12 50
12 12 49 12 12 49 12 12 49 12 12 49 12 12 49 12 12 49 12 12 49 12 12
49 12 12 49 12 12 49 12 12 49 12 12 48 12 12 48 12 12 48 12 12 48 12
12 48 12 12 48 12 12 48 12 12 47 11 11 47 11 11 47 11 11 47 11 11 47
11 11 47 11 11 46 11 11 46 11 11 186 46 46 185 46 46 185 46 46 184 46
46 183 45 45 45 11 11 45 11 11 45 11 11 45 11 11 45 11 11 44 11 11 44
11 11 44 11 11 44 11 11 44 11 11 43 10 10 43 10 10 43 10 10 43 10 10
43 10 10
46 11 11 47 11 11 188 47 47 189 47 47 190 47 47 190 47 47 191 47 47
191 47 47 192 48 48 193 48 48 193 48 48 194 48 48 194 48 48 195 48 48
195 48 48 196 49 49 196 49 49 197 49 49 197 49 49 198 49 49 198 49 49
198 49 49 199 49 49 49 12 12 49 12 12 50 12 12 50 12 12 5 1 1 5 1 1 5
1 1 5 1 1 19 6 12 25 25 25 19 6 12 19 6 12 5 1 1 5 1 1 5 1 1 5 1 1 50
12 12 50 12 12 50 12 12 202 50 50 202 50 50 50 12 12 50 12 12 50 12
12 50 12 12 50 12 12 50 12 12 50 12 12 50 12 12 50 12 12 50 12 12 50
12 12 50 12 12 49 12 12 49 12 12 49 12 12 49 12 12 49 12 12 49 12 12
49 12 12 49 12 12 49 12 12 49 12 12 48 12 12 48 12 12 48 12 12 48 12
12 48 12 12 48 12 12 48 12 12 48 12 12 47 11 11 47 11 11 47 11 11 189
47 47 188 47 47 188 47 47 187 46 46 186 46 46 186 46 46 185 46 46 184
46 46 184 46 46 183 45 45 45 11 11 45 11 11 45 11 11 45 11 11 44 11
11 44 11 11 44 11 11 44 11 11 44 11 11 44 11 11 43 10 10 43 10 10 43
10 10
47 11 11 47 11 11 190 47 47 190 47 47 191 47 47 191 47 47 192 48 48
192 48 48 193 48 48 194 48 48 194 48 48 195 48 48 195 48 48 196 49 49
196 49 49 197 49 49 197 49 49 198 49 49 198 49 49 198 49 49 199 49 49
199 49 49 199 49 49 200 50 50 50 12 12 50 12 12 50 12 12 5 1 1 5 1 1
5 1 1 5 1 1 5 1 1 5 1 1 5 1 1 5 1 1 5 1 1 5 1 1 20 5 5 203 50 50 203
50 50 203 50 50 203 50 50 203 50 50 203 50 50 202 50 50 202 50 50 50
12 12 50 12 12 50 12 12 50 12 12 50 12 12 50 12 12 50 12 12 50 12 12
50 12 12 50 12 12 50 12 12 50 12 12 49 12 12 49 12 12 49 12 12 49 12
12 49 12 12 49 12 12 49 12 12 49 12 12 49 12 12 48 12 12 48 12 12 48
12 12 48 12 12 48 12 12 48 12 12 48 12 12 192 48 48 191 47 47 191 47
47 190 47 47 189 47 47 189 47 47 188 47 47 187 46 46 187 46 46 186 46
46 185 46 46 185 46 46 184 46 46 183 45 45 183 45 45 182 45 45 45 11
11 45 11 11 45 11 11 44 11 11 44 11 11 44 11 11 44 11 11 44 11 11 43
10 10 43 10 10
47 11 11 47 11 11 191 47 47 191 47 47 192 48 48 192 48 48 193 48 48
193 48 48 194 48 48 194 48 48 195 48 48 195 48 48 196 49 49 196 49 49
197 49 49 197 49 49 198 49 49 198 49 49 199 49 49 199 49 49 199 49 49
200 50 50 200 50 50 200 50 50 201 50 50 50 12 12 50 12 12 50 12 12 50
12 12 5 1 1 5 1 1 5 1 1 5 1 1 20 5 5 20 5 5 203 50 50 203 50 50 203
50 50 203 50 50 203 50 50 203 50 50 203 50 50 203 50 50 203 50 50 203
50 50 203 50 50 203 50 50 50 12 12 50 12 12 50 12 12 50 12 12 50 12
12 50 12 12 50 12 12 50 12 12 50 12 12 50 12 12 50 12 12 50 12 12 49
12 12 49 12 12 49 12 12 49 12 12 49 12 12 49 12 12 49 12 12 49 12 12
49 12 12 49 12 12 48 12 12 48 12 12 194 48 48 193 48 48 193 48 48 192
48 48 192 48 48 191 47 47 191 47 47 190 47 47 189 47 47 189 47 47 188
47 47 188 47 47 187 46 46 186 46 46 186 46 46 185 46 46 184 46 46 184
46 46 183 45 45 182 45 45 182 45 45 45 11 11 45 11 11 44 11 11 44 11
11 44 11 11 44 11 11 44 11 11 44 11 11
