P3
50 25
255
61 54 54 61 55 55 62 56 56 62 56 56 63 57 57 64 58 58 65 58 58 66 59
59 67 60 60 68 61 61 69 62 62 70 63 63 71 63 63 71 64 64 72 65 65 72
65 65 72 65 65 71 64 64 69 62 62 67 60 60 64 58 58 61 55 55 57 51 51
53 48 48 50 45 45 25 22 22 25 22 22 25 22 22 25 22 22 25 22 22 25 22
22 25 22 22 25 22 22 25 22 22 25 22 22 25 22 22 25 22 22 25 22 22 25
22 22 25 22 22 25 22 22 25 22 22 25 22 22 25 22 22 25 22 22 25 22 22
25 22 22 25 22 22 25 22 22 25 22 22
61 55 55 62 56 56 63 56 56 63 57 57 64 58 58 65 59 59 66 59 59 67 60
60 68 61 61 69 62 62 71 63 63 72 64 64 73 65 65 74 66 66 74 67 67 74
67 67 74 66 66 73 65 65 71 63 63 68 61 61 64 58 58 60 54 54 56 51 51
52 47 47 48 44 44 25 22 22 25 22 22 25 22 22 25 22 22 25 22 22 25 22
22 25 22 22 25 22 22 25 22 22 25 22 22 25 22 22 25 22 22 25 22 22 25
22 22 25 22 22 25 22 22 25 22 22 25 22 22 25 22 22 25 22 22 25 22 22
25 22 22 25 22 22 25 22 22 25 22 22
62 56 56 63 56 56 64 57 57 64 58 58 65 59 59 66 60 60 68 61 61 69 62
62 70 63 63 71 64 64 73 65 65 74 67 67 75 68 68 76 69 69 77 69 69 77
69 69 76 69 69 75 67 67 72 65 65 68 61 61 64 58 58 60 54 54 55 50 50
51 46 46 47 42 42 25 22 22 25 22 22 25 22 22 25 22 22 25 22 22 25 22
22 25 22 22 25 22 22 25 22 22 25 22 22 25 22 22 25 22 22 25 22 22 25
22 22 25 22 22 25 22 22 25 22 22 25 22 22 25 22 22 25 22 22 25 22 22
25 22 22 25 22 22 25 22 22 25 22 22
63 57 57 64 57 57 65 58 58 66 59 59 67 60 60 68 61 61 69 62 62 71 63
63 72 65 65 74 66 66 75 68 68 77 69 69 78 70 70 79 71 71 80 72 72 80
72 72 79 71 71 76 69 69 73 65 65 68 61 61 64 57 57 59 53 53 54 48 48
50 45 45 46 41 41 25 22 22 25 22 22 25 22 22 25 22 22 25 22 22 25 22
22 25 22 22 25 22 22 25 22 22 25 22 22 25 22 22 25 22 22 25 22 22 25
22 22 25 22 22 25 22 22 25 22 22 25 22 22 25 22 22 25 22 22 25 22 22
25 22 22 25 22 22 25 22 22 25 22 22
64 57 57 65 58 58 66 59 59 67 60 60 68 61 61 69 62 62 71 64 64 73 65
65 74 67 67 76 68 68 78 70 70 80 72 72 82 74 74 83 75 75 84 75 75 83
75 75 81 73 73 78 70 70 73 66 66 68 61 61 63 56 56 57 51 51 52 47 47
48 43 43 25 22 22 25 22 22 25 22 22 25 22 22 25 22 22 25 22 22 25 22
22 25 22 22 25 22 22 25 22 22 25 22 22 25 22 22 25 22 22 25 22 22 25
22 22 25 22 22 25 22 22 25 22 22 25 22 22 25 22 22 25 22 22 25 22 22
25 22 22 25 22 22 25 22 22 25 22 22
65 58 58 66 59 59 67 60 60 68 61 61 70 63 63 71 64 64 73 66 66 75 67
67 77 69 69 79 71 71 81 73 73 84 75 75 86 77 77 87 79 79 88 79 79 87
78 78 84 75 75 79 71 71 73 66 66 67 60 60 61 55 55 56 50 50 51 46 46
25 22 22 25 22 22 25 25 25 25 25 25 25 25 25 25 25 25 199 199 199 197
197 197 194 194 194 191 191 191 188 188 188 185 185 185 183 183 183
180 180 180 177 177 177 174 174 174 171 171 171 168 168 168 165 165
165 162 162 162 160 160 160 157 157 157 154 154 154 152 152 152 149
149 149 147 147 147 144 144 144
66 59 59 67 60 60 68 61 61 70 63 63 71 64 64 73 66 66 75 68 68 77 70
70 80 72 72 83 74 74 86 77 77 88 79 79 91 82 82 92 83 83 92 83 83 90
81 81 86 77 77 80 72 72 73 65 65 66 59 59 59 53 53 54 48 48 7 73 36 5
58 29 2 28 14 2 25 12 25 25 25 25 25 25 25 25 25 25 25 25 25 25 25
197 197 197 194 194 194 191 191 191 188 188 188 185 185 185 182 182
182 179 179 179 176 176 176 173 173 173 170 170 170 167 167 167 164
164 164 161 161 161 159 159 159 156 156 156 153 153 153 151 151 151
148 148 148 146 146 146
67 60 60 68 61 61 70 63 63 71 64 64 73 66 66 75 68 68 78 70 70 81 72
72 84 75 75 87 78 78 90 81 81 94 84 84 97 87 87 98 88 88 97 88 88 93
84 84 87 78 78 79 71 71 71 64 64 64 57 57 57 51 51 52 46 46 11 119 59
10 104 52 7 78 39 3 39 19 25 25 25 25 25 25 25 25 25 12 25 2 25 25 25
25 25 25 25 25 25 194 194 194 191 191 191 188 188 188 185 185 185 181
181 181 178 178 178 175 175 175 172 172 172 169 169 169 166 166 166
163 163 163 160 160 160 157 157 157 155 155 155 152 152 152 149 149
149 147 147 147
68 61 61 70 63 63 71 64 64 73 66 66 75 68 68 78 70 70 81 73 73 84 76
76 88 79 79 92 83 83 97 87 87 101 91 91 104 94 94 105 94 94 102 92 92
96 86 86 87 78 78 78 70 70 69 62 62 61 55 55 55 49 49 15 159 79 15
152 76 13 136 68 11 111 55 7 75 37 2 25 12 12 25 2 75 151 15 68 137
13 40 81 8 25 25 25 25 25 25 197 197 197 194 194 194 190 190 190 187
187 187 184 184 184 180 180 180 177 177 177 174 174 174 171 171 171
168 168 168 165 165 165 162 162 162 159 159 159 156 156 156 153 153
153 151 151 151 148 148 148
70 63 63 71 64 64 73 66 66 75 68 68 78 70 70 81 73 73 84 76 76 88 80
80 93 84 84 98 89 89 104 94 94 109 98 98 113 102 102 112 101 101 107
96 96 97 87 87 86 77 77 75 68 68 66 59 59 58 53 53 18 180 90 18 183
91 17 176 88 15 159 79 13 133 66 9 98 49 4 48 24 12 25 2 98 196 19 89
179 17 62 125 12 12 25 2 25 25 25 199 199 199 196 196 196 193 193 193
189 189 189 186 186 186 182 182 182 179 179 179 176 176 176 172 172
172 169 169 169 166 166 166 163 163 163 160 160 160 157 157 157 155
155 155 152 152 152 149 149 149
71 64 64 73 66 66 75 68 68 78 70 70 81 73 73 84 76 76 89 80 80 94 84
84 100 90 90 106 96 96 114 102 102 120 108 108 123 111 111 119 107
107 109 98 98 96 86 86 83 75 75 72 65 65 63 56 56 56 50 50 19 195 97
19 198 99 19 190 95 17 173 86 14 147 73 11 111 55 6 60 30 12 25 2 99
199 19 91 183 18 62 125 12 25 25 25 205 205 205 202 202 202 198 198
198 195 195 195 191 191 191 188 188 188 184 184 184 181 181 181 177
177 177 174 174 174 171 171 171 168 168 168 165 165 165 162 162 162
159 159 159 156 156 156 153 153 153 150 150 150
73 65 65 75 67 67 77 70 70 80 72 72 84 76 76 88 79 79 94 84 84 100 90
90 108 97 97 117 105 105 127 114 114 134 121 121 134 121 121 125 112
112 109 98 98 93 83 83 79 71 71 68 61 61 59 53 53 18 180 90 19 199 99
20 203 101 19 195 97 17 178 89 15 151 75 11 113 56 5 58 29 25 25 25
65 130 13 65 131 13 14 28 2 211 211 211 208 208 208 204 204 204 200
200 200 197 197 197 193 193 193 189 189 189 186 186 186 182 182 182
179 179 179 175 175 175 172 172 172 169 169 169 166 166 166 163 163
163 160 160 160 157 157 157 154 154 154 151 151 151
74 67 67 77 69 69 80 72 72 83 75 75 88 79 79 93 84 84 100 90 90 108
97 97 118 107 107 131 118 118 144 129 129 151 136 136 144 130 130 126
113 113 105 94 94 87 79 79 74 67 67 64 57 57 56 50 50 16 164 82 19
190 95 19 196 98 18 189 94 17 171 85 14 143 71 10 101 50 3 32 16 25
25 25 224 224 224 221 221 221 217 217 217 214 214 214 210 210 210 206
206 206 202 202 202 199 199 199 195 195 195 191 191 191 187 187 187
184 184 184 180 180 180 177 177 177 173 173 173 170 170 170 167 167
167 164 164 164 161 161 161 158 158 158 155 155 155 152 152 152
76 69 69 79 71 71 83 74 74 87 78 78 92 83 83 99 89 89 107 96 96 118
106 106 133 119 119 150 135 135 166 149 149 167 151 151 148 133 133
121 109 109 98 88 88 81 73 73 69 62 62 60 54 54 52 47 47 10 106 53 16
160 80 17 172 86 16 168 84 15 150 75 11 118 59 6 65 32 25 25 25 230
230 230 226 226 226 223 223 223 219 219 219 216 216 216 212 212 212
208 208 208 204 204 204 200 200 200 196 196 196 193 193 193 189 189
189 185 185 185 182 182 182 178 178 178 175 175 175 171 171 171 168
168 168 165 165 165 162 162 162 159 159 159 156 156 156 153 153 153
79 71 71 82 74 74 86 77 77 91 82 82 97 88 88 106 95 95 117 105 105
132 119 119 152 137 137 177 159 159 192 173 173 177 159 159 142 128
128 112 101 101 90 81 81 75 67 67 64 57 57 56 50 50 49 44 44 248 248
248 247 247 247 11 111 55 11 116 58 9 95 47 241 241 241 238 238 238
235 235 235 232 232 232 228 228 228 225 225 225 221 221 221 217 217
217 213 213 213 210 210 210 206 206 206 202 202 202 198 198 198 194
194 194 190 190 190 186 186 186 183 183 183 179 179 179 176 176 176
172 172 172 169 169 169 166 166 166 163 163 163 160 160 160 157 157
157 154 154 154
81 73 73 85 76 76 90 81 81 96 86 86 103 93 93 114 103 103 129 116 116
150 135 135 180 162 162 212 191 191 212 190 190 170 153 153 129 116
116 101 90 90 82 73 73 69 62 62 59 53 53 52 47 47 162 129 16 58 46 5
250 250 250 249 249 249 247 247 247 245 245 245 243 243 243 240 240
240 237 237 237 234 234 234 230 230 230 226 226 226 223 223 223 219
219 219 215 215 215 211 211 211 207 207 207 203 203 203 199 199 199
195 195 195 191 191 191 187 187 187 184 184 184 180 180 180 177 177
177 173 173 173 170 170 170 167 167 167 163 163 163 160 160 160 157
157 157 155 155 155
84 75 75 88 79 79 94 84 84 101 91 91 111 100 100 124 112 112 144 130
130 174 157 157 216 194 194 242 218 218 204 184 184 150 135 135 113
102 102 90 81 81 74 66 66 63 57 57 55 49 49 49 44 44 197 157 19 109
87 10 254 254 254 252 252 252 249 249 249 247 247 247 244 244 244 241
241 241 238 238 238 235 235 235 231 231 231 228 228 228 224 224 224
220 220 220 216 216 216 212 212 212 208 208 208 204 204 204 200 200
200 196 196 196 192 192 192 188 188 188 185 185 185 181 181 181 177
177 177 174 174 174 170 170 170 167 167 167 164 164 164 161 161 161
158 158 158 155 155 155
86 78 78 92 82 82 98 88 88 107 96 96 119 107 107 137 123 123 164 147
147 204 184 184 249 224 224 235 212 212 174 157 157 127 115 115 98 89
89 80 72 72 67 60 60 58 52 52 51 46 46 46 41 41 122 98 12 255 255 255
255 255 255 255 255 255 255 255 255 248 248 248 245 245 245 242 242
242 239 239 239 236 236 236 232 232 232 229 229 229 225 225 225 221
221 221 217 217 217 213 213 213 209 209 209 205 205 205 201 201 201
197 197 197 193 193 193 189 189 189 185 185 185 181 181 181 178 178
178 174 174 174 171 171 171 168 168 168 165 165 165 162 162 162 159
159 159 156 156 156
89 80 80 95 86 86 103 93 93 114 102 102 129 116 116 151 136 136 185
166 166 230 207 207 244 220 220 194 175 175 142 128 128 108 97 97 86
77 77 72 64 64 61 55 55 54 48 48 48 43 43 255 255 255 255 255 255 255
255 255 255 255 255 255 255 255 255 255 255 252 252 252 246 246 246
243 243 243 240 240 240 237 237 237 233 233 233 229 229 229 225 225
225 221 221 221 217 217 217 213 213 213 209 209 209 205 205 205 201
201 201 197 197 197 193 193 193 189 189 189 186 186 186 182 182 182
178 178 178 175 175 175 172 172 172 168 168 168 165 165 165 162 162
162 159 159 159 156 156 156
93 83 83 100 90 90 109 98 98 121 109 109 139 125 125 165 149 149 201
180 180 227 204 204 202 182 182 154 138 138 117 105 105 92 83 83 76
68 68 65 58 58 56 51 51 50 45 45 254 254 254 255 255 255 255 255 255
255 255 255 255 255 255 255 255 255 255 255 255 254 254 254 246 246
246 243 243 243 240 240 240 237 237 237 233 233 233 230 230 230 226
226 226 222 222 222 218 218 218 214 214 214 210 210 210 206 206 206
201 201 201 197 197 197 194 194 194 190 190 190 186 186 186 182 182
182 179 179 179 175 175 175 172 172 172 169 169 169 165 165 165 162
162 162 159 159 159 156 156 156
96 86 86 104 93 93 114 103 103 128 116 116 148 133 133 174 157 157
198 178 178 194 175 175 160 144 144 124 112 112 98 89 89 81 73 73 68
61 61 59 53 53 52 47 47 47 42 42 253 253 253 255 255 255 255 255 255
255 255 255 255 255 255 255 255 255 255 255 255 252 252 252 246 246
246 243 243 243 240 240 240 237 237 237 233 233 233 230 230 230 226
226 226 222 222 222 218 218 218 214 214 214 210 210 210 206 206 206
202 202 202 198 198 198 194 194 194 190 190 190 186 186 186 182 182
182 179 179 179 175 175 175 172 172 172 169 169 169 166 166 166 162
162 162 160 160 160 157 157 157
99 89 89 108 97 97 119 107 107 134 121 121 153 138 138 172 155 155
177 159 159 157 142 142 128 115 115 103 93 93 85 76 76 72 64 64 62 55
55 54 49 49 48 43 43 252 252 252 253 253 253 254 254 254 255 255 255
255 255 255 255 255 255 255 255 255 255 255 255 249 249 249 245 245
245 243 243 243 240 240 240 236 236 236 233 233 233 229 229 229 225
225 225 221 221 221 217 217 217 213 213 213 209 209 209 205 205 205
201 201 201 198 198 198 194 194 194 190 190 190 186 186 186 182 182
182 179 179 179 175 175 175 172 172 172 169 169 169 166 166 166 163
163 163 160 160 160 157 157 157
102 92 92 112 100 100 123 111 111 137 123 123 151 136 136 158 142 142
149 134 134 129 116 116 107 96 96 88 80 80 75 67 67 64 58 58 65 59 59
66 59 59 66 60 60 67 60 60 67 60 60 67 60 60 66 60 60 66 59 59 65 59
59 65 58 58 64 58 58 63 57 57 62 56 56 61 55 55 60 54 54 59 53 53 58
52 52 57 51 51 56 50 50 55 50 50 54 49 49 53 48 48 52 47 47 51 46 46
51 46 46 50 45 45 49 44 44 48 44 44 48 43 43 47 42 42 46 42 42 46 41
41 45 41 41 45 40 40 44 40 40 44 39 39 43 39 39 43 39 39
105 94 94 114 103 103 124 112 112 135 121 121 142 128 128 139 125 125
125 113 113 122 109 109 129 116 116 136 122 122 143 128 128 148 134
134 152 137 137 154 138 138 152 137 137 149 134 134 143 129 129 136
122 122 129 116 116 122 110 110 115 103 103 109 98 98 103 93 93 98 88
88 93 84 84 89 80 80 85 76 76 81 73 73 78 70 70 76 68 68 73 66 66 71
64 64 69 62 62 67 60 60 65 58 58 63 57 57 62 55 55 60 54 54 59 53 53
58 52 52 57 51 51 56 50 50 55 49 49 54 48 48 53 47 47 52 47 47 51 46
46 50 45 45 50 45 45 49 44 44
107 96 96 115 103 103 123 110 110 142 128 128 152 136 136 162 146 146
173 155 155 183 165 165 192 173 173 198 178 178 201 181 181 199 179
179 193 174 174 184 166 166 174 156 156 163 147 147 153 137 137 143
129 129 134 121 121 126 113 113 119 107 107 113 101 101 107 96 96 102
92 92 97 87 87 93 84 84 89 80 80 86 77 77 83 75 75 80 72 72 78 70 70
76 68 68 73 66 66 71 64 64 70 63 63 68 61 61 66 60 60 65 58 58 64 57
57 62 56 56 61 55 55 60 54 54 59 53 53 58 52 52 57 51 51 56 50 50 55
50 50 54 49 49 54 48 48 53 48 48
