P3
50 25
255
25 22 22 25 22 22 25 22 22 25 22 22 25 22 22 25 22 22 25 22 22 25 22
22 25 22 22 25 22 22 25 22 22 25 22 22 25 22 22 25 22 22 25 22 22 25
22 22 25 22 22 25 22 22 25 22 22 25 22 22 25 22 22 25 22 22 25 22 22
25 22 22 25 22 22 25 22 22 25 22 22 25 22 22 25 22 22 25 22 22 25 22
22 25 22 22 25 22 22 25 22 22 25 22 22 25 22 22 25 22 22 25 22 22 25
22 22 25 22 22 25 22 22 25 22 22 25 22 22 25 22 22 25 22 22 25 22 22
25 22 22 25 22 22 25 22 22 25 22 22
25 22 22 25 22 22 25 22 22 25 22 22 25 22 22 25 22 22 25 22 22 25 22
22 25 22 22 25 22 22 25 22 22 25 22 22 25 22 22 25 22 22 25 22 22 25
22 22 25 22 22 25 22 22 25 22 22 25 22 22 25 22 22 25 22 22 25 22 22
25 22 22 25 22 22 25 22 22 25 22 22 25 22 22 25 22 22 25 22 22 25 22
22 25 22 22 25 22 22 25 22 22 25 22 22 25 22 22 25 22 22 25 22 22 25
22 22 25 22 22 25 22 22 25 22 22 25 22 22 25 22 22 25 22 22 25 22 22
25 22 22 25 22 22 25 22 22 25 22 22
25 22 22 25 22 22 25 22 22 25 22 22 25 22 22 25 22 22 25 22 22 25 22
22 25 22 22 25 22 22 25 22 22 25 22 22 25 22 22 25 22 22 25 22 22 25
22 22 25 22 22 25 22 22 25 22 22 25 22 22 25 22 22 25 22 22 25 22 22
25 22 22 25 22 22 25 22 22 25 22 22 25 22 22 25 22 22 25 22 22 25 22
22 25 22 22 25 22 22 25 22 22 25 22 22 25 22 22 25 22 22 25 22 22 25
22 22 25 22 22 25 22 22 25 22 22 25 22 22 25 22 22 25 22 22 25 22 22
25 22 22 25 22 22 25 22 22 25 22 22
25 22 22 25 22 22 25 22 22 25 22 22 25 22 22 25 22 22 25 22 22 25 22
22 25 22 22 25 22 22 25 22 22 25 22 22 25 22 22 25 22 22 25 22 22 25
22 22 25 22 22 25 22 22 25 22 22 25 22 22 25 22 22 25 22 22 25 22 22
25 22 22 25 22 22 25 22 22 25 22 22 25 22 22 25 22 22 25 22 22 25 22
22 25 22 22 25 22 22 25 22 22 25 22 22 25 22 22 25 22 22 25 22 22 25
22 22 25 22 22 25 22 22 25 22 22 25 22 22 25 22 22 25 22 22 25 22 22
25 22 22 25 22 22 25 22 22 25 22 22
25 22 22 25 22 22 25 22 22 25 22 22 25 22 22 25 22 22 25 22 22 25 22
22 25 22 22 25 22 22 25 22 22 25 22 22 25 22 22 25 22 22 25 22 22 25
22 22 25 22 22 25 22 22 25 22 22 16 161 80 15 152 76 13 138 69 11 118
59 25 22 22 25 22 22 25 22 22 25 22 22 25 22 22 25 22 22 25 22 22 25
22 22 25 22 22 25 22 22 25 22 22 25 22 22 25 22 22 25 22 22 25 22 22
25 22 22 25 22 22 25 22 22 25 22 22 25 22 22 25 22 22 25 22 22 25 22
22 25 22 22 25 22 22 25 22 22 25 22 22
25 22 22 25 22 22 25 22 22 25 22 22 25 22 22 25 22 22 25 22 22 25 22
22 25 22 22 25 22 22 25 22 22 25 22 22 25 22 22 25 22 22 25 22 22 25
22 22 25 22 22 18 189 94 18 185 92 17 176 88 16 165 82 15 152 76 13
136 68 11 116 58 9 91 45 25 22 22 25 22 22 25 22 22 25 22 22 25 22 22
25 22 22 25 22 22 25 22 22 25 22 22 25 22 22 25 22 22 25 22 22 25 22
22 25 22 22 25 22 22 25 22 22 25 22 22 25 22 22 25 22 22 25 22 22 25
22 22 25 22 22 25 22 22 25 22 22 25 22 22
25 22 22 25 22 22 25 22 22 25 22 22 25 22 22 25 22 22 25 22 22 25 22
22 25 22 22 25 22 22 25 22 22 25 22 22 25 22 22 25 22 22 25 22 22 19
192 96 20 200 100 2 25 12 18 189 94 2 25 12 2 25 12 15 154 77 13 139
69 12 122 61 10 102 51 7 76 38 3 34 17 25 22 22 25 22 22 25 22 22 25
22 22 25 22 22 25 22 22 25 22 22 25 22 22 25 22 22 25 22 22 25 22 22
25 22 22 25 22 22 25 22 22 25 22 22 25 22 22 25 22 22 25 22 22 25 22
22 25 22 22 25 22 22 25 22 22 25 22 22
25 22 22 25 22 22 25 22 22 25 22 22 25 22 22 25 22 22 25 22 22 25 22
22 25 22 22 25 22 22 25 22 22 25 22 22 25 22 22 25 22 22 2 25 12 20
203 101 20 201 100 19 196 98 18 188 94 2 25 12 2 25 12 15 153 76 13
139 69 12 122 61 10 103 51 8 81 40 5 53 26 25 22 22 25 22 22 25 22 22
25 22 22 25 22 22 25 22 22 25 22 22 25 22 22 25 22 22 25 22 22 25 22
22 25 22 22 25 22 22 25 22 22 25 22 22 25 22 22 25 22 22 25 22 22 25
22 22 25 22 22 25 22 22 25 22 22 25 22 22
25 22 22 25 22 22 25 22 22 25 22 22 25 22 22 25 22 22 25 22 22 25 22
22 25 22 22 25 22 22 25 22 22 25 22 22 25 22 22 25 22 22 20 200 100
20 203 101 19 199 99 19 192 96 18 184 92 17 174 87 16 162 81 14 149
74 13 135 67 11 119 59 10 101 50 8 81 40 5 56 28 2 25 12 25 22 22 25
22 22 25 22 22 25 22 22 25 22 22 25 22 22 25 22 22 25 22 22 25 22 22
25 22 22 25 22 22 25 22 22 25 22 22 25 22 22 25 22 22 25 22 22 25 22
22 25 22 22 25 22 22 25 22 22 25 22 22 25 22 22
25 22 22 25 22 22 25 22 22 25 22 22 25 22 22 25 22 22 25 22 22 25 22
22 25 22 22 25 22 22 25 22 22 25 22 22 25 22 22 2 25 12 19 199 99 2
25 12 19 194 97 24 192 99 35 195 106 16 168 84 15 157 78 14 144 72 13
130 65 11 114 57 9 97 48 7 77 38 5 54 27 2 25 12 25 22 22 25 22 22 25
22 22 25 22 22 25 22 22 25 22 22 25 22 22 25 22 22 25 22 22 25 22 22
25 22 22 25 22 22 25 22 22 25 22 22 25 22 22 25 22 22 25 22 22 25 22
22 25 22 22 25 22 22 25 22 22 25 22 22
25 22 22 25 22 22 25 22 22 25 22 22 25 22 22 25 22 22 25 22 22 25 22
22 25 22 22 25 22 22 25 22 22 25 22 22 25 22 22 18 185 92 2 25 12 19
192 96 18 187 93 2 25 12 17 171 86 16 161 80 15 150 75 13 137 68 12
123 61 10 108 54 9 91 45 7 72 36 4 49 24 2 25 12 2 25 12 25 22 22 25
22 22 25 22 22 25 22 22 25 22 22 25 22 22 25 22 22 25 22 22 25 22 22
25 22 22 25 22 22 25 22 22 25 22 22 25 22 22 25 22 22 25 22 22 25 22
22 25 22 22 25 22 22 25 22 22 25 22 22
25 22 22 25 22 22 25 22 22 25 22 22 25 22 22 25 22 22 25 22 22 25 22
22 25 22 22 25 22 22 25 22 22 25 22 22 25 22 22 17 179 89 18 185 92
18 183 91 2 25 12 2 25 12 16 163 81 15 153 76 14 141 70 12 129 64 11
115 57 10 100 50 8 83 41 6 64 32 4 42 21 2 25 12 2 25 12 25 22 22 25
22 22 25 22 22 25 22 22 25 22 22 25 22 22 25 22 22 25 22 22 25 22 22
25 22 22 25 22 22 25 22 22 25 22 22 25 22 22 25 22 22 25 22 22 25 22
22 25 22 22 25 22 22 25 22 22 25 22 22
25 22 22 25 22 22 25 22 22 25 22 22 25 22 22 25 22 22 25 22 22 25 22
22 25 22 22 25 22 22 25 22 22 25 22 22 25 22 22 16 169 84 17 175 87
17 173 86 16 168 84 16 161 80 15 153 76 14 143 71 13 132 66 11 119 59
10 106 53 9 91 45 7 74 37 5 55 27 3 33 16 2 25 12 2 25 12 25 22 22 12
25 2 88 177 17 80 161 16 63 127 12 25 22 22 25 22 22 25 22 22 25 22
22 25 22 22 25 22 22 25 22 22 25 22 22 25 22 22 25 22 22 25 22 22 25
22 22 25 22 22 25 22 22 25 22 22 25 22 22
139 139 139 139 139 139 139 139 139 138 138 138 138 138 138 138 138
138 137 137 137 137 137 137 137 137 137 136 136 136 136 136 136 135
135 135 135 135 135 15 154 77 16 162 81 16 162 81 15 157 78 15 150 75
14 142 71 13 132 66 12 121 60 10 109 54 9 95 47 8 80 40 6 63 31 4 44
22 2 25 12 2 25 12 2 25 12 12 25 2 12 25 2 97 195 19 88 177 17 73 147
14 52 105 10 12 25 2 121 121 121 120 120 120 120 120 120 119 119 119
119 119 119 118 118 118 117 117 117 117 117 117 116 116 116 115 115
115 115 115 115 114 114 114 25 25 25 113 113 113
148 148 148 148 148 148 147 147 147 147 147 147 146 146 146 146 146
146 146 146 146 145 145 145 145 145 145 144 144 144 144 144 144 143
143 143 143 143 143 13 132 66 14 147 73 14 148 74 14 144 72 13 138 69
12 129 64 12 120 60 10 109 54 9 97 48 8 83 41 6 67 33 5 50 25 3 31 15
2 25 12 2 25 12 2 25 12 12 25 2 12 25 2 104 201 27 87 174 17 73 146
14 53 107 10 25 50 5 128 128 128 128 128 128 127 127 127 126 126 126
126 126 126 125 125 125 124 124 124 124 124 124 123 123 123 123 123
123 122 122 122 121 121 121 121 121 121 120 120 120
154 154 154 154 154 154 154 154 154 153 153 153 153 153 153 152 152
152 152 152 152 151 151 151 151 151 151 150 150 150 150 150 150 149
149 149 149 149 149 148 148 148 12 128 64 13 131 65 12 129 64 12 123
61 11 115 57 10 106 53 9 95 47 8 83 41 6 69 34 5 53 26 3 36 18 2 25
12 2 25 12 2 25 12 139 139 139 12 25 2 12 25 2 89 179 17 80 160 16 66
133 13 48 96 9 21 43 4 134 134 134 133 133 133 133 133 133 132 132
132 132 132 132 131 131 131 130 130 130 130 130 130 129 129 129 128
128 128 128 128 128 127 127 127 127 127 127 25 25 25
159 159 159 159 159 159 158 158 158 158 158 158 157 157 157 157 157
157 156 156 156 156 156 156 155 155 155 155 155 155 154 154 154 154
154 154 153 153 153 152 152 152 9 97 48 11 111 55 11 111 55 10 106 53
9 99 49 9 90 45 7 79 39 6 67 33 5 53 26 3 37 18 2 25 12 2 25 12 2 25
12 2 25 12 25 25 25 12 25 2 12 25 2 78 157 15 69 138 13 55 111 11 37
74 7 12 25 2 25 25 25 25 25 25 137 137 137 137 137 137 136 136 136
136 136 136 135 135 135 134 134 134 134 134 134 25 25 25 133 133 133
132 132 132 131 131 131 25 25 25
163 163 163 162 162 162 162 162 162 161 161 161 161 161 161 160 160
160 160 160 160 159 159 159 192 153 19 168 135 16 133 107 13 87 70 8
25 20 2 156 156 156 155 155 155 8 80 40 8 87 43 8 85 42 8 80 40 7 71
35 6 61 30 4 48 24 3 34 17 2 25 12 2 25 12 2 25 12 2 25 12 25 25 25
25 25 25 12 25 2 12 25 2 62 124 12 53 107 10 39 79 7 20 40 4 12 25 2
25 25 25 25 25 25 25 25 25 25 25 25 140 140 140 140 140 140 139 139
139 138 138 138 138 138 138 137 137 137 137 137 137 136 136 136 136
136 136 135 135 135
166 166 166 165 165 165 165 165 165 164 164 164 164 164 164 163 163
163 163 163 163 203 162 20 188 151 18 161 129 16 126 100 12 82 66 8
26 21 2 159 159 159 158 158 158 158 158 158 4 49 24 5 58 29 5 55 27 4
48 24 3 38 19 2 25 12 2 25 12 2 25 12 2 25 12 2 25 12 25 25 25 25 25
25 25 25 25 25 25 25 12 25 2 37 75 7 30 60 6 15 30 3 12 25 2 25 25 25
25 25 25 25 25 25 25 25 25 25 25 25 143 143 143 143 143 143 142 142
142 25 25 25 141 141 141 141 141 141 140 140 140 140 140 140 139 139
139 25 25 25
168 168 168 167 167 167 167 167 167 166 166 166 166 166 166 165 165
165 165 165 165 190 152 19 172 137 17 143 114 14 108 86 10 65 52 6 25
20 2 25 20 2 161 161 161 160 160 160 159 159 159 159 159 159 2 25 12
2 25 12 2 25 12 2 25 12 2 25 12 2 25 12 25 25 25 25 25 25 25 25 25 25
25 25 25 25 25 25 25 25 25 25 25 25 25 25 25 25 25 25 25 25 25 25 25
25 25 25 148 148 148 148 148 148 147 147 147 147 147 147 146 146 146
146 146 146 145 145 145 145 145 145 144 144 144 144 144 144 143 143
143 142 142 142 142 142 142 141 141 141
170 170 170 169 169 169 169 169 169 168 168 168 168 168 168 167 167
167 167 167 167 165 132 16 146 117 14 118 94 11 25 20 2 39 31 3 25 20
2 163 163 163 162 162 162 162 162 162 161 161 161 161 161 161 160 160
160 160 160 160 25 25 25 25 25 25 25 25 25 25 25 25 25 25 25 25 25 25
25 25 25 155 155 155 155 155 155 154 154 154 154 154 154 153 153 153
153 153 153 152 152 152 152 152 152 151 151 151 151 151 151 150 150
150 150 150 150 149 149 149 149 149 149 148 148 148 148 148 148 147
147 147 147 147 147 146 146 146 146 146 146 25 25 25 144 144 144 144
144 144
171 171 171 170 170 170 170 170 170 169 169 169 169 169 169 25 25 25
168 168 168 128 103 12 113 90 11 85 68 8 49 39 4 25 20 2 25 20 2 25
25 25 25 25 25 25 25 25 25 25 25 25 25 25 162 162 162 161 161 161 161
161 161 160 160 160 160 160 160 159 159 159 159 159 159 158 158 158
158 158 158 157 157 157 157 157 157 156 156 156 156 156 156 155 155
155 155 155 155 154 154 154 154 154 154 153 153 153 153 153 153 152
152 152 152 152 152 151 151 151 151 151 151 150 150 150 25 25 25 149
149 149 149 149 149 148 148 148 148 148 148 147 147 147 147 147 147
146 146 146
172 172 172 172 172 172 171 171 171 25 25 25 170 170 170 170 170 170
169 169 169 169 169 169 25 20 2 40 32 4 25 20 2 25 20 2 25 25 25 25
25 25 25 25 25 25 25 25 25 25 25 164 164 164 163 163 163 163 163 163
162 162 162 162 162 162 161 161 161 161 161 161 160 160 160 160 160
160 159 159 159 159 159 159 158 158 158 158 158 158 157 157 157 157
157 157 156 156 156 156 156 156 155 155 155 155 155 155 154 154 154
154 154 154 153 153 153 153 153 153 153 153 153 152 152 152 152 152
152 25 25 25 151 151 151 150 150 150 150 150 150 149 149 149 149 149
149 148 148 148
173 173 173 172 172 172 25 25 25 172 172 172 171 171 171 171 171 171
170 170 170 170 170 170 169 169 169 169 169 169 25 25 25 25 25 25 167
167 167 167 167 167 166 166 166 166 166 166 165 165 165 165 165 165
164 164 164 164 164 164 164 164 164 163 163 163 163 163 163 162 162
162 162 162 162 161 161 161 161 161 161 160 160 160 160 160 160 159
159 159 159 159 159 158 158 158 158 158 158 157 157 157 157 157 157
156 156 156 156 156 156 156 156 156 155 155 155 155 155 155 154 154
154 154 154 154 153 153 153 153 153 153 152 152 152 152 152 152 151
151 151 151 151 151 150 150 150 150 150 150
174 174 174 25 25 25 173 173 173 172 172 172 172 172 172 171 171 171
171 171 171 171 171 171 25 25 25 170 170 170 169 169 169 169 169 169
168 168 168 168 168 168 167 167 167 167 167 167 166 166 166 166 166
166 166 166 166 165 165 165 165 165 165 164 164 164 164 164 164 163
163 163 163 163 163 162 162 162 162 162 162 161 161 161 161 161 161
161 161 161 160 160 160 160 160 160 159 159 159 159 159 159 158 158
158 158 158 158 157 157 157 157 157 157 156 156 156 156 156 156 156
156 156 155 155 155 155 155 155 154 154 154 154 154 154 153 153 153
153 153 153 152 152 152 152 152 152 152 152 152
