P3
50 25
255
25 22 22 25 22 22 25 22 22 25 22 22 25 22 22 25 22 22 25 22 22 25 22
22 25 22 22 25 22 22 25 22 22 25 22 22 25 22 22 25 22 22 25 22 22 25
22 22 25 22 22 25 22 22 25 22 22 25 22 22 25 22 22 25 22 22 25 22 22
25 22 22 25 22 22 25 22 22 25 22 22 25 22 22 25 22 22 25 22 22 25 22
22 25 22 22 25 22 22 25 22 22 25 22 22 25 22 22 25 22 22 25 22 22 25
22 22 25 22 22 25 22 22 25 22 22 25 22 22 25 22 22 25 22 22 25 22 22
25 22 22 25 22 22 25 22 22 25 22 22
25 22 22 25 22 22 25 22 22 25 22 22 25 22 22 25 22 22 25 22 22 25 22
22 25 22 22 25 22 22 25 22 22 25 22 22 25 22 22 25 22 22 25 22 22 25
22 22 25 22 22 25 22 22 25 22 22 25 22 22 25 22 22 25 22 22 25 22 22
25 22 22 25 22 22 25 22 22 25 22 22 25 22 22 25 22 22 25 22 22 25 22
22 25 22 22 25 22 22 25 22 22 25 22 22 25 22 22 25 22 22 25 22 22 25
22 22 25 22 22 25 22 22 25 22 22 25 22 22 25 22 22 25 22 22 25 22 22
25 22 22 25 22 22 25 22 22 25 22 22
25 22 22 25 22 22 25 22 22 25 22 22 25 22 22 25 22 22 25 22 22 25 22
22 25 22 22 25 22 22 25 22 22 25 22 22 25 22 22 25 22 22 25 22 22 25
22 22 25 22 22 25 22 22 25 22 22 25 22 22 25 22 22 25 22 22 25 22 22
25 22 22 25 22 22 25 22 22 25 22 22 25 22 22 25 22 22 25 22 22 25 22
22 25 22 22 25 22 22 25 22 22 25 22 22 25 22 22 25 22 22 25 22 22 25
22 22 25 22 22 25 22 22 25 22 22 25 22 22 25 22 22 25 22 22 25 22 22
25 22 22 25 22 22 25 22 22 25 22 22
25 22 22 25 22 22 25 22 22 25 22 22 25 22 22 25 22 22 25 22 22 25 22
22 25 22 22 25 22 22 25 22 22 25 22 22 25 22 22 25 22 22 25 22 22 25
22 22 25 22 22 25 22 22 25 22 22 25 22 22 25 22 22 25 22 22 25 22 22
25 22 22 25 22 22 25 22 22 25 22 22 25 22 22 25 22 22 25 22 22 25 22
22 25 22 22 25 22 22 25 22 22 25 22 22 25 22 22 25 22 22 25 22 22 25
22 22 25 22 22 25 22 22 25 22 22 25 22 22 25 22 22 25 22 22 25 22 22
25 22 22 25 22 22 25 22 22 25 22 22
182 182 182 185 185 185 187 187 187 190 190 190 193 193 193 196 196
196 198 198 198 201 201 201 203 203 203 205 205 205 207 207 207 209
209 209 211 211 211 212 212 212 213 213 213 214 214 214 215 215 215
216 216 216 216 216 216 216 216 216 25 25 25 25 25 25 25 25 25 25 25
25 25 25 25 25 25 25 25 25 25 25 25 25 25 25 25 25 25 25 198 198 198
196 196 196 193 193 193 190 190 190 188 188 188 185 185 185 182 182
182 179 179 179 176 176 176 173 173 173 171 171 171 168 168 168 165
165 165 163 163 163 160 160 160 157 157 157 155 155 155 152 152 152
150 150 150 148 148 148
184 184 184 187 187 187 190 190 190 193 193 193 196 196 196 199 199
199 201 201 201 204 204 204 206 206 206 209 209 209 211 211 211 213
213 213 215 215 215 216 216 216 217 217 217 218 218 218 219 219 219
220 220 220 220 220 220 25 25 25 25 25 25 2 25 12 2 25 12 2 25 12 25
25 25 25 25 25 25 25 25 25 25 25 25 25 25 25 25 25 25 25 25 25 25 25
196 196 196 193 193 193 190 190 190 187 187 187 184 184 184 181 181
181 178 178 178 175 175 175 173 173 173 170 170 170 167 167 167 164
164 164 161 161 161 159 159 159 156 156 156 154 154 154 151 151 151
149 149 149
186 186 186 189 189 189 192 192 192 195 195 195 198 198 198 201 201
201 204 204 204 207 207 207 210 210 210 212 212 212 214 214 214 216
216 216 218 218 218 220 220 220 221 221 221 222 222 222 223 223 223
224 224 224 224 224 224 2 25 12 5 54 27 6 61 30 5 57 28 4 42 21 2 25
12 2 25 12 25 25 25 25 25 25 25 25 25 25 25 25 25 25 25 25 25 25 25
25 25 195 195 195 192 192 192 189 189 189 186 186 186 183 183 183 180
180 180 177 177 177 174 174 174 171 171 171 168 168 168 166 166 166
163 163 163 160 160 160 157 157 157 155 155 155 152 152 152 150 150
150
188 188 188 192 192 192 195 195 195 198 198 198 201 201 201 204 204
204 207 207 207 210 210 210 213 213 213 215 215 215 218 218 218 220
220 220 222 222 222 224 224 224 225 225 225 226 226 226 227 227 227
228 228 228 2 28 14 8 86 43 10 102 51 10 106 53 9 99 49 8 85 42 6 62
31 2 29 14 2 25 12 25 25 25 46 92 9 45 90 9 22 44 4 25 25 25 25 25 25
198 198 198 195 195 195 192 192 192 188 188 188 185 185 185 182 182
182 179 179 179 176 176 176 173 173 173 170 170 170 167 167 167 164
164 164 161 161 161 159 159 159 156 156 156 153 153 153 151 151 151
190 190 190 194 194 194 197 197 197 200 200 200 203 203 203 207 207
207 210 210 210 213 213 213 216 216 216 218 218 218 221 221 221 223
223 223 225 225 225 227 227 227 229 229 229 230 230 230 231 231 231
231 231 231 9 92 46 12 126 63 13 139 69 14 140 70 13 133 66 11 118 59
9 95 47 6 64 32 2 25 12 12 25 2 83 167 16 78 156 15 56 112 11 12 25 2
25 25 25 200 200 200 197 197 197 194 194 194 190 190 190 187 187 187
184 184 184 181 181 181 177 177 177 174 174 174 171 171 171 168 168
168 165 165 165 162 162 162 160 160 160 157 157 157 154 154 154 152
152 152
192 192 192 196 196 196 199 199 199 202 202 202 206 206 206 209 209
209 212 212 212 216 216 216 219 219 219 221 221 221 224 224 224 227
227 227 229 229 229 231 231 231 232 232 232 233 233 233 234 234 234
235 235 235 12 125 62 15 155 77 16 167 83 16 167 83 15 159 79 14 143
71 12 120 60 8 89 44 4 44 22 12 25 2 100 200 20 93 187 18 71 142 14
26 52 5 25 25 25 202 202 202 199 199 199 196 196 196 192 192 192 189
189 189 185 185 185 182 182 182 179 179 179 176 176 176 173 173 173
169 169 169 166 166 166 163 163 163 161 161 161 158 158 158 155 155
155 152 152 152
194 194 194 197 197 197 201 201 201 205 205 205 208 208 208 211 211
211 215 215 215 218 218 218 221 221 221 224 224 224 227 227 227 230
230 230 232 232 232 234 234 234 236 236 236 237 237 237 238 238 238
238 238 238 14 144 72 17 175 87 18 187 93 18 188 94 17 179 89 16 163
81 13 138 69 10 106 53 6 60 30 25 25 25 95 191 19 92 184 18 67 134 13
212 212 212 208 208 208 205 205 205 201 201 201 197 197 197 194 194
194 190 190 190 187 187 187 184 184 184 180 180 180 177 177 177 174
174 174 171 171 171 167 167 167 164 164 164 162 162 162 159 159 159
156 156 156 153 153 153
196 196 196 199 199 199 203 203 203 206 206 206 210 210 210 214 214
214 217 217 217 220 220 220 224 224 224 227 227 227 230 230 230 232
232 232 235 235 235 237 237 237 239 239 239 240 240 240 241 241 241
242 242 242 14 148 74 18 185 92 19 199 99 22 202 102 19 191 95 17 174
87 14 149 74 11 114 57 6 64 32 25 25 25 224 224 224 221 221 221 217
217 217 214 214 214 210 210 210 206 206 206 203 203 203 199 199 199
196 196 196 192 192 192 188 188 188 185 185 185 181 181 181 178 178
178 175 175 175 172 172 172 168 168 168 165 165 165 162 162 162 159
159 159 157 157 157 154 154 154
197 197 197 201 201 201 204 204 204 208 208 208 212 212 212 216 216
216 219 219 219 223 223 223 226 226 226 229 229 229 232 232 232 235
235 235 237 237 237 240 240 240 241 241 241 243 243 243 244 244 244
245 245 245 12 120 60 18 180 90 19 199 99 20 202 101 19 194 97 17 176
88 14 149 74 11 110 55 4 46 23 229 229 229 226 226 226 223 223 223
219 219 219 216 216 216 212 212 212 208 208 208 204 204 204 201 201
201 197 197 197 193 193 193 190 190 190 186 186 186 183 183 183 179
179 179 176 176 176 172 172 172 169 169 169 166 166 166 163 163 163
160 160 160 157 157 157 155 155 155
198 198 198 202 202 202 206 206 206 210 210 210 213 213 213 217 217
217 221 221 221 225 225 225 228 228 228 231 231 231 234 234 234 237
237 237 240 240 240 242 242 242 244 244 244 245 245 245 247 247 247
247 247 247 248 248 248 14 145 72 18 182 91 19 190 95 18 183 91 16
164 82 13 133 66 8 83 41 234 234 234 231 231 231 228 228 228 225 225
225 221 221 221 217 217 217 214 214 214 210 210 210 206 206 206 202
202 202 198 198 198 194 194 194 191 191 191 187 187 187 184 184 184
180 180 180 177 177 177 173 173 173 170 170 170 167 167 167 164 164
164 161 161 161 158 158 158 155 155 155
199 199 199 203 203 203 207 207 207 211 211 211 215 215 215 219 219
219 222 222 222 226 226 226 230 230 230 233 233 233 236 236 236 239
239 239 242 242 242 244 244 244 246 246 246 248 248 248 249 249 249
25 25 25 40 32 4 25 25 25 255 255 255 14 144 72 14 144 72 12 122 61 6
62 31 239 239 239 236 236 236 233 233 233 230 230 230 226 226 226 223
223 223 219 219 219 215 215 215 211 211 211 207 207 207 203 203 203
199 199 199 195 195 195 192 192 192 188 188 188 184 184 184 181 181
181 177 177 177 174 174 174 171 171 171 167 167 167 164 164 164 161
161 161 158 158 158 156 156 156
200 200 200 204 204 204 208 208 208 212 212 212 216 216 216 220 220
220 224 224 224 228 228 228 231 231 231 235 235 235 238 238 238 241
241 241 244 244 244 246 246 246 248 248 248 249 249 249 251 251 251
166 133 16 173 138 17 77 61 7 255 255 255 255 255 255 255 255 255 249
249 249 244 244 244 241 241 241 238 238 238 235 235 235 231 231 231
228 228 228 224 224 224 220 220 220 216 216 216 212 212 212 208 208
208 204 204 204 200 200 200 196 196 196 192 192 192 189 189 189 185
185 185 181 181 181 178 178 178 174 174 174 171 171 171 168 168 168
165 165 165 162 162 162 159 159 159 156 156 156
201 201 201 205 205 205 209 209 209 213 213 213 217 217 217 221 221
221 225 225 225 229 229 229 232 232 232 236 236 236 239 239 239 242
242 242 245 245 245 247 247 247 249 249 249 251 251 251 252 252 252
183 146 18 191 152 19 79 63 7 255 255 255 255 255 255 255 255 255 253
253 253 245 245 245 242 242 242 239 239 239 236 236 236 232 232 232
229 229 229 225 225 225 221 221 221 217 217 217 213 213 213 209 209
209 205 205 205 201 201 201 197 197 197 193 193 193 189 189 189 185
185 185 182 182 182 178 178 178 175 175 175 171 171 171 168 168 168
165 165 165 162 162 162 159 159 159 156 156 156
201 201 201 205 205 205 209 209 209 213 213 213 217 217 217 221 221
221 225 225 225 229 229 229 233 233 233 236 236 236 240 240 240 243
243 243 246 246 246 248 248 248 250 250 250 252 252 252 253 253 253
255 255 255 255 255 255 255 255 255 255 255 255 255 255 255 255 255
255 253 253 253 246 246 246 243 243 243 240 240 240 237 237 237 233
233 233 229 229 229 225 225 225 221 221 221 217 217 217 213 213 213
209 209 209 205 205 205 201 201 201 197 197 197 193 193 193 190 190
190 186 186 186 182 182 182 179 179 179 175 175 175 172 172 172 168
168 168 165 165 165 162 162 162 159 159 159 156 156 156
201 201 201 205 205 205 210 210 210 214 214 214 218 218 218 222 222
222 226 226 226 230 230 230 233 233 233 237 237 237 240 240 240 243
243 243 246 246 246 249 249 249 251 251 251 252 252 252 253 253 253
255 255 255 255 255 255 255 255 255 255 255 255 255 255 255 255 255
255 250 250 250 246 246 246 243 243 243 240 240 240 237 237 237 233
233 233 230 230 230 226 226 226 222 222 222 218 218 218 214 214 214
210 210 210 205 205 205 201 201 201 197 197 197 194 194 194 190 190
190 186 186 186 182 182 182 179 179 179 175 175 175 172 172 172 169
169 169 165 165 165 162 162 162 159 159 159 156 156 156
201 201 201 205 205 205 210 210 210 214 214 214 218 218 218 222 222
222 226 226 226 230 230 230 233 233 233 237 237 237 240 240 240 243
243 243 246 246 246 249 249 249 251 251 251 252 252 252 253 253 253
254 254 254 255 255 255 255 255 255 255 255 255 255 255 255 252 252
252 249 249 249 246 246 246 243 243 243 240 240 240 237 237 237 233
233 233 230 230 230 226 226 226 222 222 222 218 218 218 214 214 214
210 210 210 205 205 205 201 201 201 197 197 197 194 194 194 190 190
190 186 186 186 182 182 182 179 179 179 175 175 175 172 172 172 169
169 169 165 165 165 162 162 162 159 159 159 156 156 156
201 201 201 205 205 205 209 209 209 213 213 213 217 217 217 221 221
221 225 225 225 229 229 229 233 233 233 236 236 236 240 240 240 243
243 243 246 246 246 248 248 248 250 250 250 252 252 252 253 253 253
254 254 254 254 254 254 254 254 254 253 253 253 252 252 252 250 250
250 248 248 248 246 246 246 243 243 243 240 240 240 237 237 237 233
233 233 229 229 229 225 225 225 221 221 221 217 217 217 213 213 213
209 209 209 205 205 205 201 201 201 197 197 197 193 193 193 190 190
190 186 186 186 182 182 182 179 179 179 175 175 175 172 172 172 168
168 168 165 165 165 162 162 162 159 159 159 156 156 156
44 39 39 44 40 40 45 40 40 45 41 41 46 41 41 46 41 41 47 42 42 47 42
42 47 43 43 48 43 43 48 43 43 48 44 44 49 44 44 49 44 44 49 44 44 49
44 44 50 45 45 50 45 45 50 45 45 50 45 45 50 45 45 49 44 44 49 44 44
49 44 44 49 44 44 48 43 43 48 43 43 48 43 43 47 42 42 47 42 42 46 42
42 46 41 41 45 41 41 45 40 40 44 40 40 44 40 40 44 39 39 43 39 39 43
38 38 42 38 38 42 38 38 42 37 37 41 37 37 41 37 37 40 36 36 40 36 36
40 36 36 39 35 35 39 35 35 39 35 35
48 43 43 48 44 44 49 44 44 50 45 45 50 45 45 51 46 46 52 46 46 52 47
47 53 48 48 54 48 48 54 49 49 55 49 49 55 49 49 55 50 50 56 50 50 56
50 50 56 50 50 56 50 50 56 50 50 56 50 50 56 50 50 55 50 50 55 49 49
55 49 49 54 49 49 54 48 48 53 48 48 52 47 47 52 46 46 51 46 46 50 45
45 50 45 45 49 44 44 48 44 44 48 43 43 47 42 42 47 42 42 46 41 41 46
41 41 45 40 40 44 40 40 44 40 40 43 39 39 43 39 39 43 38 38 42 38 38
42 37 37 41 37 37 41 37 37 41 36 36
53 47 47 54 48 48 54 49 49 55 50 50 56 51 51 57 51 51 58 52 52 59 53
53 60 54 54 61 55 55 62 55 55 62 56 56 63 57 57 64 57 57 64 58 58 64
58 58 64 58 58 64 58 58 64 58 58 64 57 57 63 57 57 63 56 56 62 56 56
61 55 55 60 54 54 60 54 54 59 53 53 58 52 52 57 51 51 56 50 50 55 49
49 54 49 49 53 48 48 52 47 47 51 46 46 51 45 45 50 45 45 49 44 44 48
43 43 48 43 43 47 42 42 46 42 42 46 41 41 45 41 41 45 40 40 44 40 40
44 39 39 43 39 39 43 38 38 42 38 38
58 52 52 60 54 54 61 55 55 62 56 56 64 57 57 65 58 58 66 60 60 68 61
61 69 62 62 71 63 63 72 65 65 73 66 66 74 66 66 75 67 67 75 68 68 75
68 68 75 68 68 75 68 68 75 67 67 74 66 66 73 66 66 72 65 65 71 63 63
69 62 62 68 61 61 66 60 60 65 58 58 64 57 57 62 56 56 61 55 55 60 54
54 58 52 52 57 51 51 56 50 50 55 49 49 54 48 48 53 48 48 52 47 47 51
46 46 50 45 45 50 45 45 49 44 44 48 43 43 47 43 43 47 42 42 46 42 42
46 41 41 45 41 41 45 40 40 44 40 40
