P3
80 40
255
79 71 71 79 71 71 79 71 71 78 70 70 78 70 70 78 70 70 78 70 70 77 70
70 77 69 69 77 69 69 77 69 69 76 69 69 76 68 68 76 68 68 76 68 68 75
68 68 75 67 67 75 67 67 74 67 67 74 67 67 74 66 66 73 66 66 73 66 66
73 66 66 73 65 65 72 65 65 72 65 65 72 64 64 71 64 64 71 64 64 71 63
63 70 63 63 70 63 63 70 63 63 69 62 62 69 62 62 68 62 62 68 61 61 68
61 61 67 61 61 236 212 212 236 213 213 237 213 213 237 213 213 237
213 213 237 213 213 237 214 214 237 214 214 238 214 214 238 214 214
238 214 214 238 214 214 238 214 214 238 214 214 238 214 214 238 214
214 238 214 214 238 214 214 238 214 214 238 214 214 238 214 214 238
214 214 238 214 214 238 214 214 238 214 214 238 214 214 237 214 214
237 214 214 237 214 214 237 213 213 237 213 213 237 213 213 237 213
213 237 213 213 237 213 213 237 213 213 237 213 213 236 213 213 236
213 213 236 213 213
79 71 71 79 71 71 78 71 71 78 70 70 78 70 70 78 70 70 77 70 70 77 69
69 77 69 69 77 69 69 76 69 69 76 69 69 76 68 68 76 68 68 75 68 68 75
68 68 75 67 67 75 67 67 74 67 67 74 67 67 74 66 66 73 66 66 73 66 66
73 65 65 72 65 65 72 65 65 72 65 65 71 64 64 71 64 64 71 64 64 70 63
63 70 63 63 70 63 63 69 62 62 69 62 62 69 62 62 68 61 61 68 61 61 68
61 61 67 60 60 235 212 212 236 212 212 236 212 212 236 213 213 236
213 213 237 213 213 237 213 213 237 213 213 237 213 213 237 213 213
237 213 213 237 214 214 237 214 214 237 214 214 237 214 214 237 214
214 237 214 214 237 214 214 237 214 214 237 214 214 237 214 214 237
214 214 237 214 214 237 213 213 237 213 213 237 213 213 237 213 213
237 213 213 237 213 213 237 213 213 237 213 213 237 213 213 237 213
213 236 213 213 236 213 213 236 213 213 236 212 212 236 212 212 236
212 212 236 212 212
79 71 71 79 71 71 78 70 70 78 70 70 78 70 70 78 70 70 77 70 70 77 69
69 77 69 69 77 69 69 76 69 69 76 68 68 76 68 68 76 68 68 75 68 68 75
67 67 75 67 67 74 67 67 74 67 67 74 66 66 74 66 66 73 66 66 73 66 66
73 65 65 72 65 65 72 65 65 72 64 64 71 64 64 71 64 64 71 64 64 70 63
63 70 63 63 70 63 63 69 62 62 69 62 62 69 62 62 68 61 61 68 61 61 67
61 61 67 60 60 235 211 211 235 212 212 235 212 212 236 212 212 236
212 212 236 212 212 236 213 213 236 213 213 237 213 213 237 213 213
237 213 213 237 213 213 237 213 213 237 213 213 237 213 213 237 213
213 237 213 213 237 213 213 237 213 213 237 213 213 237 213 213 237
213 213 237 213 213 237 213 213 237 213 213 237 213 213 237 213 213
237 213 213 236 213 213 236 213 213 236 213 213 236 213 213 236 212
212 236 212 212 236 212 212 236 212 212 236 212 212 236 212 212 236
212 212 235 212 212
79 71 71 78 71 71 78 70 70 78 70 70 78 70 70 77 70 70 77 69 69 77 69
69 77 69 69 76 69 69 76 69 69 76 68 68 76 68 68 75 68 68 75 68 68 75
67 67 75 67 67 74 67 67 74 67 67 74 66 66 73 66 66 73 66 66 73 65 65
72 65 65 72 65 65 72 65 65 72 64 64 71 64 64 71 64 64 71 63 63 70 63
63 70 63 63 70 63 63 69 62 62 69 62 62 68 62 62 68 61 61 68 61 61 67
61 61 67 60 60 234 211 211 235 211 211 235 211 211 235 212 212 235
212 212 236 212 212 236 212 212 236 212 212 236 212 212 236 212 212
236 213 213 236 213 213 236 213 213 236 213 213 236 213 213 236 213
213 237 213 213 237 213 213 237 213 213 236 213 213 236 213 213 236
213 213 236 213 213 236 213 213 236 213 213 236 213 213 236 213 213
236 212 212 236 212 212 236 212 212 236 212 212 236 212 212 236 212
212 236 212 212 236 212 212 235 212 212 235 212 212 235 212 212 235
212 212 235 211 211
78 71 71 78 70 70 78 70 70 78 70 70 78 70 70 77 70 70 77 69 69 77 69
69 77 69 69 76 69 69 76 68 68 76 68 68 76 68 68 75 68 68 75 67 67 75
67 67 74 67 67 74 67 67 74 66 66 74 66 66 73 66 66 73 66 66 73 65 65
72 65 65 72 65 65 72 64 64 71 64 64 71 64 64 71 64 64 70 63 63 70 63
63 70 63 63 69 62 62 69 62 62 69 62 62 68 61 61 68 61 61 68 61 61 67
60 60 67 60 60 234 210 210 234 211 211 234 211 211 235 211 211 235
211 211 235 212 212 235 212 212 235 212 212 236 212 212 236 212 212
236 212 212 236 212 212 236 212 212 236 212 212 236 212 212 236 212
212 236 212 212 236 212 212 236 212 212 236 212 212 236 212 212 236
212 212 236 212 212 236 212 212 236 212 212 236 212 212 236 212 212
236 212 212 236 212 212 236 212 212 235 212 212 235 212 212 235 212
212 235 212 212 235 212 212 235 211 211 235 211 211 235 211 211 235
211 211 235 211 211
78 70 70 78 70 70 78 70 70 78 70 70 77 70 70 77 69 69 77 69 69 77 69
69 76 69 69 76 68 68 76 68 68 76 68 68 75 68 68 75 68 68 75 67 67 75
67 67 74 67 67 74 67 67 74 66 66 73 66 66 73 66 66 73 65 65 73 65 65
72 65 65 72 65 65 72 64 64 71 64 64 71 64 64 71 64 64 70 63 63 70 63
63 70 63 63 69 62 62 69 62 62 69 62 62 68 61 61 68 61 61 67 61 61 67
60 60 67 60 60 233 210 210 234 210 210 234 210 210 234 211 211 234
211 211 235 211 211 235 211 211 235 211 211 235 211 211 235 212 212
235 212 212 235 212 212 235 212 212 235 212 212 235 212 212 236 212
212 236 212 212 236 212 212 236 212 212 236 212 212 236 212 212 236
212 212 235 212 212 235 212 212 235 212 212 235 212 212 235 212 212
235 212 212 235 212 212 235 212 212 235 211 211 235 211 211 235 211
211 235 211 211 235 211 211 235 211 211 235 211 211 234 211 211 234
211 211 234 211 211
78 70 70 78 70 70 78 70 70 77 70 70 77 69 69 77 69 69 77 69 69 77 69
69 76 69 69 76 68 68 76 68 68 75 68 68 75 68 68 75 67 67 75 67 67 74
67 67 74 67 67 74 66 66 74 66 66 73 66 66 73 66 66 73 65 65 72 65 65
72 65 65 72 65 65 71 64 64 71 64 64 71 64 64 70 63 63 70 63 63 70 63
63 69 62 62 69 62 62 69 62 62 68 62 62 68 61 61 68 61 61 67 61 61 67
60 60 67 60 60 233 209 209 233 210 210 233 210 210 234 210 210 234
210 210 234 211 211 234 211 211 234 211 211 234 211 211 235 211 211
235 211 211 235 211 211 235 211 211 235 211 211 235 211 211 235 211
211 235 211 211 235 212 212 235 212 212 235 212 212 235 212 212 235
211 211 235 211 211 235 211 211 235 211 211 235 211 211 235 211 211
235 211 211 235 211 211 235 211 211 235 211 211 235 211 211 234 211
211 234 211 211 234 211 211 234 211 211 234 211 211 234 211 211 234
210 210 234 210 210
78 70 70 78 70 70 78 70 70 77 70 70 77 69 69 77 69 69 77 69 69 76 69
69 76 68 68 76 68 68 76 68 68 75 68 68 75 68 68 75 67 67 75 67 67 74
67 67 74 67 67 74 66 66 73 66 66 73 66 66 73 66 66 73 65 65 72 65 65
72 65 65 72 64 64 71 64 64 71 64 64 71 64 64 70 63 63 16 169 84 16
169 84 16 165 82 15 159 79 15 151 75 14 142 71 13 131 65 11 117 58 9
99 49 67 60 60 67 60 60 232 209 209 232 209 209 233 209 209 233 210
210 233 210 210 233 210 210 234 210 210 234 210 210 234 210 210 234
211 211 234 211 211 234 211 211 234 211 211 234 211 211 234 211 211
235 211 211 235 211 211 235 211 211 235 211 211 235 211 211 235 211
211 235 211 211 235 211 211 235 211 211 234 211 211 234 211 211 234
211 211 234 211 211 234 211 211 234 211 211 234 211 211 234 211 211
234 211 211 234 211 211 234 210 210 234 210 210 234 210 210 234 210
210 234 210 210 233 210 210
78 70 70 78 70 70 77 70 70 77 69 69 77 69 69 77 69 69 76 69 69 76 69
69 76 68 68 76 68 68 75 68 68 75 68 68 75 67 67 75 67 67 74 67 67 74
67 67 74 66 66 74 66 66 73 66 66 73 66 66 73 65 65 72 65 65 72 65 65
72 65 65 72 64 64 71 64 64 71 64 64 18 184 92 18 186 93 18 183 91 17
179 89 17 173 86 16 166 83 15 158 79 14 149 74 13 139 69 12 128 64 11
115 57 10 100 50 8 80 40 232 208 208 232 209 209 232 209 209 232 209
209 233 209 209 233 210 210 233 210 210 233 210 210 233 210 210 234
210 210 234 210 210 234 210 210 234 210 210 234 210 210 234 211 211
234 211 211 234 211 211 234 211 211 234 211 211 234 211 211 234 211
211 234 211 211 234 211 211 234 211 211 234 211 211 234 211 211 234
210 210 234 210 210 234 210 210 234 210 210 234 210 210 234 210 210
234 210 210 234 210 210 233 210 210 233 210 210 233 210 210 233 210
210 233 210 210 233 210 210
78 70 70 78 70 70 77 69 69 77 69 69 77 69 69 77 69 69 76 69 69 76 68
68 76 68 68 76 68 68 75 68 68 75 67 67 75 67 67 75 67 67 74 67 67 74
67 67 74 66 66 73 66 66 73 66 66 73 66 66 73 65 65 72 65 65 72 65 65
72 64 64 71 64 64 71 64 64 19 194 97 19 195 97 19 192 96 18 188 94 18
183 91 17 176 88 16 169 84 16 161 80 15 153 76 14 143 71 13 133 66 12
121 60 10 108 54 9 93 46 7 74 37 4 42 21 232 208 208 232 209 209 232
209 209 232 209 209 232 209 209 233 209 209 233 209 209 233 210 210
233 210 210 233 210 210 233 210 210 233 210 210 233 210 210 233 210
210 234 210 210 234 210 210 234 210 210 234 210 210 234 210 210 234
210 210 234 210 210 234 210 210 234 210 210 234 210 210 233 210 210
233 210 210 233 210 210 233 210 210 233 210 210 233 210 210 233 210
210 233 210 210 233 210 210 233 210 210 233 210 210 233 209 209 233
209 209 233 209 209
78 70 70 77 70 70 77 69 69 77 69 69 77 69 69 76 69 69 76 68 68 76 68
68 76 68 68 75 68 68 75 68 68 75 67 67 75 67 67 74 67 67 74 67 67 74
66 66 74 66 66 73 66 66 73 66 66 73 65 65 72 65 65 72 65 65 72 65 65
72 64 64 18 188 94 19 199 99 20 200 100 19 198 99 19 194 97 18 189 94
18 184 92 17 177 88 17 170 85 16 162 81 15 154 77 14 144 72 13 134 67
12 123 61 11 111 55 9 98 49 8 82 41 6 63 31 3 32 16 231 208 208 231
208 208 232 208 208 232 209 209 232 209 209 232 209 209 232 209 209
233 209 209 233 209 209 233 209 209 233 209 209 233 210 210 233 210
210 233 210 210 233 210 210 233 210 210 233 210 210 233 210 210 233
210 210 233 210 210 233 210 210 233 210 210 233 210 210 233 210 210
233 210 210 233 210 210 233 210 210 233 210 210 233 209 209 233 209
209 233 209 209 233 209 209 233 209 209 232 209 209 232 209 209 232
209 209 232 209 209
77 70 70 77 69 69 77 69 69 77 69 69 76 69 69 76 69 69 76 68 68 76 68
68 76 68 68 75 68 68 75 67 67 75 67 67 74 67 67 74 67 67 74 67 67 74
66 66 73 66 66 73 66 66 73 66 66 73 65 65 72 65 65 72 65 65 72 64 64
71 64 64 20 201 100 20 203 101 20 201 100 19 198 99 19 194 97 18 189
94 18 183 91 17 176 88 16 169 84 16 161 80 15 153 76 14 144 72 13 134
67 12 124 62 11 112 56 9 99 49 8 85 42 6 69 34 4 48 24 2 25 12 231
208 208 231 208 208 231 208 208 232 208 208 232 208 208 232 209 209
232 209 209 232 209 209 232 209 209 232 209 209 232 209 209 232 209
209 232 209 209 233 209 209 233 209 209 233 209 209 233 209 209 233
209 209 233 209 209 233 209 209 233 209 209 233 209 209 233 209 209
233 209 209 232 209 209 232 209 209 232 209 209 232 209 209 232 209
209 232 209 209 232 209 209 232 209 209 232 209 209 232 209 209 232
209 209 232 209 209
77 69 69 77 69 69 77 69 69 77 69 69 76 69 69 76 68 68 76 68 68 76 68
68 75 68 68 75 68 68 75 67 67 75 67 67 74 67 67 74 67 67 74 66 66 74
66 66 73 66 66 73 66 66 73 65 65 72 65 65 72 65 65 72 65 65 72 64 64
19 199 99 20 203 101 20 203 101 20 201 100 19 197 98 19 192 96 18 187
93 18 181 90 17 175 87 16 167 83 16 160 80 15 151 75 14 142 71 13 133
66 12 123 61 11 111 55 9 99 49 8 86 43 7 71 35 5 53 26 2 29 14 230
207 207 231 207 207 231 208 208 231 208 208 231 208 208 231 208 208
231 208 208 232 208 208 232 208 208 232 209 209 232 209 209 232 209
209 232 209 209 232 209 209 232 209 209 232 209 209 232 209 209 232
209 209 232 209 209 232 209 209 232 209 209 232 209 209 232 209 209
232 209 209 232 209 209 232 209 209 232 209 209 232 209 209 232 209
209 232 209 209 232 209 209 232 208 208 232 208 208 232 208 208 231
208 208 231 208 208
77 69 69 77 69 69 77 69 69 76 69 69 76 69 69 76 68 68 76 68 68 75 68
68 75 68 68 75 67 67 75 67 67 74 67 67 74 67 67 74 66 66 74 66 66 73
66 66 73 66 66 73 66 66 73 65 65 72 65 65 72 65 65 72 64 64 19 192 96
20 202 101 20 203 101 20 202 101 19 199 99 19 195 97 19 190 95 18 185
92 17 179 89 17 172 86 16 165 82 15 157 78 14 149 74 14 140 70 13 131
65 12 121 60 11 110 55 9 98 49 8 85 42 7 71 35 5 54 27 3 34 17 2 25
12 230 207 207 230 207 207 230 207 207 231 207 207 231 208 208 231
208 208 231 208 208 231 208 208 231 208 208 231 208 208 231 208 208
231 208 208 231 208 208 232 208 208 232 208 208 232 208 208 232 208
208 232 208 208 232 208 208 232 208 208 232 208 208 232 208 208 232
208 208 232 208 208 232 208 208 231 208 208 231 208 208 231 208 208
231 208 208 231 208 208 231 208 208 231 208 208 231 208 208 231 208
208 231 208 208
77 69 69 77 69 69 77 69 69 76 69 69 76 68 68 76 68 68 76 68 68 75 68
68 75 68 68 75 67 67 75 67 67 74 67 67 74 67 67 74 66 66 74 66 66 73
66 66 73 66 66 73 65 65 72 65 65 72 65 65 72 65 65 72 64 64 19 196 98
20 201 100 20 201 100 19 199 99 19 196 98 19 192 96 20 189 95 21 184
94 17 175 87 16 169 84 16 161 80 15 154 77 14 146 73 13 137 68 12 128
64 11 118 59 10 107 53 9 96 48 8 83 41 6 69 34 5 54 27 3 35 17 2 25
12 229 206 206 230 207 207 230 207 207 230 207 207 230 207 207 230
207 207 230 207 207 231 207 207 231 208 208 231 208 208 231 208 208
231 208 208 231 208 208 231 208 208 231 208 208 231 208 208 231 208
208 231 208 208 231 208 208 231 208 208 231 208 208 231 208 208 231
208 208 231 208 208 231 208 208 231 208 208 231 208 208 231 208 208
231 208 208 231 208 208 231 208 208 231 208 208 231 208 208 231 208
208 231 207 207
77 69 69 77 69 69 76 69 69 76 68 68 76 68 68 76 68 68 75 68 68 75 68
68 75 67 67 75 67 67 74 67 67 74 67 67 74 66 66 74 66 66 73 66 66 73
66 66 73 65 65 73 65 65 72 65 65 72 65 65 72 64 64 18 181 90 19 196
98 19 198 99 19 198 99 19 196 98 19 192 96 19 189 94 71 237 145 45
205 116 17 171 86 16 165 82 15 158 79 15 150 75 14 142 71 13 133 66
12 124 62 11 114 57 10 104 52 9 93 46 8 80 40 6 67 33 5 52 26 3 34 17
2 25 12 2 25 12 229 206 206 229 206 206 229 206 206 230 207 207 230
207 207 230 207 207 230 207 207 230 207 207 230 207 207 230 207 207
230 207 207 230 207 207 230 207 207 231 207 207 231 207 207 231 207
207 231 208 208 231 208 208 231 208 208 231 208 208 231 208 208 231
208 208 231 207 207 231 207 207 231 207 207 231 207 207 230 207 207
230 207 207 230 207 207 230 207 207 230 207 207 230 207 207 230 207
207 230 207 207
77 69 69 76 69 69 76 69 69 76 68 68 76 68 68 75 68 68 75 68 68 75 67
67 75 67 67 75 67 67 74 67 67 74 67 67 74 66 66 73 66 66 73 66 66 73
66 66 73 65 65 72 65 65 72 65 65 72 65 65 72 64 64 18 184 92 19 193
96 19 195 97 19 194 97 19 191 95 18 188 94 18 184 92 32 194 104 20
176 89 16 167 83 16 160 80 15 153 76 14 146 73 13 138 69 12 129 64 12
120 60 11 110 55 10 100 50 8 89 44 7 77 38 6 63 31 4 49 24 3 32 16 2
25 12 2 25 12 228 205 205 229 206 206 229 206 206 229 206 206 229 206
206 229 206 206 229 206 206 230 207 207 230 207 207 230 207 207 230
207 207 230 207 207 230 207 207 230 207 207 230 207 207 230 207 207
230 207 207 230 207 207 230 207 207 230 207 207 230 207 207 230 207
207 230 207 207 230 207 207 230 207 207 230 207 207 230 207 207 230
207 207 230 207 207 230 207 207 230 207 207 230 207 207 230 207 207
230 207 207
76 69 69 76 69 69 76 68 68 76 68 68 76 68 68 75 68 68 75 68 68 75 67
67 75 67 67 74 67 67 74 67 67 74 66 66 74 66 66 73 66 66 73 66 66 73
65 65 73 65 65 72 65 65 72 65 65 72 64 64 71 64 64 18 182 91 18 189
94 19 190 95 18 189 94 18 186 93 18 183 91 17 179 89 17 174 87 16 168
84 16 162 81 15 155 77 14 148 74 14 141 70 13 133 66 12 124 62 11 115
57 10 106 53 9 95 47 8 84 42 7 72 36 5 59 29 4 45 22 2 28 14 2 25 12
2 25 12 228 205 205 228 205 205 228 205 205 228 206 206 229 206 206
229 206 206 229 206 206 229 206 206 229 206 206 229 206 206 229 206
206 229 206 206 229 206 206 229 206 206 230 207 207 230 207 207 230
207 207 230 207 207 230 207 207 230 207 207 230 207 207 230 207 207
230 207 207 230 207 207 230 207 207 230 207 207 230 207 207 230 207
207 229 206 206 229 206 206 229 206 206 229 206 206 229 206 206 229
206 206
76 69 69 76 68 68 76 68 68 76 68 68 75 68 68 75 68 68 75 67 67 75 67
67 74 67 67 74 67 67 74 67 67 74 66 66 73 66 66 73 66 66 73 66 66 73
65 65 72 65 65 72 65 65 72 65 65 72 64 64 71 64 64 17 178 89 18 184
92 18 185 92 18 183 91 18 181 90 17 177 88 17 173 86 16 168 84 16 163
81 15 157 78 15 150 75 14 143 71 13 135 67 12 128 64 11 119 59 11 110
55 10 100 50 9 90 45 7 79 39 6 67 33 5 54 27 4 40 20 2 25 12 2 25 12
2 25 12 227 204 204 227 205 205 228 205 205 228 205 205 228 205 205
228 205 205 228 205 205 228 206 206 229 206 206 229 206 206 229 206
206 229 206 206 229 206 206 229 206 206 229 206 206 229 206 206 229
206 206 229 206 206 229 206 206 229 206 206 229 206 206 229 206 206
229 206 206 229 206 206 229 206 206 229 206 206 229 206 206 229 206
206 229 206 206 229 206 206 229 206 206 229 206 206 229 206 206 229
206 206
76 68 68 76 68 68 76 68 68 75 68 68 75 68 68 75 67 67 75 67 67 75 67
67 74 67 67 74 67 67 74 66 66 74 66 66 73 66 66 73 66 66 73 65 65 72
65 65 72 65 65 72 65 65 72 64 64 71 64 64 71 64 64 17 171 85 17 177
88 17 178 89 17 177 88 17 175 87 17 171 85 16 167 83 16 162 81 15 157
78 15 151 75 14 144 72 13 137 68 13 130 65 12 122 61 11 113 56 10 104
52 9 95 47 8 84 42 7 73 36 6 62 31 4 49 24 3 34 17 2 25 12 2 25 12 2
25 12 227 204 204 227 204 204 227 204 204 227 204 204 227 205 205 228
205 205 228 205 205 228 205 205 228 205 205 228 205 205 228 205 205
228 205 205 228 205 205 228 206 206 228 206 206 229 206 206 229 206
206 229 206 206 229 206 206 229 206 206 229 206 206 229 206 206 229
206 206 229 206 206 229 206 206 229 206 206 229 206 206 229 206 206
229 206 206 229 206 206 229 206 206 228 206 206 228 206 206 228 206
206
76 68 68 76 68 68 76 68 68 75 68 68 75 68 68 75 67 67 75 67 67 74 67
67 74 67 67 74 66 66 74 66 66 73 66 66 73 66 66 73 66 66 73 65 65 72
65 65 72 65 65 72 65 65 72 64 64 71 64 64 71 64 64 16 163 81 17 170
85 17 171 85 17 170 85 16 168 84 16 165 82 16 160 80 15 156 78 15 150
75 14 144 72 13 138 69 13 131 65 12 123 61 11 115 57 10 107 53 9 98
49 8 88 44 7 78 39 6 67 33 5 55 27 4 42 21 2 28 14 2 25 12 2 25 12 2
25 12 226 203 203 226 204 204 226 204 204 227 204 204 227 204 204 227
204 204 227 204 204 227 204 204 227 205 205 228 205 205 228 205 205
228 205 205 228 205 205 228 205 205 228 205 205 228 205 205 228 205
205 228 205 205 228 205 205 228 205 205 228 205 205 228 205 205 228
205 205 228 205 205 228 205 205 228 205 205 228 205 205 228 205 205
228 205 205 228 205 205 228 205 205 228 205 205 228 205 205 228 205
205
76 68 68 76 68 68 75 68 68 75 68 68 75 67 67 75 67 67 74 67 67 74 67
67 74 67 67 74 66 66 73 66 66 73 66 66 73 66 66 73 65 65 72 65 65 72
65 65 72 65 65 72 64 64 71 64 64 71 64 64 71 64 64 15 154 77 16 162
81 16 163 81 16 163 81 16 161 80 15 157 78 15 153 76 14 149 74 14 143
71 13 137 68 13 131 65 12 124 62 11 117 58 10 109 54 10 100 50 9 91
45 8 82 41 7 71 35 6 60 30 4 48 24 3 35 17 2 25 12 2 25 12 2 25 12 2
25 12 225 203 203 226 203 203 226 203 203 226 203 203 226 204 204 226
204 204 227 204 204 227 204 204 227 204 204 227 204 204 227 204 204
227 204 204 227 204 204 79 159 15 84 168 16 83 167 16 79 159 15 74
148 14 65 130 13 52 104 10 228 205 205 228 205 205 228 205 205 228
205 205 228 205 205 228 205 205 228 205 205 228 205 205 228 205 205
228 205 205 228 205 205 228 205 205 228 205 205 228 205 205
76 68 68 75 68 68 75 68 68 75 67 67 75 67 67 75 67 67 74 67 67 74 67
67 74 66 66 74 66 66 73 66 66 73 66 66 73 65 65 73 65 65 72 65 65 72
65 65 72 65 65 71 64 64 71 64 64 71 64 64 71 64 64 14 141 70 15 152
76 15 155 77 15 154 77 15 153 76 15 150 75 14 146 73 14 141 70 13 136
68 13 130 65 12 123 61 11 117 58 10 109 54 10 101 50 9 93 46 8 84 42
7 74 37 6 64 32 5 53 26 4 40 20 2 27 13 2 25 12 2 25 12 2 25 12 2 25
12 225 202 202 225 202 202 225 203 203 225 203 203 226 203 203 226
203 203 226 203 203 226 203 203 226 204 204 226 204 204 227 204 204
227 204 204 91 182 18 94 189 18 94 189 18 92 184 18 88 176 17 82 165
16 75 151 15 66 133 13 54 109 10 35 70 7 227 204 204 227 204 204 227
204 204 227 204 204 227 204 204 227 204 204 227 204 204 227 204 204
227 204 204 227 204 204 227 204 204 227 204 204
76 68 68 75 68 68 75 68 68 75 67 67 75 67 67 74 67 67 74 67 67 74 66
66 74 66 66 73 66 66 73 66 66 73 66 66 73 65 65 72 65 65 72 65 65 72
65 65 72 64 64 71 64 64 71 64 64 71 64 64 71 63 63 70 63 63 14 140 70
14 145 72 14 145 72 14 144 72 14 141 70 13 137 68 13 133 66 12 128 64
12 122 61 11 115 57 10 109 54 10 101 50 9 93 46 8 85 42 7 76 38 6 66
33 5 56 28 4 44 22 3 32 16 2 25 12 2 25 12 2 25 12 2 25 12 2 25 12
224 202 202 224 202 202 225 202 202 225 202 202 225 202 202 225 203
203 225 203 203 226 203 203 226 203 203 226 203 203 226 203 203 94
188 18 98 197 19 99 199 19 98 197 19 95 191 19 91 183 18 86 173 17 80
160 16 72 144 14 62 124 12 49 98 9 29 58 5 227 204 204 227 204 204
227 204 204 227 204 204 227 204 204 227 204 204 227 204 204 227 204
204 227 204 204 227 204 204 227 204 204
75 68 68 75 68 68 75 67 67 75 67 67 74 67 67 74 67 67 74 67 67 74 66
66 73 66 66 73 66 66 73 66 66 73 65 65 72 65 65 72 65 65 72 65 65 72
64 64 71 64 64 71 64 64 71 64 64 71 64 64 70 63 63 70 63 63 12 126 63
13 133 66 13 135 67 13 134 67 13 131 65 12 128 64 12 124 62 11 119 59
11 113 56 10 107 53 10 100 50 9 93 46 8 85 42 7 76 38 6 67 33 5 57 28
4 46 23 3 35 17 2 25 12 2 25 12 2 25 12 2 25 12 2 25 12 138 124 124
138 124 124 137 124 124 224 201 201 224 202 202 224 202 202 225 202
202 225 202 202 225 202 202 225 203 203 225 203 203 91 182 18 98 197
19 101 203 20 101 203 20 100 200 20 97 194 19 93 186 18 87 175 17 81
163 16 74 148 14 65 130 13 54 108 10 39 78 7 13 26 2 226 204 204 226
204 204 226 204 204 226 204 204 226 204 204 226 204 204 226 204 204
226 204 204 226 204 204 226 204 204
75 68 68 75 67 67 75 67 67 75 67 67 74 67 67 74 67 67 74 66 66 74 66
66 73 66 66 73 66 66 73 66 66 73 65 65 72 65 65 72 65 65 72 65 65 72
64 64 71 64 64 71 64 64 71 64 64 70 63 63 70 63 63 70 63 63 10 103 51
11 119 59 12 123 61 12 123 61 12 121 60 11 118 59 11 114 57 10 109 54
10 104 52 9 97 48 9 91 45 8 83 41 7 75 37 6 67 33 5 57 28 4 47 23 3
37 18 2 25 12 2 25 12 2 25 12 2 25 12 2 25 12 2 25 12 141 127 127 141
127 127 140 126 126 140 126 126 140 126 126 139 125 125 139 125 125
139 125 125 138 124 124 138 124 124 78 157 15 94 189 18 99 199 19 101
203 20 101 202 20 99 199 19 96 193 19 92 184 18 87 174 17 81 162 16
74 148 14 65 131 13 55 110 11 42 85 8 24 49 4 226 203 203 226 203 203
226 203 203 226 203 203 226 203 203 226 203 203 226 203 203 226 203
203 226 203 203 226 203 203
75 67 67 75 67 67 75 67 67 74 67 67 74 67 67 74 66 66 74 66 66 73 66
66 73 66 66 73 66 66 73 65 65 72 65 65 72 65 65 72 65 65 72 64 64 71
64 64 71 64 64 71 64 64 71 63 63 154 138 138 153 138 138 153 138 138
153 137 137 10 100 50 10 108 54 11 110 55 10 109 54 10 107 53 10 103
51 9 98 49 9 93 46 8 87 43 8 80 40 7 73 36 6 65 32 5 56 28 4 47 23 3
37 18 2 25 12 2 25 12 2 25 12 2 25 12 2 25 12 2 25 12 144 130 130 144
130 130 144 129 129 143 129 129 143 128 128 142 128 128 142 128 128
142 127 127 141 127 127 141 127 127 141 126 126 83 167 16 94 189 18
98 197 19 99 199 19 99 198 19 159 255 81 95 190 20 90 181 18 85 171
17 79 159 15 72 145 14 64 129 12 54 109 10 42 85 8 27 54 5 12 25 2
225 203 203 225 203 203 225 203 203 225 203 203 225 203 203 225 203
203 225 203 203 225 203 203 225 203 203
75 67 67 75 67 67 74 67 67 74 67 67 74 67 67 74 66 66 73 66 66 73 66
66 73 66 66 73 65 65 73 65 65 72 65 65 158 142 142 185 148 18 178 142
17 161 129 16 139 111 13 113 90 11 80 64 8 26 21 2 155 140 140 155
140 140 155 139 139 154 139 139 8 89 44 9 95 47 9 95 47 9 94 47 9 91
45 8 87 43 8 81 40 7 76 38 6 69 34 6 62 31 5 54 27 4 45 22 3 35 17 2
25 12 2 25 12 2 25 12 2 25 12 2 25 12 2 25 12 147 132 132 147 132 132
146 132 132 146 131 131 146 131 131 145 131 131 145 130 130 144 130
130 144 130 130 144 129 129 143 129 129 143 129 129 82 164 16 91 183
18 95 191 19 96 193 19 96 192 19 94 189 19 91 182 18 87 175 17 82 165
16 76 153 15 70 140 14 62 124 12 52 105 10 41 82 8 26 53 5 12 25 2
225 202 202 225 202 202 225 202 202 225 202 202 225 202 202 225 202
202 225 202 202 225 202 202 225 202 202
75 67 67 74 67 67 74 67 67 74 67 67 74 66 66 162 146 146 162 146 146
162 146 146 161 145 145 161 145 145 161 145 145 160 144 144 200 160
20 194 155 19 180 144 18 162 129 16 140 112 14 114 91 11 84 67 8 48
38 4 25 20 2 157 141 141 157 141 141 156 141 141 156 140 140 7 74 37
7 79 39 7 79 39 7 77 38 7 73 36 6 68 34 6 63 31 5 56 28 4 49 24 4 41
20 3 32 16 2 25 12 2 25 12 2 25 12 2 25 12 2 25 12 2 25 12 149 134
134 149 134 134 149 134 134 148 133 133 148 133 133 148 133 133 147
132 132 147 132 132 147 132 132 146 132 132 146 131 131 145 131 131
145 131 131 77 155 15 87 174 17 91 182 18 92 185 18 92 184 18 90 180
18 87 174 17 83 166 16 78 157 15 72 145 14 66 132 13 58 116 11 49 98
9 37 75 7 23 46 4 12 25 2 139 125 125 139 125 125 138 124 124 138 124
124 224 202 202 224 202 202 224 202 202 224 202 202 224 202 202
166 149 149 165 149 149 165 149 149 165 148 148 164 148 148 164 148
148 164 147 147 163 147 147 163 147 147 163 146 146 162 146 146 200
160 20 201 161 20 190 152 19 175 140 17 156 125 15 134 107 13 109 87
10 80 64 8 46 37 4 25 20 2 159 143 143 158 143 143 158 142 142 158
142 142 157 142 142 5 54 27 5 59 29 5 59 29 5 57 28 5 53 26 4 48 24 4
41 20 3 34 17 2 26 13 2 25 12 2 25 12 2 25 12 2 25 12 2 25 12 2 25 12
152 136 136 151 136 136 151 136 136 151 135 135 150 135 135 150 135
135 150 135 135 149 134 134 149 134 134 148 134 134 148 133 133 148
133 133 147 133 133 147 132 132 69 139 13 80 161 16 85 170 17 86 173
17 86 173 17 84 169 16 82 164 16 78 156 15 73 147 14 67 135 13 61 122
12 53 106 10 44 88 8 32 65 6 18 36 3 12 25 2 141 127 127 141 126 126
140 126 126 140 126 126 140 126 126 139 125 125 139 125 125 138 125
125 138 124 124
167 150 150 167 150 150 166 150 150 166 150 150 166 149 149 166 149
149 165 149 149 165 148 148 165 148 148 164 148 148 164 147 147 199
159 19 194 155 19 202 166 39 165 132 16 146 117 14 124 99 12 99 79 9
71 56 7 38 30 3 25 20 2 25 20 2 160 144 144 160 144 144 159 143 143
159 143 143 159 143 143 2 25 12 3 35 17 3 36 18 3 33 16 2 29 14 2 25
12 2 25 12 2 25 12 2 25 12 2 25 12 2 25 12 2 25 12 2 25 12 154 138
138 153 138 138 153 138 138 153 137 137 152 137 137 152 137 137 152
136 136 151 136 136 151 136 136 150 135 135 150 135 135 150 135 135
149 134 134 149 134 134 149 134 134 56 113 11 72 144 14 77 155 15 79
159 15 79 159 15 78 156 15 75 151 15 72 144 14 67 134 13 61 123 12 55
110 11 47 94 9 37 75 7 26 52 5 12 25 2 12 25 2 143 128 128 142 128
128 142 128 128 142 128 128 141 127 127 141 127 127 141 127 127 140
126 126 140 126 126
168 151 151 168 151 151 168 151 151 167 151 151 167 150 150 167 150
150 166 150 150 166 149 149 166 149 149 165 149 149 165 149 149 189
151 18 182 145 18 169 135 16 152 122 15 133 106 13 111 89 11 86 69 8
58 46 5 25 20 2 25 20 2 25 20 2 161 145 145 161 145 145 161 144 144
160 144 144 160 144 144 160 144 144 159 143 143 159 143 143 2 25 12 2
25 12 2 25 12 2 25 12 2 25 12 2 25 12 2 25 12 156 140 140 156 140 140
155 140 140 155 140 140 155 139 139 154 139 139 154 139 139 154 138
138 153 138 138 153 138 138 153 137 137 152 137 137 152 137 137 152
136 136 151 136 136 151 136 136 151 135 135 150 135 135 150 135 135
60 120 12 68 136 13 71 142 14 71 143 14 70 141 14 68 136 13 64 129 12
60 120 12 54 108 10 47 95 9 39 79 7 29 59 5 17 35 3 12 25 2 145 130
130 145 130 130 144 130 130 144 129 129 144 129 129 143 129 129 143
129 129 143 128 128 142 128 128 142 128 128
169 152 152 169 152 152 169 152 152 168 152 152 168 151 151 168 151
151 168 151 151 167 150 150 167 150 150 167 150 150 166 150 150 173
138 17 166 133 16 153 123 15 137 109 13 117 94 11 95 76 9 70 56 7 41
33 4 25 20 2 25 20 2 25 20 2 162 146 146 162 146 146 162 145 145 161
145 145 161 145 145 161 145 145 160 144 144 160 144 144 160 144 144
159 143 143 159 143 143 159 143 143 158 142 142 158 142 142 158 142
142 157 142 142 157 141 141 157 141 141 156 141 141 156 140 140 156
140 140 155 140 140 155 139 139 155 139 139 154 139 139 154 139 139
154 138 138 153 138 138 153 138 138 153 137 137 152 137 137 152 137
137 152 136 136 151 136 136 39 79 7 55 110 11 60 120 12 61 123 12 61
122 12 59 118 11 55 111 11 51 102 10 45 91 9 38 77 7 30 60 6 19 39 3
12 25 2 12 25 2 146 132 132 146 131 131 146 131 131 145 131 131 145
131 131 145 130 130 144 130 130 144 130 130 144 129 129 143 129 129
170 153 153 170 153 153 170 153 153 169 152 152 169 152 152 169 152
152 168 152 152 168 151 151 168 151 151 168 151 151 167 150 150 153
122 15 147 117 14 135 108 13 118 94 11 99 79 9 76 61 7 51 41 5 25 20
2 25 20 2 25 20 2 164 147 147 163 147 147 163 147 147 163 146 146 162
146 146 162 146 146 162 146 146 161 145 145 161 145 145 161 145 145
160 144 144 160 144 144 160 144 144 159 143 143 159 143 143 159 143
143 159 143 143 158 142 142 158 142 142 158 142 142 157 141 141 157
141 141 157 141 141 156 141 141 156 140 140 156 140 140 155 140 140
155 139 139 155 139 139 154 139 139 154 138 138 154 138 138 153 138
138 153 138 138 153 137 137 152 137 137 34 68 6 45 90 9 48 97 9 49 98
9 47 95 9 44 89 8 40 80 8 34 69 6 27 54 5 18 36 3 12 25 2 12 25 2 148
133 133 148 133 133 147 133 133 147 132 132 147 132 132 147 132 132
146 132 132 146 131 131 146 131 131 145 131 131 145 130 130
171 154 154 171 154 154 171 153 153 170 153 153 170 153 153 170 153
153 169 152 152 169 152 152 169 152 152 168 152 152 168 151 151 124
99 12 123 98 12 112 89 11 96 77 9 77 61 7 54 43 5 28 22 2 25 20 2 25
20 2 25 20 2 165 148 148 164 148 148 164 148 148 164 147 147 163 147
147 163 147 147 163 146 146 162 146 146 162 146 146 162 146 146 161
145 145 161 145 145 161 145 145 160 144 144 160 144 144 160 144 144
160 144 144 159 143 143 159 143 143 159 143 143 158 142 142 158 142
142 158 142 142 157 142 142 157 141 141 157 141 141 156 141 141 156
140 140 156 140 140 155 140 140 155 140 140 155 139 139 154 139 139
154 139 139 154 138 138 153 138 138 153 138 138 17 34 3 30 60 6 33 66
6 33 66 6 30 61 6 26 52 5 20 40 4 12 25 2 12 25 2 12 25 2 150 135 135
149 134 134 149 134 134 149 134 134 148 134 134 148 133 133 148 133
133 148 133 133 147 132 132 147 132 132 147 132 132 146 132 132
172 155 155 172 154 154 171 154 154 171 154 154 171 154 154 170 153
153 170 153 153 170 153 153 169 152 152 169 152 152 169 152 152 169
152 152 90 72 9 83 67 8 69 55 6 50 40 5 27 21 2 25 20 2 25 20 2 25 20
2 166 149 149 165 149 149 165 149 149 165 148 148 165 148 148 164 148
148 164 147 147 164 147 147 163 147 147 163 147 147 163 146 146 162
146 146 162 146 146 162 146 146 161 145 145 161 145 145 161 145 145
160 144 144 160 144 144 160 144 144 160 144 144 159 143 143 159 143
143 159 143 143 158 142 142 158 142 142 158 142 142 157 142 142 157
141 141 157 141 141 156 141 141 156 140 140 156 140 140 156 140 140
155 140 140 155 139 139 155 139 139 154 139 139 154 139 139 154 138
138 12 25 2 12 25 2 12 25 2 12 25 2 12 25 2 12 25 2 152 136 136 151
136 136 151 136 136 151 135 135 150 135 135 150 135 135 150 135 135
149 134 134 149 134 134 149 134 134 148 134 134 148 133 133 148 133
133 148 133 133
172 155 155 172 155 155 172 155 155 172 154 154 171 154 154 171 154
154 171 154 154 170 153 153 170 153 153 170 153 153 170 153 153 169
152 152 169 152 152 39 31 3 31 25 3 25 20 2 25 20 2 25 20 2 167 150
150 167 150 150 167 150 150 166 150 150 166 149 149 166 149 149 165
149 149 165 148 148 165 148 148 164 148 148 164 148 148 164 147 147
163 147 147 163 147 147 163 147 147 163 146 146 162 146 146 162 146
146 162 145 145 161 145 145 161 145 145 161 145 145 160 144 144 160
144 144 160 144 144 160 144 144 159 143 143 159 143 143 159 143 143
158 142 142 158 142 142 158 142 142 157 142 142 157 141 141 157 141
141 156 141 141 156 141 141 156 140 140 156 140 140 155 140 140 155
139 139 155 139 139 154 139 139 154 139 139 154 138 138 153 138 138
153 138 138 153 138 138 153 137 137 152 137 137 152 137 137 152 136
136 151 136 136 151 136 136 151 136 136 151 135 135 150 135 135 150
135 135 150 135 135 149 134 134 149 134 134 149 134 134
173 156 156 173 155 155 172 155 155 172 155 155 172 155 155 172 154
154 171 154 154 171 154 154 171 154 154 170 153 153 170 153 153 170
153 153 170 153 153 169 152 152 169 152 152 169 152 152 168 151 151
168 151 151 168 151 151 167 151 151 167 150 150 167 150 150 167 150
150 166 150 150 166 149 149 166 149 149 165 149 149 165 149 149 165
148 148 164 148 148 164 148 148 164 147 147 164 147 147 163 147 147
163 147 147 163 146 146 162 146 146 162 146 146 162 146 146 162 145
145 161 145 145 161 145 145 161 145 145 160 144 144 160 144 144 160
144 144 159 143 143 159 143 143 159 143 143 159 143 143 158 142 142
158 142 142 158 142 142 157 142 142 157 141 141 157 141 141 156 141
141 156 141 141 156 140 140 156 140 140 155 140 140 155 139 139 155
139 139 154 139 139 154 139 139 154 138 138 154 138 138 153 138 138
153 138 138 153 137 137 152 137 137 152 137 137 152 137 137 152 136
136 151 136 136 151 136 136 151 136 136 150 135 135 150 135 135 150
135 135
174 156 156 173 156 156 173 156 156 173 155 155 172 155 155 172 155
155 172 155 155 172 154 154 171 154 154 171 154 154 171 154 154 170
153 153 170 153 153 170 153 153 170 153 153 169 152 152 169 152 152
169 152 152 168 151 151 168 151 151 168 151 151 167 151 151 167 150
150 167 150 150 167 150 150 166 150 150 166 149 149 166 149 149 165
149 149 165 149 149 165 148 148 165 148 148 164 148 148 164 148 148
164 147 147 163 147 147 163 147 147 163 147 147 163 146 146 162 146
146 162 146 146 162 145 145 161 145 145 161 145 145 161 145 145 161
144 144 160 144 144 160 144 144 160 144 144 159 143 143 159 143 143
159 143 143 159 143 143 158 142 142 158 142 142 158 142 142 157 142
142 157 141 141 157 141 141 156 141 141 156 141 141 156 140 140 156
140 140 155 140 140 155 140 140 155 139 139 155 139 139 154 139 139
154 138 138 154 138 138 153 138 138 153 138 138 153 137 137 153 137
137 152 137 137 152 137 137 152 136 136 151 136 136 151 136 136 151
136 136
174 156 156 174 156 156 173 156 156 173 156 156 173 155 155 173 155
155 172 155 155 172 155 155 172 154 154 171 154 154 171 154 154 171
154 154 171 153 153 170 153 153 170 153 153 170 153 153 169 152 152
169 152 152 169 152 152 169 152 152 168 151 151 168 151 151 168 151
151 167 151 151 167 150 150 167 150 150 167 150 150 166 150 150 166
149 149 166 149 149 165 149 149 165 149 149 165 148 148 165 148 148
164 148 148 164 148 148 164 147 147 163 147 147 163 147 147 163 147
147 163 146 146 162 146 146 162 146 146 162 146 146 162 145 145 161
145 145 161 145 145 161 145 145 160 144 144 160 144 144 160 144 144
160 144 144 159 143 143 159 143 143 159 143 143 158 143 143 158 142
142 158 142 142 158 142 142 157 142 142 157 141 141 157 141 141 156
141 141 156 141 141 156 140 140 156 140 140 155 140 140 155 140 140
155 139 139 155 139 139 154 139 139 154 139 139 154 138 138 153 138
138 153 138 138 153 138 138 153 137 137 152 137 137 152 137 137 152
137 137
