P3
50 25
255
242 64 71 242 64 71 242 63 70 242 63 70 242 63 70 241 62 69 241 62 69
241 62 68 241 61 68 241 61 68 241 61 67 240 60 67 240 60 66 240 59 66
240 59 66 239 59 65 239 58 65 238 58 64 238 57 64 237 57 63 237 56 63
236 56 62 235 55 62 234 55 61 233 54 61 177 191 212 178 191 213 179
192 213 180 192 213 181 192 213 182 192 214 182 192 214 183 192 214
184 192 214 185 193 214 185 193 214 186 192 214 187 192 214 187 192
214 188 192 214 188 192 214 189 192 214 189 192 213 190 192 213 191
192 213 191 192 213 192 192 213 192 191 213 193 191 213 193 191 212
242 64 71 241 63 70 241 63 70 241 63 70 241 62 69 241 62 69 241 62 69
241 61 68 241 61 68 241 61 68 240 60 67 240 60 67 240 60 66 240 59 66
239 59 65 239 58 65 239 58 64 238 58 64 238 57 64 237 57 63 236 56 63
236 56 62 235 55 62 234 55 61 233 54 60 177 190 212 178 191 212 179
191 212 180 191 213 180 191 213 181 192 213 182 192 213 183 192 213
183 192 213 184 192 213 185 192 213 185 192 213 186 192 213 187 192
213 187 192 213 188 192 213 189 192 213 189 192 213 190 191 213 190
191 213 191 191 212 191 191 212 192 191 212 192 191 212 193 191 212
241 63 71 241 63 70 241 63 70 241 63 70 241 62 69 241 62 69 241 62 68
241 61 68 241 61 68 240 61 67 240 60 67 240 60 66 240 59 66 239 59 66
239 59 65 239 58 65 238 58 64 238 57 64 237 57 63 237 57 63 236 56 62
235 56 62 235 55 61 234 55 61 233 54 60 176 190 211 177 190 211 178
190 211 179 191 212 180 191 212 181 191 212 182 191 212 182 191 212
183 191 213 184 191 213 184 191 213 185 191 213 186 191 213 186 191
213 187 191 212 188 191 212 188 191 212 189 191 212 189 191 212 190
191 212 190 191 212 191 191 212 191 190 212 192 190 211 192 190 211
241 63 70 241 63 70 241 63 70 241 62 69 241 62 69 241 62 69 240 61 68
240 61 68 240 61 67 240 60 67 240 60 67 240 60 66 239 59 66 239 59 65
239 58 65 238 58 65 238 58 64 238 57 64 237 57 63 236 56 63 236 56 62
235 55 62 234 55 61 234 55 61 233 54 60 176 189 210 177 189 210 178
190 211 179 190 211 180 190 211 180 190 211 181 190 212 182 190 212
183 191 212 183 191 212 184 191 212 185 191 212 185 191 212 186 191
212 187 191 212 187 191 212 188 190 212 188 190 212 189 190 212 189
190 211 190 190 211 190 190 211 191 190 211 191 190 211 192 190 211
241 63 70 241 63 70 241 62 69 240 62 69 240 62 69 240 62 68 240 61 68
240 61 68 240 61 67 240 60 67 240 60 67 239 59 66 239 59 66 239 59 65
238 58 65 238 58 64 238 57 64 237 57 63 237 57 63 13 145 80 14 137 76
15 124 69 14 106 59 233 54 60 232 54 60 175 188 209 176 189 210 177
189 210 178 189 210 179 189 210 180 190 211 181 190 211 181 190 211
182 190 211 183 190 211 184 190 211 184 190 211 185 190 211 185 190
211 186 190 211 187 190 211 187 190 211 188 190 211 188 190 211 189
190 211 189 190 211 190 189 211 191 189 210 191 189 210 192 189 210
240 63 70 240 63 70 240 62 69 240 62 69 240 62 69 240 61 68 240 61 68
240 61 67 240 60 67 239 60 67 239 60 66 239 59 66 239 59 65 238 58 65
238 58 65 238 58 64 237 57 64 13 170 94 15 166 92 17 159 88 17 149 82
18 136 76 18 122 68 17 105 58 16 82 45 175 187 208 176 188 209 177
188 209 178 188 209 179 189 210 179 189 210 180 189 210 181 189 210
182 189 210 182 189 210 183 189 210 184 189 210 184 189 211 185 189
210 186 189 210 186 189 210 187 189 210 187 189 210 188 189 210 189
189 210 189 189 210 190 189 210 190 189 210 191 189 210 191 189 210
240 63 70 240 62 69 240 62 69 240 62 69 240 61 68 240 61 68 239 61 68
239 60 67 239 60 67 239 60 66 239 59 66 239 59 66 238 59 65 238 58 65
238 58 64 3 22 12 13 180 100 16 176 98 17 170 94 18 161 89 19 151 84
19 139 77 19 125 69 19 110 61 18 91 51 17 68 38 14 30 17 176 187 208
177 188 209 178 188 209 179 188 209 180 188 209 180 188 209 181 189
210 182 189 210 183 189 210 183 189 210 184 189 210 185 189 210 185
189 210 186 189 210 186 189 210 187 189 210 188 189 210 188 189 210
189 188 209 189 188 209 190 188 209 190 188 209 191 188 209
240 63 70 240 62 69 239 62 69 239 62 68 239 61 68 239 61 68 239 61 67
239 60 67 239 60 67 239 60 66 238 59 66 238 59 65 238 59 65 238 58 65
3 22 12 12 183 101 15 181 100 16 176 98 18 169 94 19 160 89 19 149 83
20 138 76 20 125 69 20 110 61 19 93 51 19 73 40 17 48 26 176 187 207
177 187 208 177 187 208 178 187 208 179 188 208 180 188 209 181 188
209 181 188 209 182 188 209 183 188 209 183 188 209 184 188 209 185
188 209 185 188 209 186 188 209 186 188 209 187 188 209 188 188 209
188 188 209 189 188 209 189 188 209 190 188 209 190 188 208
239 62 69 239 62 69 239 62 69 239 61 68 239 61 68 239 61 68 239 60 67
33 20 22 33 20 22 33 20 22 33 20 22 33 20 22 33 20 22 33 20 22 3 22
12 13 182 101 15 179 99 17 173 96 18 165 92 19 156 87 20 146 81 20
134 74 20 122 67 20 107 59 20 91 50 19 73 40 18 50 28 16 22 12 176
186 207 177 186 207 178 187 207 179 187 208 179 187 208 180 187 208
181 187 208 182 187 208 182 187 208 183 187 208 184 187 208 184 187
208 185 187 208 185 187 208 186 187 208 187 187 208 187 187 208 188
187 208 188 187 208 189 187 208 189 187 208 190 187 208
239 62 69 239 62 69 239 61 68 239 61 68 239 61 68 238 61 67 33 20 22
33 20 22 33 20 22 33 20 22 33 20 22 33 20 22 33 20 22 3 22 12 3 22 12
14 179 99 16 174 97 20 173 99 27 176 106 19 151 84 19 141 78 20 130
72 20 117 65 20 103 57 20 87 48 19 70 38 18 49 27 17 22 12 176 185
206 176 186 206 177 186 207 178 186 207 179 186 207 180 186 207 180
187 207 181 187 207 182 187 208 182 187 208 183 187 208 184 187 208
184 187 208 185 187 208 186 187 208 186 187 208 187 187 208 187 187
207 188 187 207 188 187 207 189 187 207 189 186 207
238 62 69 238 62 68 238 61 68 238 61 68 238 61 67 33 20 22 33 20 22
33 20 22 33 20 22 33 20 22 33 20 22 33 20 22 33 20 22 3 22 12 11 174
96 14 173 96 15 168 93 18 163 91 18 154 86 18 145 80 19 135 75 20 123
68 20 111 61 20 97 54 20 82 45 19 64 36 18 44 24 17 22 12 16 22 12
176 185 205 177 185 206 177 185 206 178 186 206 179 186 206 180 186
207 181 186 207 181 186 207 182 186 207 183 186 207 183 186 207 184
186 207 184 186 207 185 186 207 186 186 207 186 186 207 187 186 207
187 186 207 188 186 207 188 186 207 189 186 207
238 62 69 238 61 68 238 61 68 238 61 68 33 20 22 33 20 22 33 20 22 33
20 22 33 20 22 33 20 22 33 20 22 33 20 22 33 20 22 3 22 12 11 167 92
13 165 91 15 161 89 16 154 85 17 146 81 18 137 76 19 127 70 19 116 64
19 104 57 28 90 50 32 75 41 19 58 32 18 38 21 17 22 12 16 22 12 175
184 205 176 184 205 177 185 205 178 185 205 178 185 206 179 185 206
180 185 206 181 185 206 181 185 206 182 185 206 183 186 206 183 186
206 184 186 206 185 186 206 185 186 206 186 186 206 186 186 206 187
185 206 187 185 206 188 185 206 188 185 206
238 61 68 238 61 68 237 61 68 237 61 67 33 20 22 33 20 22 33 20 22 33
20 22 33 20 22 33 20 22 33 20 22 33 20 22 33 20 22 3 22 12 3 22 12 12
156 86 14 152 84 15 145 80 16 138 76 17 129 71 18 119 66 18 107 59 19
95 53 19 82 45 18 66 37 18 49 27 17 29 16 17 22 12 16 22 12 175 183
204 175 184 204 176 184 204 177 184 205 178 184 205 179 184 205 179
185 205 180 185 205 181 185 205 181 185 205 182 185 205 183 185 206
183 185 206 184 185 206 185 185 206 185 185 206 186 185 206 186 185
205 187 185 205 187 185 205 188 185 205
237 61 68 237 61 68 237 61 67 237 60 67 33 20 22 33 20 22 33 20 22 33
20 22 33 20 22 33 20 22 33 20 22 33 20 22 33 20 22 3 22 12 3 22 12 11
145 81 13 141 78 14 135 75 16 128 71 16 119 66 17 109 60 17 98 54 18
85 47 18 72 40 17 57 31 17 39 22 16 22 12 16 22 12 15 22 12 174 182
203 175 183 203 176 183 203 177 183 204 177 183 204 178 184 204 179
184 204 180 184 204 56 153 17 72 152 16 81 139 15 83 115 12 183 184
205 183 184 205 184 184 205 185 184 205 185 184 205 186 184 205 186
184 205 187 184 205 187 184 205
237 61 68 237 61 68 237 60 67 236 60 67 33 20 22 33 20 22 33 20 22 33
20 22 33 20 22 33 20 22 33 20 22 33 20 22 33 20 22 3 22 12 3 22 12 10
133 74 12 129 72 13 124 69 14 116 64 15 108 60 16 98 54 16 87 48 16
74 41 17 61 33 16 45 25 16 27 15 16 22 12 15 22 12 13 22 12 173 182
202 174 182 202 175 182 203 176 183 203 177 183 203 177 183 203 16 22
2 16 22 2 72 177 19 84 170 18 92 157 17 97 138 15 97 110 12 88 66 7
184 184 204 184 184 204 185 184 204 185 184 204 186 184 204 186 184
204 187 184 204
236 61 68 236 61 67 236 60 67 33 20 22 33 20 22 33 20 22 33 20 22 33
20 22 33 20 22 33 20 22 33 20 22 33 20 22 33 20 22 33 20 22 3 22 12 8
118 65 10 116 64 12 111 61 13 104 57 14 95 53 14 86 47 15 74 41 15 62
34 15 48 26 15 32 18 15 22 12 15 22 12 14 22 12 136 113 125 136 112
125 136 112 124 174 181 202 175 182 202 176 182 202 177 182 202 16 22
2 62 183 20 77 181 20 88 174 19 96 161 17 101 143 15 103 119 13 100
86 9 83 27 3 184 183 203 184 183 203 185 183 203 185 183 203 186 183
203 186 183 203
236 61 67 236 60 67 236 60 67 235 60 66 33 20 22 33 20 22 33 20 22 33
20 22 33 20 22 33 20 22 33 20 22 33 20 22 33 20 22 33 20 22 3 22 12 3
22 12 8 99 55 10 95 53 11 89 49 12 81 45 13 71 39 13 60 33 13 47 26
13 33 18 13 22 12 14 22 12 13 22 12 11 22 12 141 116 129 141 116 129
141 115 128 141 115 128 141 114 127 141 114 126 16 22 2 16 22 2 62
180 20 78 180 22 87 170 19 95 157 17 100 140 15 103 118 13 102 88 9
93 45 5 183 182 203 184 182 203 184 182 203 185 182 203 185 182 203
186 182 203
235 60 67 235 60 67 235 60 67 235 60 66 33 20 22 33 20 22 33 20 22 33
20 22 154 138 19 182 121 16 189 96 13 175 63 8 120 18 2 33 20 22 33
20 22 3 22 12 3 22 12 8 77 42 9 72 40 10 64 35 11 55 30 11 43 24 11
30 17 11 22 12 12 22 12 12 22 12 11 22 12 145 120 133 145 119 133 145
119 132 145 118 131 145 118 131 145 117 130 145 117 130 16 22 2 16 22
2 58 170 18 72 168 18 83 160 17 91 148 16 97 131 14 113 110 12 99 82
9 92 42 4 146 112 124 183 182 202 184 182 202 184 182 202 185 182 202
185 182 202
147 134 149 147 134 149 147 133 148 147 133 148 147 133 147 147 132
147 147 132 146 137 146 20 181 135 18 201 116 16 206 90 12 196 59 8
165 19 2 33 20 22 33 20 22 33 20 22 3 22 12 3 22 12 6 49 27 7 43 24 8
34 19 8 22 12 9 22 12 10 22 12 10 22 12 9 22 12 33 20 22 33 20 22 33
20 22 33 20 22 33 20 22 149 120 134 149 120 133 149 119 133 16 22 2
16 22 2 16 22 2 65 153 17 76 146 16 84 134 14 90 117 13 93 96 10 92
68 7 86 28 3 149 114 127 149 114 127 149 113 126 149 113 126 149 113
125 150 112 125
33 20 22 33 20 22 33 20 22 33 20 22 33 20 22 150 134 149 150 133 148
146 137 19 181 123 17 199 103 14 203 77 10 194 47 6 173 18 2 120 18 2
33 20 22 33 20 22 33 20 22 33 20 22 3 22 12 3 22 12 5 22 12 6 22 12 6
22 12 6 22 12 33 20 22 33 20 22 33 20 22 33 20 22 33 20 22 33 20 22
33 20 22 33 20 22 33 20 22 33 20 22 152 121 135 16 22 2 16 22 2 55
132 14 66 126 14 75 115 12 80 98 10 83 77 8 82 48 5 78 22 2 152 117
130 152 116 129 152 116 129 152 115 128 153 115 128 153 114 127
33 20 22 33 20 22 33 20 22 33 20 22 33 20 22 33 20 22 33 20 22 131
119 16 166 105 14 182 85 11 185 59 8 175 28 3 166 18 2 153 132 147
153 131 146 153 131 146 153 131 145 153 130 145 153 130 144 153 129
144 153 129 143 153 128 143 153 128 142 153 128 142 153 127 141 153
127 141 153 126 140 33 20 22 33 20 22 33 20 22 33 20 22 33 20 22 33
20 22 33 20 22 33 20 22 16 22 2 16 22 2 40 104 11 53 100 11 61 89 9
67 72 8 69 50 5 67 22 2 155 119 132 155 119 132 155 118 131 155 118
131 155 117 130 155 117 130 155 117 130
154 138 154 33 20 22 33 20 22 33 20 22 33 20 22 33 20 22 33 20 22 92
92 12 133 81 11 151 61 8 153 35 4 150 18 2 140 18 2 154 133 148 155
133 148 155 132 147 155 132 147 155 132 146 155 131 146 155 131 145
155 130 145 155 130 144 155 129 144 155 129 143 155 129 143 155 128
142 155 128 142 155 127 142 155 127 141 156 127 141 156 126 140 33 20
22 33 20 22 33 20 22 33 20 22 33 20 22 16 22 2 16 22 2 33 62 6 42 53
5 47 35 3 51 22 2 157 121 135 157 121 134 157 120 134 157 120 133 157
120 133 157 119 132 157 119 132 157 118 132
156 139 155 156 139 154 156 139 154 156 138 154 33 20 22 33 20 22 33
20 22 33 20 22 72 46 6 96 28 4 108 18 2 108 18 2 156 135 150 156 134
149 156 134 149 156 133 148 156 133 148 156 133 147 156 132 147 157
132 147 157 131 146 157 131 146 157 131 145 157 130 145 157 130 144
157 129 144 157 129 143 157 129 143 157 128 143 157 128 142 157 127
142 157 127 141 157 127 141 158 126 140 158 126 140 158 125 139 158
125 139 33 20 22 33 20 22 33 20 22 158 123 137 158 123 137 158 123
136 159 122 136 159 122 136 159 122 135 159 121 135 159 121 134 159
120 134 159 120 133
157 140 156 157 140 155 157 139 155 157 139 154 157 139 154 157 138
154 157 138 153 157 137 153 157 137 152 157 137 152 157 136 151 158
136 151 158 135 151 158 135 150 158 135 150 158 134 149 158 134 149
158 134 148 158 133 148 158 133 148 158 132 147 158 132 147 158 132
146 158 131 146 158 131 145 158 130 145 159 130 145 159 130 144 159
129 144 159 129 143 159 129 143 159 128 142 159 128 142 159 127 142
159 127 141 159 127 141 159 126 140 159 126 140 160 126 140 160 125
139 160 125 139 160 124 138 160 124 138 160 124 137 160 123 137 160
123 137 160 123 136 161 122 136 161 122 135 161 121 135
158 141 156 158 140 156 158 140 155 158 140 155 158 139 155 159 139
154 159 138 154 159 138 153 159 138 153 159 137 153 159 137 152 159
137 152 159 136 151 159 136 151 159 135 151 159 135 150 159 135 150
159 134 149 159 134 149 159 134 149 159 133 148 159 133 148 160 133
147 160 132 147 160 132 146 160 131 146 160 131 146 160 131 145 160
130 145 160 130 144 160 130 144 160 129 144 160 129 143 160 128 143
161 128 142 161 128 142 161 127 142 161 127 141 161 127 141 161 126
140 161 126 140 161 126 140 161 125 139 161 125 139 162 124 138 162
124 138 162 124 138 162 123 137 162 123 137 162 123 136
