P3
50 25
255
79 71 71 79 71 71 78 70 70 78 70 70 77 70 70 77 69 69 77 69 69 76 68
68 76 68 68 75 68 68 75 67 67 74 67 67 74 66 66 73 66 66 73 66 66 72
65 65 72 65 65 71 64 64 71 64 64 70 63 63 70 63 63 69 62 62 69 62 62
68 61 61 67 61 61 236 212 212 236 213 213 237 213 213 237 213 213 237
213 213 237 214 214 238 214 214 238 214 214 238 214 214 238 214 214
238 214 214 238 214 214 238 214 214 238 214 214 238 214 214 237 214
214 237 214 214 237 213 213 237 213 213 237 213 213 237 213 213 237
213 213 236 213 213 236 213 213 236 212 212
79 71 71 78 70 70 78 70 70 78 70 70 77 69 69 77 69 69 76 69 69 76 68
68 76 68 68 75 68 68 75 67 67 74 67 67 74 66 66 73 66 66 73 65 65 72
65 65 72 64 64 71 64 64 71 64 64 70 63 63 70 63 63 69 62 62 68 62 62
68 61 61 67 60 60 235 212 212 236 212 212 236 212 212 236 213 213 236
213 213 237 213 213 237 213 213 237 213 213 237 213 213 237 213 213
237 213 213 237 213 213 237 213 213 237 213 213 237 213 213 237 213
213 237 213 213 237 213 213 236 213 213 236 213 213 236 212 212 236
212 212 236 212 212 236 212 212 235 212 212
78 71 71 78 70 70 78 70 70 77 70 70 77 69 69 77 69 69 76 68 68 76 68
68 75 68 68 75 67 67 74 67 67 74 66 66 73 66 66 73 66 66 73 65 65 72
65 65 71 64 64 71 64 64 70 63 63 70 63 63 69 62 62 69 62 62 68 61 61
68 61 61 67 60 60 234 211 211 235 211 211 235 211 211 235 212 212 236
212 212 236 212 212 236 212 212 236 212 212 236 213 213 236 213 213
236 213 213 236 213 213 236 213 213 236 213 213 236 212 212 236 212
212 236 212 212 236 212 212 236 212 212 236 212 212 235 212 212 235
212 212 235 212 212 235 211 211 235 211 211
78 70 70 78 70 70 78 70 70 77 69 69 77 69 69 76 69 69 76 68 68 75 68
68 75 67 67 75 67 67 74 67 67 74 66 66 73 66 66 73 65 65 72 65 65 72
65 65 71 64 64 71 64 64 70 63 63 70 63 63 69 62 62 69 62 62 68 61 61
67 61 61 67 60 60 233 210 210 234 210 210 234 211 211 234 211 211 235
211 211 235 211 211 235 212 212 235 212 212 235 212 212 235 212 212
235 212 212 236 212 212 235 212 212 235 212 212 235 212 212 235 212
212 235 212 212 235 212 212 235 212 212 235 211 211 235 211 211 235
211 211 235 211 211 234 211 211 234 211 211
78 70 70 78 70 70 77 69 69 77 69 69 76 69 69 76 68 68 76 68 68 75 68
68 75 67 67 74 67 67 74 67 67 73 66 66 73 66 66 73 65 65 72 65 65 72
64 64 71 64 64 71 63 63 70 63 63 16 161 80 15 152 76 13 138 69 11 118
59 67 60 60 67 60 60 232 209 209 233 210 210 233 210 210 234 210 210
234 210 210 234 211 211 234 211 211 234 211 211 235 211 211 235 211
211 235 211 211 235 211 211 235 211 211 235 211 211 235 211 211 235
211 211 235 211 211 234 211 211 234 211 211 234 211 211 234 211 211
234 211 211 234 210 210 234 210 210 234 210 210
78 70 70 77 70 70 77 69 69 77 69 69 76 69 69 76 68 68 75 68 68 75 67
67 75 67 67 74 67 67 74 66 66 73 66 66 73 65 65 72 65 65 72 65 65 71
64 64 71 64 64 18 189 94 18 185 92 17 176 88 16 165 82 15 152 76 13
136 68 11 116 58 9 91 45 231 208 208 232 209 209 232 209 209 233 209
209 233 210 210 233 210 210 233 210 210 234 210 210 234 210 210 234
210 210 234 210 210 234 210 210 234 211 211 234 210 210 234 210 210
234 210 210 234 210 210 234 210 210 234 210 210 234 210 210 233 210
210 233 210 210 233 210 210 233 210 210 233 210 210
78 70 70 77 69 69 77 69 69 76 69 69 76 68 68 76 68 68 75 68 68 75 67
67 74 67 67 74 66 66 73 66 66 73 66 66 73 65 65 72 65 65 72 64 64 19
192 96 20 200 100 19 196 98 18 189 94 17 179 89 16 168 84 15 154 77
13 139 69 12 122 61 10 102 51 7 76 38 3 34 17 231 208 208 232 209 209
232 209 209 232 209 209 233 209 209 233 209 209 233 210 210 233 210
210 233 210 210 233 210 210 233 210 210 233 210 210 233 210 210 233
210 210 233 210 210 233 210 210 233 210 210 233 210 210 233 209 209
233 209 209 233 209 209 232 209 209 232 209 209
77 70 70 77 69 69 77 69 69 76 68 68 76 68 68 75 68 68 75 67 67 75 67
67 74 67 67 74 66 66 73 66 66 73 65 65 72 65 65 72 65 65 18 187 93 20
203 101 20 201 100 19 196 98 18 188 94 17 178 89 16 166 83 15 153 76
13 139 69 12 122 61 10 103 51 8 81 40 5 53 26 230 207 207 231 208 208
231 208 208 231 208 208 232 208 208 232 209 209 232 209 209 232 209
209 232 209 209 232 209 209 232 209 209 232 209 209 232 209 209 232
209 209 232 209 209 232 209 209 232 209 209 232 209 209 232 209 209
232 209 209 232 209 209 232 209 209 232 208 208
77 69 69 77 69 69 76 69 69 76 68 68 76 68 68 75 68 68 75 67 67 74 67
67 74 66 66 73 66 66 73 66 66 73 65 65 72 65 65 72 64 64 20 200 100
20 203 101 19 199 99 19 192 96 18 184 92 17 174 87 16 162 81 14 149
74 13 135 67 11 119 59 10 101 50 8 81 40 5 56 28 2 25 12 230 207 207
230 207 207 231 207 207 231 208 208 231 208 208 231 208 208 231 208
208 231 208 208 231 208 208 232 208 208 232 208 208 232 208 208 232
208 208 232 208 208 232 208 208 231 208 208 231 208 208 231 208 208
231 208 208 231 208 208 231 208 208 231 208 208
77 69 69 76 69 69 76 68 68 76 68 68 75 68 68 75 67 67 74 67 67 74 67
67 74 66 66 73 66 66 73 65 65 72 65 65 72 65 65 18 182 91 19 199 99
19 198 99 19 194 97 24 192 99 35 195 106 16 168 84 15 157 78 14 144
72 13 130 65 11 114 57 9 97 48 7 77 38 5 54 27 2 25 12 229 206 206
229 206 206 230 207 207 230 207 207 230 207 207 230 207 207 230 207
207 231 207 207 231 208 208 231 208 208 231 208 208 231 208 208 231
208 208 231 208 208 231 208 208 231 208 208 231 208 208 231 207 207
231 207 207 230 207 207 230 207 207 230 207 207
77 69 69 76 68 68 76 68 68 75 68 68 75 67 67 75 67 67 74 67 67 74 66
66 73 66 66 73 66 66 73 65 65 72 65 65 72 64 64 18 185 92 19 193 96
19 192 96 18 187 93 19 182 91 17 171 86 16 161 80 15 150 75 13 137 68
12 123 61 10 108 54 9 91 45 7 72 36 4 49 24 2 25 12 2 25 12 228 205
205 229 206 206 229 206 206 229 206 206 229 206 206 230 207 207 230
207 207 230 207 207 230 207 207 230 207 207 230 207 207 230 207 207
230 207 207 230 207 207 230 207 207 230 207 207 230 207 207 230 207
207 230 207 207 230 207 207 230 207 207
76 69 69 76 68 68 76 68 68 75 68 68 75 67 67 74 67 67 74 67 67 74 66
66 73 66 66 73 65 65 72 65 65 72 65 65 71 64 64 17 179 89 18 185 92
18 183 91 17 178 89 17 171 85 16 163 81 15 153 76 14 141 70 12 129 64
11 115 57 10 100 50 8 83 41 6 64 32 4 42 21 2 25 12 2 25 12 227 205
205 228 205 205 228 205 205 228 205 205 228 206 206 229 206 206 229
206 206 229 206 206 229 206 206 229 206 206 229 206 206 229 206 206
229 206 206 229 206 206 229 206 206 229 206 206 229 206 206 229 206
206 229 206 206 229 206 206 229 206 206
76 68 68 76 68 68 75 68 68 75 67 67 75 67 67 74 67 67 74 66 66 73 66
66 73 66 66 72 65 65 72 65 65 72 64 64 71 64 64 16 169 84 17 175 87
17 173 86 16 168 84 16 161 80 15 153 76 14 143 71 13 132 66 11 119 59
10 106 53 9 91 45 7 74 37 5 55 27 3 33 16 2 25 12 2 25 12 226 204 204
227 204 204 227 204 204 227 205 205 228 205 205 228 205 205 228 205
205 228 205 205 228 205 205 228 205 205 228 205 205 228 206 206 228
206 206 228 206 206 228 206 206 228 206 206 228 206 206 228 205 205
228 205 205 228 205 205 228 205 205
76 68 68 75 68 68 75 67 67 75 67 67 74 67 67 74 66 66 73 66 66 73 66
66 73 65 65 72 65 65 72 65 65 71 64 64 71 64 64 15 154 77 16 162 81
16 162 81 15 157 78 15 150 75 14 142 71 13 132 66 12 121 60 10 109 54
9 95 47 8 80 40 6 63 31 4 44 22 2 25 12 2 25 12 2 25 12 225 203 203
226 203 203 226 203 203 226 204 204 227 204 204 227 204 204 227 204
204 227 204 204 85 170 17 84 169 16 77 154 15 63 127 12 228 205 205
228 205 205 228 205 205 228 205 205 228 205 205 228 205 205 228 205
205 228 205 205 227 205 205
75 68 68 75 68 68 75 67 67 74 67 67 74 67 67 74 66 66 73 66 66 73 65
65 72 65 65 72 65 65 72 64 64 71 64 64 71 64 64 13 132 66 14 147 73
14 148 74 14 144 72 13 138 69 12 129 64 12 120 60 10 109 54 9 97 48 8
83 41 6 67 33 5 50 25 3 31 15 2 25 12 2 25 12 2 25 12 224 202 202 225
202 202 225 203 203 225 203 203 226 203 203 226 203 203 75 150 15 97
194 19 98 197 19 94 189 18 87 175 17 76 153 15 61 123 12 37 74 7 227
204 204 227 204 204 227 204 204 227 204 204 227 204 204 227 204 204
227 204 204
75 68 68 75 67 67 75 67 67 74 67 67 74 66 66 73 66 66 73 66 66 73 65
65 72 65 65 72 65 65 71 64 64 71 64 64 70 63 63 70 63 63 12 128 64 13
131 65 12 129 64 12 123 61 11 115 57 10 106 53 9 95 47 8 83 41 6 69
34 5 53 26 3 36 18 2 25 12 2 25 12 2 25 12 139 125 125 139 125 125
138 124 124 224 202 202 224 202 202 25 22 22 25 22 22 95 191 19 101
203 20 101 202 20 96 193 19 89 179 17 79 159 15 66 132 13 48 96 9 15
30 3 226 203 203 226 203 203 226 203 203 226 203 203 226 203 203 226
203 203
75 67 67 75 67 67 74 67 67 74 66 66 74 66 66 73 66 66 73 65 65 72 65
65 72 65 65 71 64 64 71 64 64 71 64 64 153 138 138 153 137 137 9 97
48 11 111 55 11 111 55 10 106 53 9 99 49 9 90 45 7 79 39 6 67 33 5 53
26 3 37 18 2 25 12 2 25 12 2 25 12 2 25 12 25 22 22 25 22 22 25 22 22
25 22 22 25 22 22 25 22 22 75 150 15 96 192 19 100 200 20 101 200 22
94 189 19 87 174 17 77 155 15 65 131 13 49 98 9 25 50 5 225 203 203
225 203 203 225 203 203 225 203 203 225 203 203 225 203 203
75 67 67 74 67 67 74 67 67 74 66 66 73 66 66 160 144 144 160 144 144
159 143 143 192 153 19 168 135 16 133 107 13 87 70 8 25 20 2 156 140
140 156 140 140 8 80 40 8 87 43 8 85 42 8 80 40 7 71 35 6 61 30 4 48
24 3 34 17 2 25 12 2 25 12 2 25 12 2 25 12 25 22 22 25 22 22 25 22 22
25 22 22 25 22 22 25 22 22 25 22 22 74 149 14 91 182 18 94 189 18 93
187 18 89 178 17 82 164 16 73 146 14 61 122 12 45 91 9 23 47 4 138
124 124 225 202 202 225 202 202 225 202 202 225 202 202 225 202 202
166 149 149 165 149 149 165 148 148 164 148 148 164 147 147 163 147
147 163 146 146 203 162 20 188 151 18 161 129 16 126 100 12 82 66 8
26 21 2 159 143 143 158 142 142 158 142 142 4 49 24 5 58 29 5 55 27 4
48 24 3 38 19 2 25 12 2 25 12 2 25 12 2 25 12 2 25 12 25 22 22 25 22
22 25 22 22 25 22 22 25 22 22 25 22 22 25 22 22 25 22 22 60 121 12 81
163 16 86 172 17 85 170 17 81 162 16 74 149 14 65 130 13 53 107 10 38
76 7 15 31 3 141 127 127 141 127 127 140 126 126 140 126 126 139 125
125 138 125 125
168 151 151 167 151 151 167 150 150 166 150 150 166 149 149 165 149
149 165 148 148 190 152 19 172 137 17 143 114 14 108 86 10 65 52 6 25
20 2 25 20 2 161 144 144 160 144 144 159 143 143 159 143 143 2 25 12
2 25 12 2 25 12 2 25 12 2 25 12 2 25 12 25 22 22 25 22 22 25 22 22 25
22 22 25 22 22 25 22 22 25 22 22 25 22 22 25 22 22 150 135 135 150
135 135 67 134 13 73 147 14 73 147 14 70 140 14 63 127 12 54 109 10
42 85 8 26 53 5 12 25 2 25 22 22 25 22 22 25 22 22 143 128 128 142
128 128 141 127 127
170 153 153 169 152 152 169 152 152 168 151 151 168 151 151 167 150
150 167 150 150 165 132 16 146 117 14 118 94 11 82 66 8 39 31 3 25 20
2 163 147 147 162 146 146 162 146 146 161 145 145 161 145 145 160 144
144 160 144 144 159 143 143 25 22 22 25 22 22 25 22 22 25 22 22 25 22
22 156 140 140 156 140 140 155 139 139 154 139 139 154 139 139 153
138 138 153 138 138 152 137 137 152 137 137 39 79 7 55 111 11 58 116
11 55 111 11 49 99 9 40 81 8 27 55 5 12 25 2 25 22 22 25 22 22 25 22
22 25 22 22 25 22 22 25 22 22 144 130 130
171 154 154 170 153 153 170 153 153 170 153 153 169 152 152 169 152
152 168 151 151 128 103 12 113 90 11 85 68 8 49 39 4 25 20 2 25 20 2
25 22 22 25 22 22 25 22 22 25 22 22 25 22 22 162 146 146 161 145 145
161 145 145 160 144 144 160 144 144 159 143 143 159 143 143 158 142
142 158 142 142 157 142 142 157 141 141 156 141 141 156 140 140 155
140 140 155 139 139 154 139 139 154 138 138 153 138 138 19 39 3 34 69
6 34 69 6 29 58 5 19 39 3 12 25 2 25 22 22 25 22 22 25 22 22 25 22 22
25 22 22 25 22 22 147 132 132 146 132 132
172 155 155 172 154 154 171 154 154 171 154 154 170 153 153 170 153
153 169 152 152 169 152 152 64 51 6 40 32 4 25 20 2 25 20 2 25 22 22
25 22 22 25 22 22 25 22 22 164 148 148 164 147 147 163 147 147 163
147 147 162 146 146 162 146 146 161 145 145 161 145 145 160 144 144
160 144 144 159 143 143 159 143 143 158 143 143 158 142 142 157 142
142 157 141 141 156 141 141 156 140 140 155 140 140 155 139 139 155
139 139 154 139 139 25 22 22 25 22 22 25 22 22 25 22 22 25 22 22 25
22 22 25 22 22 150 135 135 150 135 135 149 134 134 149 134 134 148
133 133
173 156 156 173 155 155 172 155 155 172 154 154 171 154 154 171 154
154 170 153 153 170 153 153 169 152 152 169 152 152 168 151 151 168
151 151 167 151 151 167 150 150 166 150 150 166 149 149 165 149 149
165 148 148 165 148 148 164 148 148 164 147 147 163 147 147 163 146
146 162 146 146 162 145 145 161 145 145 161 145 145 160 144 144 160
144 144 159 143 143 159 143 143 158 142 142 158 142 142 157 142 142
157 141 141 156 141 141 156 140 140 156 140 140 155 140 140 155 139
139 154 139 139 154 138 138 153 138 138 153 137 137 152 137 137 152
137 137 151 136 136 151 136 136 150 135 135 150 135 135
174 156 156 173 156 156 173 155 155 172 155 155 172 155 155 171 154
154 171 154 154 171 153 153 170 153 153 170 153 153 169 152 152 169
152 152 168 151 151 168 151 151 167 151 151 167 150 150 166 150 150
166 149 149 166 149 149 165 149 149 165 148 148 164 148 148 164 147
147 163 147 147 163 146 146 162 146 146 162 146 146 161 145 145 161
145 145 161 144 144 160 144 144 160 144 144 159 143 143 159 143 143
158 142 142 158 142 142 157 142 142 157 141 141 156 141 141 156 140
140 156 140 140 155 140 140 155 139 139 154 139 139 154 138 138 153
138 138 153 138 138 152 137 137 152 137 137 152 136 136
