P3
50 25
255
255 71 71 255 71 71 255 70 70 255 70 70 255 70 70 255 69 69 255 69 69
255 68 68 255 68 68 255 68 68 255 67 67 255 67 67 255 66 66 255 66 66
255 66 66 255 65 65 255 65 65 255 64 64 255 64 64 255 63 63 255 63 63
255 62 62 255 62 62 255 61 61 255 61 61 255 212 212 255 213 213 255
213 213 255 213 213 255 213 213 255 214 214 255 214 214 255 214 214
255 214 214 255 214 214 255 214 214 255 214 214 255 214 214 255 214
214 255 214 214 255 214 214 255 214 214 255 213 213 255 213 213 255
213 213 255 213 213 255 213 213 255 213 213 255 213 213 255 212 212
255 71 71 255 70 70 255 70 70 255 70 70 255 69 69 255 69 69 255 69 69
255 68 68 255 68 68 255 68 68 255 67 67 255 67 67 255 66 66 255 66 66
255 65 65 255 65 65 255 64 64 255 64 64 255 64 64 255 63 63 255 63 63
255 62 62 255 62 62 255 61 61 255 60 60 255 212 212 255 212 212 255
212 212 255 213 213 255 213 213 255 213 213 255 213 213 255 213 213
255 213 213 255 213 213 255 213 213 255 213 213 255 213 213 255 213
213 255 213 213 255 213 213 255 213 213 255 213 213 255 213 213 255
213 213 255 212 212 255 212 212 255 212 212 255 212 212 255 212 212
255 71 71 255 70 70 255 70 70 255 70 70 255 69 69 255 69 69 255 68 68
255 68 68 255 68 68 255 67 67 255 67 67 255 66 66 255 66 66 255 66 66
255 65 65 255 65 65 255 64 64 255 64 64 255 63 63 255 63 63 255 62 62
255 62 62 255 61 61 255 61 61 255 60 60 255 211 211 255 211 211 255
211 211 255 212 212 255 212 212 255 212 212 255 212 212 255 212 212
255 213 213 255 213 213 255 213 213 255 213 213 255 213 213 255 213
213 255 212 212 255 212 212 255 212 212 255 212 212 255 212 212 255
212 212 255 212 212 255 212 212 255 212 212 255 211 211 255 211 211
255 70 70 255 70 70 255 70 70 255 69 69 255 69 69 255 69 69 255 68 68
255 68 68 255 67 67 255 67 67 255 67 67 255 66 66 255 66 66 255 65 65
255 65 65 255 65 65 255 64 64 255 64 64 255 63 63 255 63 63 255 62 62
255 62 62 255 61 61 255 61 61 255 60 60 255 210 210 255 210 210 255
211 211 255 211 211 255 211 211 255 211 211 255 212 212 255 212 212
255 212 212 255 212 212 255 212 212 255 212 212 255 212 212 255 212
212 255 212 212 255 212 212 255 212 212 255 212 212 255 212 212 255
211 211 255 211 211 255 211 211 255 211 211 255 211 211 255 211 211
255 70 70 255 70 70 255 69 69 255 69 69 255 69 69 255 68 68 255 68 68
255 68 68 255 67 67 255 67 67 255 67 67 255 66 66 255 66 66 255 65 65
255 65 65 255 64 64 255 64 64 255 63 63 255 63 63 25 161 80 26 152 76
26 138 69 24 118 59 255 60 60 254 60 60 255 209 209 255 210 210 255
210 210 255 210 210 255 210 210 255 211 211 255 211 211 255 211 211
255 211 211 255 211 211 255 211 211 255 211 211 255 211 211 255 211
211 255 211 211 255 211 211 255 211 211 255 211 211 255 211 211 255
211 211 255 211 211 255 211 211 255 210 210 255 210 210 255 210 210
255 70 70 255 70 70 255 69 69 255 69 69 255 69 69 255 68 68 255 68 68
255 67 67 255 67 67 255 67 67 255 66 66 255 66 66 255 65 65 255 65 65
255 65 65 255 64 64 255 64 64 26 189 94 28 185 92 29 176 88 29 165 82
28 152 76 27 136 68 26 116 58 24 91 45 255 208 208 255 209 209 255
209 209 255 209 209 255 210 210 255 210 210 255 210 210 255 210 210
255 210 210 255 210 210 255 210 210 255 210 210 255 211 211 255 210
210 255 210 210 255 210 210 255 210 210 255 210 210 255 210 210 255
210 210 255 210 210 255 210 210 255 210 210 255 210 210 255 210 210
255 70 70 255 69 69 255 69 69 255 69 69 255 68 68 255 68 68 255 68 68
255 67 67 255 67 67 255 66 66 255 66 66 255 66 66 255 65 65 255 65 65
255 64 64 23 192 96 27 200 100 28 196 98 29 189 94 29 179 89 29 168
84 29 154 77 28 139 69 27 122 61 26 102 51 23 76 38 17 34 17 255 208
208 255 209 209 255 209 209 255 209 209 255 209 209 255 209 209 255
210 210 255 210 210 255 210 210 255 210 210 255 210 210 255 210 210
255 210 210 255 210 210 255 210 210 255 210 210 255 210 210 255 210
210 255 209 209 255 209 209 255 209 209 255 209 209 255 209 209
255 70 70 255 69 69 255 69 69 255 68 68 255 68 68 255 68 68 255 67 67
255 67 67 255 67 67 255 66 66 255 66 66 255 65 65 255 65 65 255 65 65
4 25 12 25 203 101 27 201 100 28 196 98 29 188 94 29 178 89 29 166 83
29 153 76 28 139 69 27 122 61 26 103 51 24 81 40 21 53 26 255 207 207
255 208 208 255 208 208 255 208 208 255 208 208 255 209 209 255 209
209 255 209 209 255 209 209 255 209 209 255 209 209 255 209 209 255
209 209 255 209 209 255 209 209 255 209 209 255 209 209 255 209 209
255 209 209 255 209 209 255 209 209 255 209 209 255 208 208
255 69 69 255 69 69 255 69 69 255 68 68 255 68 68 255 68 68 255 67 67
255 67 67 255 66 66 255 66 66 255 66 66 255 65 65 255 65 65 255 64 64
23 200 100 26 203 101 27 199 99 28 192 96 29 184 92 29 174 87 29 162
81 28 149 74 28 135 67 27 119 59 26 101 50 24 81 40 21 56 28 18 25 12
255 207 207 255 207 207 255 207 207 255 208 208 255 208 208 255 208
208 255 208 208 255 208 208 255 208 208 255 208 208 255 208 208 255
208 208 255 208 208 255 208 208 255 208 208 255 208 208 255 208 208
255 208 208 255 208 208 255 208 208 255 208 208 255 208 208
255 69 69 255 69 69 255 68 68 255 68 68 255 68 68 255 67 67 255 67 67
255 67 67 255 66 66 255 66 66 255 65 65 255 65 65 255 65 65 4 25 12
23 199 99 25 198 99 26 194 97 33 192 99 45 195 106 28 168 84 28 157
78 27 144 72 27 130 65 43 114 57 25 97 48 23 77 38 21 54 27 18 25 12
255 206 206 255 206 206 255 207 207 255 207 207 255 207 207 255 207
207 255 207 207 255 207 207 255 208 208 255 208 208 255 208 208 255
208 208 255 208 208 255 208 208 255 208 208 255 208 208 255 208 208
255 207 207 255 207 207 255 207 207 255 207 207 255 207 207
255 69 69 255 68 68 255 68 68 255 68 68 255 67 67 255 67 67 255 67 67
255 66 66 255 66 66 255 66 66 255 65 65 255 65 65 255 64 64 4 25 12
22 193 96 24 192 96 25 187 93 28 182 91 27 171 86 27 161 80 27 150 75
26 137 68 26 123 61 32 108 54 24 91 45 22 72 36 20 49 24 17 25 12 16
25 12 255 205 205 255 206 206 255 206 206 255 206 206 255 206 206 255
207 207 255 207 207 255 207 207 255 207 207 255 207 207 255 207 207
255 207 207 255 207 207 255 207 207 255 207 207 255 207 207 255 207
207 255 207 207 255 207 207 255 207 207 255 207 207
255 69 69 255 68 68 255 68 68 255 68 68 255 67 67 255 67 67 255 67 67
255 66 66 255 66 66 255 65 65 255 65 65 255 65 65 255 64 64 4 25 12
21 185 92 23 183 91 24 178 89 25 171 85 25 163 81 25 153 76 25 141 70
25 129 64 24 115 57 23 100 50 22 83 41 21 64 32 19 42 21 17 25 12 16
25 12 255 205 205 255 205 205 255 205 205 255 205 205 255 206 206 255
206 206 255 206 206 255 206 206 255 206 206 255 206 206 255 206 206
255 206 206 255 206 206 255 206 206 255 206 206 255 206 206 255 206
206 255 206 206 255 206 206 255 206 206 255 206 206
255 68 68 255 68 68 255 68 68 255 67 67 255 67 67 255 67 67 255 66 66
255 66 66 255 66 66 255 65 65 255 65 65 255 64 64 255 64 64 4 25 12
19 175 87 21 173 86 22 168 84 23 161 80 23 153 76 24 143 71 23 132 66
23 119 59 23 106 53 22 91 45 21 74 37 19 55 27 17 33 16 16 25 12 15
25 12 255 204 204 255 204 204 255 204 204 255 205 205 255 205 205 255
205 205 255 205 205 255 205 205 255 205 205 255 205 205 255 205 205
255 206 206 255 206 206 255 206 206 255 206 206 255 206 206 255 206
206 255 205 205 255 205 205 255 205 205 255 205 205
255 68 68 255 68 68 255 67 67 255 67 67 255 67 67 255 66 66 255 66 66
255 66 66 255 65 65 45 22 22 45 22 22 45 22 22 45 22 22 4 25 12 4 25
12 19 162 81 20 157 78 21 150 75 21 142 71 22 132 66 22 121 60 21 109
54 21 95 47 20 80 40 19 63 31 17 44 22 15 25 12 15 25 12 14 25 12 255
203 203 255 203 203 255 203 203 255 204 204 255 204 204 255 204 204
255 204 204 255 204 204 121 170 17 135 169 16 138 154 15 132 127 12
255 205 205 255 205 205 255 205 205 255 205 205 255 205 205 255 205
205 255 205 205 255 205 205 255 205 205
255 68 68 255 68 68 255 67 67 255 67 67 255 67 67 255 66 66 255 66 66
45 22 22 45 22 22 45 22 22 45 22 22 45 22 22 45 22 22 4 25 12 4 25 12
16 148 74 18 144 72 19 138 69 19 129 64 19 120 60 19 109 54 19 97 48
18 83 41 18 67 33 16 50 25 15 31 15 14 25 12 14 25 12 12 25 12 255
202 202 255 202 202 255 203 203 255 203 203 255 203 203 255 203 203
22 25 2 122 194 19 139 197 19 147 189 18 150 175 17 148 153 15 139
123 12 116 74 7 255 204 204 255 204 204 255 204 204 255 204 204 255
204 204 255 204 204 255 204 204
255 68 68 255 67 67 255 67 67 255 67 67 255 66 66 255 66 66 45 22 22
45 22 22 45 22 22 45 22 22 45 22 22 45 22 22 45 22 22 45 22 22 4 25
12 4 25 12 15 129 64 16 123 61 17 115 57 17 106 53 17 95 47 16 83 41
16 69 34 15 53 26 14 36 18 13 25 12 13 25 12 12 25 12 253 125 125 253
125 125 253 124 124 255 202 202 255 202 202 255 202 202 255 202 202
22 25 2 126 203 20 139 202 20 146 193 19 149 179 17 148 159 15 142
132 13 128 96 9 94 30 3 255 203 203 255 203 203 255 203 203 255 203
203 255 203 203 255 203 203
255 67 67 255 67 67 255 67 67 255 66 66 255 66 66 45 22 22 45 22 22
45 22 22 45 22 22 45 22 22 45 22 22 45 22 22 45 22 22 45 22 22 4 25
12 4 25 12 4 25 12 13 106 53 14 99 49 14 90 45 14 79 39 14 67 33 13
53 26 12 37 18 11 25 12 11 25 12 11 25 12 9 25 12 255 129 129 255 129
129 255 128 128 255 128 128 255 127 127 255 126 126 22 25 2 22 25 2
121 200 20 136 200 22 140 189 19 143 174 17 142 155 15 161 131 13 126
98 9 104 50 5 255 203 203 255 203 203 255 203 203 255 203 203 255 203
203 255 203 203
255 67 67 255 67 67 255 67 67 255 66 66 254 66 66 45 22 22 45 22 22
45 22 22 255 153 19 255 135 16 255 107 13 241 70 8 153 20 2 45 22 22
45 22 22 4 25 12 4 25 12 4 25 12 10 80 40 11 71 35 11 61 30 10 48 24
9 34 17 9 25 12 9 25 12 9 25 12 8 25 12 255 133 133 255 133 133 255
132 132 255 131 131 255 131 131 255 130 130 255 130 130 22 25 2 22 25
2 110 189 18 122 187 18 129 178 17 132 164 16 131 146 14 126 122 12
116 91 9 97 47 4 255 124 124 255 202 202 255 202 202 255 202 202 255
202 202 255 202 202
255 149 149 255 149 149 255 148 148 255 148 148 255 147 147 255 147
147 45 22 22 255 162 20 255 151 18 255 129 16 255 100 12 245 66 8 183
21 2 45 22 22 45 22 22 45 22 22 4 25 12 4 25 12 4 25 12 4 25 12 6 38
19 6 25 12 7 25 12 7 25 12 7 25 12 6 25 12 255 136 136 255 136 136
255 135 135 255 135 135 255 134 134 255 134 134 255 133 133 255 133
133 22 25 2 22 25 2 22 25 2 106 170 17 113 162 16 117 149 14 116 130
13 112 107 10 102 76 7 82 31 3 255 127 127 255 127 127 255 126 126
255 126 126 255 125 125 255 125 125
255 151 151 255 151 151 255 150 150 255 150 150 255 149 149 255 149
149 255 148 148 252 152 19 255 137 17 255 114 14 255 86 10 221 52 6
177 20 2 123 20 2 45 22 22 45 22 22 45 22 22 45 22 22 4 25 12 4 25 12
4 25 12 4 25 12 4 25 12 4 25 12 255 140 140 255 139 139 255 139 139
255 138 138 45 22 22 45 22 22 45 22 22 45 22 22 45 22 22 45 22 22 255
135 135 22 25 2 22 25 2 86 147 14 94 140 14 97 127 12 97 109 10 92 85
8 81 53 5 69 25 2 255 130 130 255 129 129 255 129 129 255 128 128 255
128 128 255 127 127
255 153 153 255 152 152 255 152 152 255 151 151 255 151 151 255 150
150 255 150 150 212 132 16 233 117 14 231 94 11 213 66 8 177 31 3 158
20 2 255 147 147 255 146 146 255 146 146 45 22 22 45 22 22 45 22 22
45 22 22 45 22 22 255 143 143 255 142 142 255 142 142 255 141 141 255
141 141 255 140 140 255 140 140 45 22 22 45 22 22 45 22 22 45 22 22
45 22 22 45 22 22 45 22 22 22 25 2 22 25 2 22 25 2 68 111 11 73 99 9
72 81 8 66 55 5 55 25 2 255 132 132 255 132 132 255 131 131 255 131
131 255 130 130 255 130 130 255 130 130
255 154 154 255 153 153 255 153 153 45 22 22 45 22 22 45 22 22 45 22
22 45 20 2 173 90 11 172 68 8 152 39 4 134 20 2 120 20 2 255 148 148
255 148 148 255 147 147 255 147 147 255 146 146 255 146 146 255 145
145 255 145 145 255 144 144 255 144 144 255 143 143 255 143 143 255
142 142 255 142 142 255 142 142 255 141 141 255 141 141 45 22 22 45
22 22 45 22 22 45 22 22 45 22 22 45 22 22 22 25 2 22 25 2 22 25 2 39
58 5 38 39 3 36 25 2 255 135 135 255 134 134 255 134 134 255 133 133
255 133 133 255 132 132 255 132 132 255 132 132
255 155 155 255 154 154 255 154 154 255 154 154 45 22 22 45 22 22 45
22 22 45 22 22 45 20 2 84 32 4 84 20 2 81 20 2 255 150 150 255 149
149 255 149 149 255 148 148 255 148 148 255 147 147 255 147 147 255
147 147 255 146 146 255 146 146 255 145 145 255 145 145 255 144 144
255 144 144 255 143 143 255 143 143 255 143 143 255 142 142 255 142
142 255 141 141 255 141 141 255 140 140 255 140 140 45 22 22 45 22 22
45 22 22 45 22 22 45 22 22 45 22 22 255 137 137 255 136 136 255 136
136 255 136 136 255 135 135 255 135 135 255 134 134 255 134 134 255
133 133
255 156 156 255 155 155 255 155 155 255 154 154 255 154 154 255 154
154 255 153 153 255 153 153 255 152 152 255 152 152 255 151 151 255
151 151 255 151 151 255 150 150 255 150 150 255 149 149 255 149 149
255 148 148 255 148 148 255 148 148 255 147 147 255 147 147 255 146
146 255 146 146 255 145 145 255 145 145 255 145 145 255 144 144 255
144 144 255 143 143 255 143 143 255 142 142 255 142 142 255 142 142
255 141 141 255 141 141 255 140 140 255 140 140 255 140 140 255 139
139 255 139 139 255 138 138 255 138 138 255 137 137 255 137 137 255
137 137 255 136 136 255 136 136 255 135 135 255 135 135
255 156 156 255 156 156 255 155 155 255 155 155 255 155 155 255 154
154 255 154 154 255 153 153 255 153 153 255 153 153 255 152 152 255
152 152 255 151 151 255 151 151 255 151 151 255 150 150 255 150 150
255 149 149 255 149 149 255 149 149 255 148 148 255 148 148 255 147
147 255 147 147 255 146 146 255 146 146 255 146 146 255 145 145 255
145 145 255 144 144 255 144 144 255 144 144 255 143 143 255 143 143
255 142 142 255 142 142 255 142 142 255 141 141 255 141 141 255 140
140 255 140 140 255 140 140 255 139 139 255 139 139 255 138 138 255
138 138 255 138 138 255 137 137 255 137 137 255 136 136
